STARTFONT 2.1
COMMENT
COMMENT Converted from OpenType font "JF-Dot-K12.ttf" by "otf2bdf 3.0".
COMMENT
FONT -FreeType-JF Dot K12-Medium-R-Normal--17-120-100-100-P-123-ISO10646-1
SIZE 12 100 100
FONTBOUNDINGBOX 12 12 0 -2
STARTPROPERTIES 19
FOUNDRY "FreeType"
FAMILY_NAME "JF Dot K12"
WEIGHT_NAME "Medium"
SLANT "R"
SETWIDTH_NAME "Normal"
ADD_STYLE_NAME ""
PIXEL_SIZE 17
POINT_SIZE 120
RESOLUTION_X 100
RESOLUTION_Y 100
SPACING "P"
AVERAGE_WIDTH 123
CHARSET_REGISTRY "ISO10646"
CHARSET_ENCODING "1"
FONT_ASCENT 10
FONT_DESCENT 1
COPYRIGHT "-FreeType-JF Dot K12-Medium-R-Normal--17-120-100-100-P-123-ISO10646-1"
_OTF_FONTFILE "JF-Dot-K12.ttf"
_OTF_PSNAME "JF-Dot-K12-Regular"
ENDPROPERTIES
CHARS 11077
STARTCHAR 0020
ENCODING 32
SWIDTH 360 0
DWIDTH 6 0
BBX 6 12 0 -2
BITMAP
00
00
00
00
00
00
00
00
00
00
00
00
ENDCHAR
STARTCHAR 0021
ENCODING 33
SWIDTH 360 0
DWIDTH 6 0
BBX 6 12 0 -2
BITMAP
00
20
20
20
20
20
20
20
00
20
00
00
ENDCHAR
STARTCHAR 0022
ENCODING 34
SWIDTH 360 0
DWIDTH 6 0
BBX 6 12 0 -2
BITMAP
00
50
50
50
00
00
00
00
00
00
00
00
ENDCHAR
STARTCHAR 0023
ENCODING 35
SWIDTH 360 0
DWIDTH 6 0
BBX 6 12 0 -2
BITMAP
00
50
50
F8
50
50
50
F8
50
50
00
00
ENDCHAR
STARTCHAR 0024
ENCODING 36
SWIDTH 360 0
DWIDTH 6 0
BBX 6 12 0 -2
BITMAP
00
20
70
A8
A8
60
30
28
A8
70
20
00
ENDCHAR
STARTCHAR 0025
ENCODING 37
SWIDTH 360 0
DWIDTH 6 0
BBX 6 12 0 -2
BITMAP
00
48
A8
50
10
20
20
50
68
90
80
00
ENDCHAR
STARTCHAR 0026
ENCODING 38
SWIDTH 360 0
DWIDTH 6 0
BBX 6 12 0 -2
BITMAP
00
60
90
90
60
40
A8
90
90
68
00
00
ENDCHAR
STARTCHAR 0027
ENCODING 39
SWIDTH 360 0
DWIDTH 6 0
BBX 6 12 0 -2
BITMAP
00
30
10
20
00
00
00
00
00
00
00
00
ENDCHAR
STARTCHAR 0028
ENCODING 40
SWIDTH 360 0
DWIDTH 6 0
BBX 6 12 0 -2
BITMAP
00
08
10
10
20
20
20
20
10
10
08
00
ENDCHAR
STARTCHAR 0029
ENCODING 41
SWIDTH 360 0
DWIDTH 6 0
BBX 6 12 0 -2
BITMAP
00
80
40
40
20
20
20
20
40
40
80
00
ENDCHAR
STARTCHAR 002A
ENCODING 42
SWIDTH 360 0
DWIDTH 6 0
BBX 6 12 0 -2
BITMAP
00
00
00
20
A8
70
A8
20
00
00
00
00
ENDCHAR
STARTCHAR 002B
ENCODING 43
SWIDTH 360 0
DWIDTH 6 0
BBX 6 12 0 -2
BITMAP
00
00
00
20
20
F8
20
20
00
00
00
00
ENDCHAR
STARTCHAR 002C
ENCODING 44
SWIDTH 360 0
DWIDTH 6 0
BBX 6 12 0 -2
BITMAP
00
00
00
00
00
00
00
00
20
20
40
00
ENDCHAR
STARTCHAR 002D
ENCODING 45
SWIDTH 360 0
DWIDTH 6 0
BBX 6 12 0 -2
BITMAP
00
00
00
00
00
F8
00
00
00
00
00
00
ENDCHAR
STARTCHAR 002E
ENCODING 46
SWIDTH 360 0
DWIDTH 6 0
BBX 6 12 0 -2
BITMAP
00
00
00
00
00
00
00
00
20
00
00
00
ENDCHAR
STARTCHAR 002F
ENCODING 47
SWIDTH 360 0
DWIDTH 6 0
BBX 6 12 0 -2
BITMAP
00
08
08
10
10
20
20
40
40
80
80
00
ENDCHAR
STARTCHAR 0030
ENCODING 48
SWIDTH 360 0
DWIDTH 6 0
BBX 6 12 0 -2
BITMAP
00
30
48
48
48
48
48
48
48
30
00
00
ENDCHAR
STARTCHAR 0031
ENCODING 49
SWIDTH 360 0
DWIDTH 6 0
BBX 6 12 0 -2
BITMAP
00
20
E0
20
20
20
20
20
20
20
00
00
ENDCHAR
STARTCHAR 0032
ENCODING 50
SWIDTH 360 0
DWIDTH 6 0
BBX 6 12 0 -2
BITMAP
00
70
88
88
08
10
20
40
80
F8
00
00
ENDCHAR
STARTCHAR 0033
ENCODING 51
SWIDTH 360 0
DWIDTH 6 0
BBX 6 12 0 -2
BITMAP
00
70
88
08
30
08
08
88
88
70
00
00
ENDCHAR
STARTCHAR 0034
ENCODING 52
SWIDTH 360 0
DWIDTH 6 0
BBX 6 12 0 -2
BITMAP
00
10
30
30
50
50
90
F8
10
10
00
00
ENDCHAR
STARTCHAR 0035
ENCODING 53
SWIDTH 360 0
DWIDTH 6 0
BBX 6 12 0 -2
BITMAP
00
F0
80
80
F0
88
08
08
88
70
00
00
ENDCHAR
STARTCHAR 0036
ENCODING 54
SWIDTH 360 0
DWIDTH 6 0
BBX 6 12 0 -2
BITMAP
00
30
40
80
F0
88
88
88
88
70
00
00
ENDCHAR
STARTCHAR 0037
ENCODING 55
SWIDTH 360 0
DWIDTH 6 0
BBX 6 12 0 -2
BITMAP
00
F8
08
10
10
10
20
20
20
20
00
00
ENDCHAR
STARTCHAR 0038
ENCODING 56
SWIDTH 360 0
DWIDTH 6 0
BBX 6 12 0 -2
BITMAP
00
70
88
88
70
88
88
88
88
70
00
00
ENDCHAR
STARTCHAR 0039
ENCODING 57
SWIDTH 360 0
DWIDTH 6 0
BBX 6 12 0 -2
BITMAP
00
70
88
88
88
78
08
08
10
60
00
00
ENDCHAR
STARTCHAR 003A
ENCODING 58
SWIDTH 360 0
DWIDTH 6 0
BBX 6 12 0 -2
BITMAP
00
00
00
00
20
00
00
20
00
00
00
00
ENDCHAR
STARTCHAR 003B
ENCODING 59
SWIDTH 360 0
DWIDTH 6 0
BBX 6 12 0 -2
BITMAP
00
00
00
20
00
00
20
20
40
00
00
00
ENDCHAR
STARTCHAR 003C
ENCODING 60
SWIDTH 360 0
DWIDTH 6 0
BBX 6 12 0 -2
BITMAP
00
00
08
10
20
40
20
10
08
00
00
00
ENDCHAR
STARTCHAR 003D
ENCODING 61
SWIDTH 360 0
DWIDTH 6 0
BBX 6 12 0 -2
BITMAP
00
00
00
00
F8
00
F8
00
00
00
00
00
ENDCHAR
STARTCHAR 003E
ENCODING 62
SWIDTH 360 0
DWIDTH 6 0
BBX 6 12 0 -2
BITMAP
00
00
40
20
10
08
10
20
40
00
00
00
ENDCHAR
STARTCHAR 003F
ENCODING 63
SWIDTH 360 0
DWIDTH 6 0
BBX 6 12 0 -2
BITMAP
00
70
88
88
10
10
20
20
00
20
00
00
ENDCHAR
STARTCHAR 0040
ENCODING 64
SWIDTH 360 0
DWIDTH 6 0
BBX 6 12 0 -2
BITMAP
00
70
88
98
A8
A8
A8
90
88
70
00
00
ENDCHAR
STARTCHAR 0041
ENCODING 65
SWIDTH 360 0
DWIDTH 6 0
BBX 6 12 0 -2
BITMAP
00
20
20
50
50
50
F8
88
88
88
00
00
ENDCHAR
STARTCHAR 0042
ENCODING 66
SWIDTH 360 0
DWIDTH 6 0
BBX 6 12 0 -2
BITMAP
00
F0
88
88
90
F0
88
88
88
F0
00
00
ENDCHAR
STARTCHAR 0043
ENCODING 67
SWIDTH 360 0
DWIDTH 6 0
BBX 6 12 0 -2
BITMAP
00
30
48
88
80
80
80
88
48
30
00
00
ENDCHAR
STARTCHAR 0044
ENCODING 68
SWIDTH 360 0
DWIDTH 6 0
BBX 6 12 0 -2
BITMAP
00
E0
90
88
88
88
88
88
90
E0
00
00
ENDCHAR
STARTCHAR 0045
ENCODING 69
SWIDTH 360 0
DWIDTH 6 0
BBX 6 12 0 -2
BITMAP
00
F8
80
80
80
F0
80
80
80
F8
00
00
ENDCHAR
STARTCHAR 0046
ENCODING 70
SWIDTH 360 0
DWIDTH 6 0
BBX 6 12 0 -2
BITMAP
00
F8
80
80
80
F0
80
80
80
80
00
00
ENDCHAR
STARTCHAR 0047
ENCODING 71
SWIDTH 360 0
DWIDTH 6 0
BBX 6 12 0 -2
BITMAP
00
30
48
80
80
B8
88
88
48
38
00
00
ENDCHAR
STARTCHAR 0048
ENCODING 72
SWIDTH 360 0
DWIDTH 6 0
BBX 6 12 0 -2
BITMAP
00
88
88
88
88
F8
88
88
88
88
00
00
ENDCHAR
STARTCHAR 0049
ENCODING 73
SWIDTH 360 0
DWIDTH 6 0
BBX 6 12 0 -2
BITMAP
00
70
20
20
20
20
20
20
20
70
00
00
ENDCHAR
STARTCHAR 004A
ENCODING 74
SWIDTH 360 0
DWIDTH 6 0
BBX 6 12 0 -2
BITMAP
00
10
10
10
10
10
10
90
90
60
00
00
ENDCHAR
STARTCHAR 004B
ENCODING 75
SWIDTH 360 0
DWIDTH 6 0
BBX 6 12 0 -2
BITMAP
00
88
90
A0
C0
A0
A0
90
90
88
00
00
ENDCHAR
STARTCHAR 004C
ENCODING 76
SWIDTH 360 0
DWIDTH 6 0
BBX 6 12 0 -2
BITMAP
00
80
80
80
80
80
80
80
80
F8
00
00
ENDCHAR
STARTCHAR 004D
ENCODING 77
SWIDTH 360 0
DWIDTH 6 0
BBX 6 12 0 -2
BITMAP
00
88
88
D8
D8
D8
A8
A8
A8
88
00
00
ENDCHAR
STARTCHAR 004E
ENCODING 78
SWIDTH 360 0
DWIDTH 6 0
BBX 6 12 0 -2
BITMAP
00
88
C8
C8
A8
A8
98
98
88
88
00
00
ENDCHAR
STARTCHAR 004F
ENCODING 79
SWIDTH 360 0
DWIDTH 6 0
BBX 6 12 0 -2
BITMAP
00
70
88
88
88
88
88
88
88
70
00
00
ENDCHAR
STARTCHAR 0050
ENCODING 80
SWIDTH 360 0
DWIDTH 6 0
BBX 6 12 0 -2
BITMAP
00
F0
88
88
88
F0
80
80
80
80
00
00
ENDCHAR
STARTCHAR 0051
ENCODING 81
SWIDTH 360 0
DWIDTH 6 0
BBX 6 12 0 -2
BITMAP
00
70
88
88
88
88
88
A8
90
68
00
00
ENDCHAR
STARTCHAR 0052
ENCODING 82
SWIDTH 360 0
DWIDTH 6 0
BBX 6 12 0 -2
BITMAP
00
F0
88
88
88
F0
90
88
88
88
00
00
ENDCHAR
STARTCHAR 0053
ENCODING 83
SWIDTH 360 0
DWIDTH 6 0
BBX 6 12 0 -2
BITMAP
00
70
88
80
60
10
08
88
88
70
00
00
ENDCHAR
STARTCHAR 0054
ENCODING 84
SWIDTH 360 0
DWIDTH 6 0
BBX 6 12 0 -2
BITMAP
00
F8
20
20
20
20
20
20
20
20
00
00
ENDCHAR
STARTCHAR 0055
ENCODING 85
SWIDTH 360 0
DWIDTH 6 0
BBX 6 12 0 -2
BITMAP
00
88
88
88
88
88
88
88
88
70
00
00
ENDCHAR
STARTCHAR 0056
ENCODING 86
SWIDTH 360 0
DWIDTH 6 0
BBX 6 12 0 -2
BITMAP
00
88
88
88
88
50
50
50
20
20
00
00
ENDCHAR
STARTCHAR 0057
ENCODING 87
SWIDTH 360 0
DWIDTH 6 0
BBX 6 12 0 -2
BITMAP
00
A8
A8
A8
A8
A8
A8
50
50
50
00
00
ENDCHAR
STARTCHAR 0058
ENCODING 88
SWIDTH 360 0
DWIDTH 6 0
BBX 6 12 0 -2
BITMAP
00
88
88
50
50
20
50
50
88
88
00
00
ENDCHAR
STARTCHAR 0059
ENCODING 89
SWIDTH 360 0
DWIDTH 6 0
BBX 6 12 0 -2
BITMAP
00
88
88
50
50
20
20
20
20
20
00
00
ENDCHAR
STARTCHAR 005A
ENCODING 90
SWIDTH 360 0
DWIDTH 6 0
BBX 6 12 0 -2
BITMAP
00
F8
08
10
10
20
40
40
80
F8
00
00
ENDCHAR
STARTCHAR 005B
ENCODING 91
SWIDTH 360 0
DWIDTH 6 0
BBX 6 12 0 -2
BITMAP
00
38
20
20
20
20
20
20
20
20
20
38
ENDCHAR
STARTCHAR 005C
ENCODING 92
SWIDTH 360 0
DWIDTH 6 0
BBX 6 12 0 -2
BITMAP
00
88
88
50
F8
20
F8
20
20
20
00
00
ENDCHAR
STARTCHAR 005D
ENCODING 93
SWIDTH 360 0
DWIDTH 6 0
BBX 6 12 0 -2
BITMAP
00
70
10
10
10
10
10
10
10
10
10
70
ENDCHAR
STARTCHAR 005E
ENCODING 94
SWIDTH 360 0
DWIDTH 6 0
BBX 6 12 0 -2
BITMAP
00
20
50
88
00
00
00
00
00
00
00
00
ENDCHAR
STARTCHAR 005F
ENCODING 95
SWIDTH 360 0
DWIDTH 6 0
BBX 6 12 0 -2
BITMAP
00
00
00
00
00
00
00
00
00
F8
00
00
ENDCHAR
STARTCHAR 0060
ENCODING 96
SWIDTH 360 0
DWIDTH 6 0
BBX 6 12 0 -2
BITMAP
00
30
20
10
00
00
00
00
00
00
00
00
ENDCHAR
STARTCHAR 0061
ENCODING 97
SWIDTH 360 0
DWIDTH 6 0
BBX 6 12 0 -2
BITMAP
00
00
00
70
88
18
68
88
98
68
00
00
ENDCHAR
STARTCHAR 0062
ENCODING 98
SWIDTH 360 0
DWIDTH 6 0
BBX 6 12 0 -2
BITMAP
00
80
80
B0
C8
88
88
88
C8
B0
00
00
ENDCHAR
STARTCHAR 0063
ENCODING 99
SWIDTH 360 0
DWIDTH 6 0
BBX 6 12 0 -2
BITMAP
00
00
00
70
88
80
80
80
88
70
00
00
ENDCHAR
STARTCHAR 0064
ENCODING 100
SWIDTH 360 0
DWIDTH 6 0
BBX 6 12 0 -2
BITMAP
00
08
08
68
98
88
88
88
98
68
00
00
ENDCHAR
STARTCHAR 0065
ENCODING 101
SWIDTH 360 0
DWIDTH 6 0
BBX 6 12 0 -2
BITMAP
00
00
00
70
88
88
F8
80
88
70
00
00
ENDCHAR
STARTCHAR 0066
ENCODING 102
SWIDTH 360 0
DWIDTH 6 0
BBX 6 12 0 -2
BITMAP
00
18
20
70
20
20
20
20
20
20
00
00
ENDCHAR
STARTCHAR 0067
ENCODING 103
SWIDTH 360 0
DWIDTH 6 0
BBX 6 12 0 -2
BITMAP
00
00
00
78
88
88
88
98
68
08
88
70
ENDCHAR
STARTCHAR 0068
ENCODING 104
SWIDTH 360 0
DWIDTH 6 0
BBX 6 12 0 -2
BITMAP
00
80
80
B0
C8
88
88
88
88
88
00
00
ENDCHAR
STARTCHAR 0069
ENCODING 105
SWIDTH 360 0
DWIDTH 6 0
BBX 6 12 0 -2
BITMAP
00
20
00
20
20
20
20
20
20
20
00
00
ENDCHAR
STARTCHAR 006A
ENCODING 106
SWIDTH 360 0
DWIDTH 6 0
BBX 6 12 0 -2
BITMAP
00
20
00
20
20
20
20
20
20
20
20
40
ENDCHAR
STARTCHAR 006B
ENCODING 107
SWIDTH 360 0
DWIDTH 6 0
BBX 6 12 0 -2
BITMAP
00
80
80
80
90
A0
C0
A0
90
88
00
00
ENDCHAR
STARTCHAR 006C
ENCODING 108
SWIDTH 360 0
DWIDTH 6 0
BBX 6 12 0 -2
BITMAP
00
20
20
20
20
20
20
20
20
20
00
00
ENDCHAR
STARTCHAR 006D
ENCODING 109
SWIDTH 360 0
DWIDTH 6 0
BBX 6 12 0 -2
BITMAP
00
00
00
F0
A8
A8
A8
A8
A8
A8
00
00
ENDCHAR
STARTCHAR 006E
ENCODING 110
SWIDTH 360 0
DWIDTH 6 0
BBX 6 12 0 -2
BITMAP
00
00
00
B0
C8
88
88
88
88
88
00
00
ENDCHAR
STARTCHAR 006F
ENCODING 111
SWIDTH 360 0
DWIDTH 6 0
BBX 6 12 0 -2
BITMAP
00
00
00
70
88
88
88
88
88
70
00
00
ENDCHAR
STARTCHAR 0070
ENCODING 112
SWIDTH 360 0
DWIDTH 6 0
BBX 6 12 0 -2
BITMAP
00
00
00
B0
C8
88
88
88
C8
B0
80
80
ENDCHAR
STARTCHAR 0071
ENCODING 113
SWIDTH 360 0
DWIDTH 6 0
BBX 6 12 0 -2
BITMAP
00
00
00
68
98
88
88
88
98
68
08
08
ENDCHAR
STARTCHAR 0072
ENCODING 114
SWIDTH 360 0
DWIDTH 6 0
BBX 6 12 0 -2
BITMAP
00
00
00
58
60
40
40
40
40
40
00
00
ENDCHAR
STARTCHAR 0073
ENCODING 115
SWIDTH 360 0
DWIDTH 6 0
BBX 6 12 0 -2
BITMAP
00
00
00
70
88
40
30
08
88
70
00
00
ENDCHAR
STARTCHAR 0074
ENCODING 116
SWIDTH 360 0
DWIDTH 6 0
BBX 6 12 0 -2
BITMAP
00
40
40
F0
40
40
40
40
40
60
00
00
ENDCHAR
STARTCHAR 0075
ENCODING 117
SWIDTH 360 0
DWIDTH 6 0
BBX 6 12 0 -2
BITMAP
00
00
00
88
88
88
88
88
98
68
00
00
ENDCHAR
STARTCHAR 0076
ENCODING 118
SWIDTH 360 0
DWIDTH 6 0
BBX 6 12 0 -2
BITMAP
00
00
00
88
88
88
50
50
20
20
00
00
ENDCHAR
STARTCHAR 0077
ENCODING 119
SWIDTH 360 0
DWIDTH 6 0
BBX 6 12 0 -2
BITMAP
00
00
00
88
A8
A8
A8
A8
A8
50
00
00
ENDCHAR
STARTCHAR 0078
ENCODING 120
SWIDTH 360 0
DWIDTH 6 0
BBX 6 12 0 -2
BITMAP
00
00
00
88
50
50
20
50
50
88
00
00
ENDCHAR
STARTCHAR 0079
ENCODING 121
SWIDTH 360 0
DWIDTH 6 0
BBX 6 12 0 -2
BITMAP
00
00
00
88
88
48
50
50
20
20
40
80
ENDCHAR
STARTCHAR 007A
ENCODING 122
SWIDTH 360 0
DWIDTH 6 0
BBX 6 12 0 -2
BITMAP
00
00
00
F8
10
10
20
40
40
F8
00
00
ENDCHAR
STARTCHAR 007B
ENCODING 123
SWIDTH 360 0
DWIDTH 6 0
BBX 6 12 0 -2
BITMAP
00
08
10
10
10
10
20
10
10
10
10
08
ENDCHAR
STARTCHAR 007C
ENCODING 124
SWIDTH 360 0
DWIDTH 6 0
BBX 6 12 0 -2
BITMAP
00
20
20
20
20
20
20
20
20
20
20
20
ENDCHAR
STARTCHAR 007D
ENCODING 125
SWIDTH 360 0
DWIDTH 6 0
BBX 6 12 0 -2
BITMAP
00
40
20
20
20
20
10
20
20
20
20
40
ENDCHAR
STARTCHAR 007E
ENCODING 126
SWIDTH 360 0
DWIDTH 6 0
BBX 6 12 0 -2
BITMAP
FC
00
00
00
00
00
00
00
00
00
00
00
ENDCHAR
STARTCHAR 00A0
ENCODING 160
SWIDTH 720 0
DWIDTH 12 0
BBX 11 1 0 -2
BITMAP
AAA0
ENDCHAR
STARTCHAR 00A1
ENCODING 161
SWIDTH 720 0
DWIDTH 12 0
BBX 2 11 6 -2
BITMAP
C0
C0
00
80
80
80
C0
C0
C0
C0
C0
ENDCHAR
STARTCHAR 00A2
ENCODING 162
SWIDTH 360 0
DWIDTH 6 0
BBX 5 9 0 -1
BITMAP
10
70
98
A0
A0
A0
C8
70
40
ENDCHAR
STARTCHAR 00A3
ENCODING 163
SWIDTH 360 0
DWIDTH 6 0
BBX 5 10 0 -1
BITMAP
10
28
20
78
20
20
20
68
A8
50
ENDCHAR
STARTCHAR 00A4
ENCODING 164
SWIDTH 720 0
DWIDTH 12 0
BBX 9 9 2 -1
BITMAP
8080
5D00
2200
4100
4100
4100
2200
5D00
8080
ENDCHAR
STARTCHAR 00A5
ENCODING 165
SWIDTH 360 0
DWIDTH 6 0
BBX 5 10 0 -1
BITMAP
80
80
40
40
20
20
10
10
08
08
ENDCHAR
STARTCHAR 00A6
ENCODING 166
SWIDTH 720 0
DWIDTH 12 0
BBX 1 9 6 -1
BITMAP
80
80
80
80
00
80
80
80
80
ENDCHAR
STARTCHAR 00A7
ENCODING 167
SWIDTH 720 0
DWIDTH 12 0
BBX 7 11 3 -2
BITMAP
38
4C
C4
70
CC
C6
66
1C
46
64
38
ENDCHAR
STARTCHAR 00A8
ENCODING 168
SWIDTH 720 0
DWIDTH 12 0
BBX 5 2 4 7
BITMAP
D8
D8
ENDCHAR
STARTCHAR 00A9
ENCODING 169
SWIDTH 720 0
DWIDTH 12 0
BBX 11 11 1 -2
BITMAP
1F00
2080
4EC0
91A0
B0A0
B020
B0A0
9120
4E40
2080
1F00
ENDCHAR
STARTCHAR 00AA
ENCODING 170
SWIDTH 720 0
DWIDTH 12 0
BBX 5 5 4 4
BITMAP
70
98
78
98
78
ENDCHAR
STARTCHAR 00AB
ENCODING 171
SWIDTH 720 0
DWIDTH 12 0
BBX 6 5 5 0
BITMAP
24
48
D8
48
24
ENDCHAR
STARTCHAR 00AC
ENCODING 172
SWIDTH 360 0
DWIDTH 6 0
BBX 5 3 0 2
BITMAP
F8
08
08
ENDCHAR
STARTCHAR 00AD
ENCODING 173
SWIDTH 720 0
DWIDTH 12 0
BBX 11 6 0 -2
BITMAP
3E00
0000
0000
0000
0000
AAA0
ENDCHAR
STARTCHAR 00AE
ENCODING 174
SWIDTH 720 0
DWIDTH 12 0
BBX 11 11 1 -2
BITMAP
1F00
2080
7E40
9920
9920
9E20
9920
9920
7CC0
2080
1F00
ENDCHAR
STARTCHAR 00AF
ENCODING 175
SWIDTH 720 0
DWIDTH 12 0
BBX 5 1 4 7
BITMAP
F8
ENDCHAR
STARTCHAR 00B0
ENCODING 176
SWIDTH 720 0
DWIDTH 12 0
BBX 4 4 1 5
BITMAP
60
90
90
60
ENDCHAR
STARTCHAR 00B1
ENCODING 177
SWIDTH 720 0
DWIDTH 12 0
BBX 9 9 2 -1
BITMAP
0800
0800
0800
FF80
0800
0800
0800
0000
FF80
ENDCHAR
STARTCHAR 00B2
ENCODING 178
SWIDTH 720 0
DWIDTH 12 0
BBX 5 5 4 4
BITMAP
70
98
70
C0
F8
ENDCHAR
STARTCHAR 00B3
ENCODING 179
SWIDTH 720 0
DWIDTH 12 0
BBX 5 5 4 4
BITMAP
F0
18
F0
18
F0
ENDCHAR
STARTCHAR 00B4
ENCODING 180
SWIDTH 720 0
DWIDTH 12 0
BBX 3 3 5 6
BITMAP
60
40
80
ENDCHAR
STARTCHAR 00B5
ENCODING 181
SWIDTH 360 0
DWIDTH 6 0
BBX 6 8 0 -2
BITMAP
48
48
48
48
74
40
40
80
ENDCHAR
STARTCHAR 00B6
ENCODING 182
SWIDTH 720 0
DWIDTH 12 0
BBX 12 12 0 -2
BITMAP
0000
0780
0E80
1E80
1E80
1E80
0E80
0280
0280
0280
0280
0280
ENDCHAR
STARTCHAR 00B7
ENCODING 183
SWIDTH 720 0
DWIDTH 12 0
BBX 12 12 0 -2
BITMAP
0000
0000
0000
0000
0200
0700
0200
0000
0000
0000
0000
0000
ENDCHAR
STARTCHAR 00B8
ENCODING 184
SWIDTH 720 0
DWIDTH 12 0
BBX 12 12 0 -2
BITMAP
0000
0000
0000
0000
0000
0000
0000
0000
0200
0300
0080
0300
ENDCHAR
STARTCHAR 00B9
ENCODING 185
SWIDTH 720 0
DWIDTH 12 0
BBX 12 12 0 -2
BITMAP
0000
0200
1E00
0600
0600
1F80
0000
0000
0000
0000
0000
0000
ENDCHAR
STARTCHAR 00BA
ENCODING 186
SWIDTH 720 0
DWIDTH 12 0
BBX 12 12 0 -2
BITMAP
0000
0600
1980
1980
1980
0600
0000
0000
0000
0000
0000
0000
ENDCHAR
STARTCHAR 00BB
ENCODING 187
SWIDTH 720 0
DWIDTH 12 0
BBX 12 12 0 -2
BITMAP
0000
0000
0000
0000
0000
0480
0240
0360
0240
0480
0000
0000
ENDCHAR
STARTCHAR 00BC
ENCODING 188
SWIDTH 720 0
DWIDTH 12 0
BBX 12 12 0 -2
BITMAP
0000
0800
3800
0840
0880
0900
0200
0440
08C0
1140
23E0
0040
ENDCHAR
STARTCHAR 00BD
ENCODING 189
SWIDTH 720 0
DWIDTH 12 0
BBX 12 12 0 -2
BITMAP
0000
0800
3800
0840
0880
0900
0200
05C0
0820
10C0
2100
01E0
ENDCHAR
STARTCHAR 00BE
ENCODING 190
SWIDTH 720 0
DWIDTH 12 0
BBX 12 12 0 -2
BITMAP
0000
3800
0400
3840
0480
3900
0200
0440
08C0
1140
23E0
0040
ENDCHAR
STARTCHAR 00BF
ENCODING 191
SWIDTH 720 0
DWIDTH 12 0
BBX 12 12 0 -2
BITMAP
0000
0600
0600
0000
0200
0200
0600
0800
18C0
18C0
0880
0700
ENDCHAR
STARTCHAR 00C0
ENCODING 192
SWIDTH 720 0
DWIDTH 12 0
BBX 12 12 0 -2
BITMAP
0000
0400
0200
0100
0700
0580
0980
1F80
10C0
30C0
78E0
0000
ENDCHAR
STARTCHAR 00C1
ENCODING 193
SWIDTH 720 0
DWIDTH 12 0
BBX 12 12 0 -2
BITMAP
0000
0100
0200
0400
0700
0580
0980
1F80
10C0
30C0
78E0
0000
ENDCHAR
STARTCHAR 00C2
ENCODING 194
SWIDTH 720 0
DWIDTH 12 0
BBX 12 12 0 -2
BITMAP
0000
0200
0500
0880
0700
0580
0980
1F80
10C0
30C0
78E0
0000
ENDCHAR
STARTCHAR 00C3
ENCODING 195
SWIDTH 720 0
DWIDTH 12 0
BBX 12 12 0 -2
BITMAP
0000
0C80
1300
0000
0700
0580
0980
1F80
10C0
30C0
78E0
0000
ENDCHAR
STARTCHAR 00C4
ENCODING 196
SWIDTH 720 0
DWIDTH 12 0
BBX 12 12 0 -2
BITMAP
0000
0D80
0D80
0000
0700
0580
0980
1F80
10C0
30C0
78E0
0000
ENDCHAR
STARTCHAR 00C5
ENCODING 197
SWIDTH 720 0
DWIDTH 12 0
BBX 12 12 0 -2
BITMAP
0000
0600
0900
0900
0700
0580
0980
1F80
10C0
30C0
78E0
0000
ENDCHAR
STARTCHAR 00C6
ENCODING 198
SWIDTH 720 0
DWIDTH 12 0
BBX 12 12 0 -2
BITMAP
0000
07E0
0620
0E10
0E40
17C0
1640
3E00
2610
4620
67E0
0000
ENDCHAR
STARTCHAR 00C7
ENCODING 199
SWIDTH 720 0
DWIDTH 12 0
BBX 12 12 0 -2
BITMAP
0000
0740
08C0
1840
3040
3000
3000
1840
08C0
0700
0200
0C00
ENDCHAR
STARTCHAR 00C8
ENCODING 200
SWIDTH 720 0
DWIDTH 12 0
BBX 12 12 0 -2
BITMAP
0000
0400
0200
3FC0
1820
1900
1F00
1900
1820
1840
3FC0
0000
ENDCHAR
STARTCHAR 00C9
ENCODING 201
SWIDTH 720 0
DWIDTH 12 0
BBX 12 12 0 -2
BITMAP
0000
0200
0400
3FC0
1820
1900
1F00
1900
1820
1840
3FC0
0000
ENDCHAR
STARTCHAR 00CA
ENCODING 202
SWIDTH 720 0
DWIDTH 12 0
BBX 12 12 0 -2
BITMAP
0000
0600
0900
3FC0
1820
1900
1F00
1900
1820
1840
3FC0
0000
ENDCHAR
STARTCHAR 00CB
ENCODING 203
SWIDTH 720 0
DWIDTH 12 0
BBX 12 12 0 -2
BITMAP
0000
0D80
0D80
3FC0
1820
1900
1F00
1900
1820
1840
3FC0
0000
ENDCHAR
STARTCHAR 00CC
ENCODING 204
SWIDTH 720 0
DWIDTH 12 0
BBX 12 12 0 -2
BITMAP
0000
0400
0200
0F00
0600
0600
0600
0600
0600
0600
0F00
0000
ENDCHAR
STARTCHAR 00CD
ENCODING 205
SWIDTH 720 0
DWIDTH 12 0
BBX 12 12 0 -2
BITMAP
0000
0200
0400
0F00
0600
0600
0600
0600
0600
0600
0F00
0000
ENDCHAR
STARTCHAR 00CE
ENCODING 206
SWIDTH 720 0
DWIDTH 12 0
BBX 12 12 0 -2
BITMAP
0000
0200
0500
0880
0F00
0600
0600
0600
0600
0600
0F00
0000
ENDCHAR
STARTCHAR 00CF
ENCODING 207
SWIDTH 720 0
DWIDTH 12 0
BBX 12 12 0 -2
BITMAP
0000
0D80
0D80
0000
0F00
0600
0600
0600
0600
0600
0F00
0000
ENDCHAR
STARTCHAR 00D0
ENCODING 208
SWIDTH 720 0
DWIDTH 12 0
BBX 12 12 0 -2
BITMAP
0000
3F00
1880
1840
1860
1860
3C60
1860
1840
1880
3F00
0000
ENDCHAR
STARTCHAR 00D1
ENCODING 209
SWIDTH 720 0
DWIDTH 12 0
BBX 12 12 0 -2
BITMAP
0000
0640
0980
3860
1C40
1640
1740
1340
11C0
10C0
3840
0000
ENDCHAR
STARTCHAR 00D2
ENCODING 210
SWIDTH 720 0
DWIDTH 12 0
BBX 12 12 0 -2
BITMAP
0000
0400
0200
0700
18C0
3060
3060
3060
3060
18C0
0700
0000
ENDCHAR
STARTCHAR 00D3
ENCODING 211
SWIDTH 720 0
DWIDTH 12 0
BBX 12 12 0 -2
BITMAP
0000
0100
0200
0700
18C0
3060
3060
3060
3060
18C0
0700
0000
ENDCHAR
STARTCHAR 00D4
ENCODING 212
SWIDTH 720 0
DWIDTH 12 0
BBX 12 12 0 -2
BITMAP
0000
0200
0500
0880
0700
18C0
3060
3060
3060
18C0
0700
0000
ENDCHAR
STARTCHAR 00D5
ENCODING 213
SWIDTH 720 0
DWIDTH 12 0
BBX 12 12 0 -2
BITMAP
0000
0C80
1300
0700
18C0
3060
3060
3060
3060
18C0
0700
0000
ENDCHAR
STARTCHAR 00D6
ENCODING 214
SWIDTH 720 0
DWIDTH 12 0
BBX 12 12 0 -2
BITMAP
0000
0D80
0D80
0700
18C0
3060
3060
3060
3060
18C0
0700
0000
ENDCHAR
STARTCHAR 00D7
ENCODING 215
SWIDTH 720 0
DWIDTH 12 0
BBX 12 12 0 -2
BITMAP
0000
0000
0000
1040
0880
0500
0200
0500
0880
1040
0000
0000
ENDCHAR
STARTCHAR 00D8
ENCODING 216
SWIDTH 720 0
DWIDTH 12 0
BBX 12 12 0 -2
BITMAP
0000
0720
08C0
18C0
3160
3260
3260
3460
18C0
1880
2700
0000
ENDCHAR
STARTCHAR 00D9
ENCODING 217
SWIDTH 720 0
DWIDTH 12 0
BBX 12 12 0 -2
BITMAP
0000
0400
0200
39E0
1840
1840
1840
1840
1840
0CC0
0700
0000
ENDCHAR
STARTCHAR 00DA
ENCODING 218
SWIDTH 720 0
DWIDTH 12 0
BBX 12 12 0 -2
BITMAP
0000
0100
0200
3CE0
1840
1840
1840
1840
1840
0CC0
0700
0000
ENDCHAR
STARTCHAR 00DB
ENCODING 219
SWIDTH 720 0
DWIDTH 12 0
BBX 12 12 0 -2
BITMAP
0000
0200
0500
38E0
1840
1840
1840
1840
1840
0CC0
0700
0000
ENDCHAR
STARTCHAR 00DC
ENCODING 220
SWIDTH 720 0
DWIDTH 12 0
BBX 12 12 0 -2
BITMAP
0000
0D80
0D80
38E0
1840
1840
1840
1840
1840
0CC0
0700
0000
ENDCHAR
STARTCHAR 00DD
ENCODING 221
SWIDTH 720 0
DWIDTH 12 0
BBX 12 12 0 -2
BITMAP
0000
0100
0200
3CE0
1840
0C80
0F00
0600
0600
0600
0F00
0000
ENDCHAR
STARTCHAR 00DE
ENCODING 222
SWIDTH 720 0
DWIDTH 12 0
BBX 12 12 0 -2
BITMAP
0000
3C00
1800
1F80
18C0
1860
18C0
1F80
1800
1800
3C00
0000
ENDCHAR
STARTCHAR 00DF
ENCODING 223
SWIDTH 720 0
DWIDTH 12 0
BBX 12 12 0 -2
BITMAP
0000
0700
0880
18C0
1880
1B00
18C0
18C0
18C0
1A80
3900
0000
ENDCHAR
STARTCHAR 00E0
ENCODING 224
SWIDTH 720 0
DWIDTH 12 0
BBX 12 12 0 -2
BITMAP
0000
0000
0400
0200
0100
0F00
0180
0F80
1980
1980
0EC0
0000
ENDCHAR
STARTCHAR 00E1
ENCODING 225
SWIDTH 720 0
DWIDTH 12 0
BBX 12 12 0 -2
BITMAP
0000
0000
0100
0200
0400
0F00
0180
0F80
1980
1980
0EC0
0000
ENDCHAR
STARTCHAR 00E2
ENCODING 226
SWIDTH 720 0
DWIDTH 12 0
BBX 12 12 0 -2
BITMAP
0000
0000
0200
0500
0880
0F00
0180
0F80
1980
1980
0EC0
0000
ENDCHAR
STARTCHAR 00E3
ENCODING 227
SWIDTH 720 0
DWIDTH 12 0
BBX 12 12 0 -2
BITMAP
0000
0000
0C80
1300
0000
0F00
0180
0F80
1980
1980
0EC0
0000
ENDCHAR
STARTCHAR 00E4
ENCODING 228
SWIDTH 720 0
DWIDTH 12 0
BBX 12 12 0 -2
BITMAP
0000
0000
0D80
0D80
0000
0F00
0180
0F80
1980
1980
0EC0
0000
ENDCHAR
STARTCHAR 00E5
ENCODING 229
SWIDTH 720 0
DWIDTH 12 0
BBX 12 12 0 -2
BITMAP
0000
0000
0600
0900
0600
0F00
0180
0F80
1980
1980
0EC0
0000
ENDCHAR
STARTCHAR 00E6
ENCODING 230
SWIDTH 720 0
DWIDTH 12 0
BBX 12 12 0 -2
BITMAP
0000
0000
0000
0000
0000
3DC0
0720
3FF0
6700
6710
3DE0
0000
ENDCHAR
STARTCHAR 00E7
ENCODING 231
SWIDTH 720 0
DWIDTH 12 0
BBX 12 12 0 -2
BITMAP
0000
0000
0000
0000
0000
0F80
1880
1800
1880
0F00
0200
0C00
ENDCHAR
STARTCHAR 00E8
ENCODING 232
SWIDTH 720 0
DWIDTH 12 0
BBX 12 12 0 -2
BITMAP
0000
0000
0400
0200
0100
0F80
18C0
1FC0
1800
1840
0F80
0000
ENDCHAR
STARTCHAR 00E9
ENCODING 233
SWIDTH 720 0
DWIDTH 12 0
BBX 12 12 0 -2
BITMAP
0000
0000
0100
0200
0400
0F80
18C0
1FC0
1800
1840
0F80
0000
ENDCHAR
STARTCHAR 00EA
ENCODING 234
SWIDTH 720 0
DWIDTH 12 0
BBX 12 12 0 -2
BITMAP
0000
0000
0200
0500
0880
0F80
18C0
1FC0
1800
1840
0F80
0000
ENDCHAR
STARTCHAR 00EB
ENCODING 235
SWIDTH 720 0
DWIDTH 12 0
BBX 12 12 0 -2
BITMAP
0000
0000
0D80
0D80
0000
0F80
18C0
1FC0
1800
1840
0F80
0000
ENDCHAR
STARTCHAR 00EC
ENCODING 236
SWIDTH 720 0
DWIDTH 12 0
BBX 12 12 0 -2
BITMAP
0000
0000
0800
0400
0200
0E00
0600
0600
0600
0600
0F00
0000
ENDCHAR
STARTCHAR 00ED
ENCODING 237
SWIDTH 720 0
DWIDTH 12 0
BBX 12 12 0 -2
BITMAP
0000
0000
0200
0400
0800
0E00
0600
0600
0600
0600
0F00
0000
ENDCHAR
STARTCHAR 00EE
ENCODING 238
SWIDTH 720 0
DWIDTH 12 0
BBX 12 12 0 -2
BITMAP
0000
0000
0400
0A00
1100
0E00
0600
0600
0600
0600
0F00
0000
ENDCHAR
STARTCHAR 00EF
ENCODING 239
SWIDTH 720 0
DWIDTH 12 0
BBX 12 12 0 -2
BITMAP
0000
0000
1B00
1B00
0000
0E00
0600
0600
0600
0600
0F00
0000
ENDCHAR
STARTCHAR 00F0
ENCODING 240
SWIDTH 720 0
DWIDTH 12 0
BBX 12 12 0 -2
BITMAP
0000
0CC0
0300
0C80
0080
06C0
09C0
18C0
18C0
18C0
0980
0600
ENDCHAR
STARTCHAR 00F1
ENCODING 241
SWIDTH 720 0
DWIDTH 12 0
BBX 12 12 0 -2
BITMAP
0000
0000
0C80
1300
0000
1B80
0CC0
0CC0
0CC0
0CC0
1CE0
0000
ENDCHAR
STARTCHAR 00F2
ENCODING 242
SWIDTH 720 0
DWIDTH 12 0
BBX 12 12 0 -2
BITMAP
0000
0000
0400
0200
0100
0F80
18C0
18C0
18C0
18C0
0F80
0000
ENDCHAR
STARTCHAR 00F3
ENCODING 243
SWIDTH 720 0
DWIDTH 12 0
BBX 12 12 0 -2
BITMAP
0000
0000
0100
0200
0400
0F80
18C0
18C0
18C0
18C0
0F80
0000
ENDCHAR
STARTCHAR 00F4
ENCODING 244
SWIDTH 720 0
DWIDTH 12 0
BBX 12 12 0 -2
BITMAP
0000
0000
0200
0500
0880
0F80
18C0
18C0
18C0
18C0
0F80
0000
ENDCHAR
STARTCHAR 00F5
ENCODING 245
SWIDTH 720 0
DWIDTH 12 0
BBX 12 12 0 -2
BITMAP
0000
0000
0C80
1300
0000
0F80
18C0
18C0
18C0
18C0
0F80
0000
ENDCHAR
STARTCHAR 00F6
ENCODING 246
SWIDTH 720 0
DWIDTH 12 0
BBX 12 12 0 -2
BITMAP
0000
0000
0D80
0D80
0000
0F80
18C0
18C0
18C0
18C0
0F80
0000
ENDCHAR
STARTCHAR 00F7
ENCODING 247
SWIDTH 720 0
DWIDTH 12 0
BBX 12 12 0 -2
BITMAP
0000
0000
0000
0200
0200
0000
3FE0
0000
0200
0200
0000
0000
ENDCHAR
STARTCHAR 00F8
ENCODING 248
SWIDTH 720 0
DWIDTH 12 0
BBX 12 12 0 -2
BITMAP
0000
0000
0000
0000
0040
0F80
19C0
1AC0
1AC0
1CC0
0F80
1000
ENDCHAR
STARTCHAR 00F9
ENCODING 249
SWIDTH 720 0
DWIDTH 12 0
BBX 12 12 0 -2
BITMAP
0000
0000
0400
0200
0100
1DC0
0CC0
0CC0
0CC0
0CC0
0760
0000
ENDCHAR
STARTCHAR 00FA
ENCODING 250
SWIDTH 720 0
DWIDTH 12 0
BBX 12 12 0 -2
BITMAP
0000
0000
0100
0200
0400
1DC0
0CC0
0CC0
0CC0
0CC0
0760
0000
ENDCHAR
STARTCHAR 00FB
ENCODING 251
SWIDTH 720 0
DWIDTH 12 0
BBX 12 12 0 -2
BITMAP
0000
0000
0200
0500
0880
1DC0
0CC0
0CC0
0CC0
0CC0
0760
0000
ENDCHAR
STARTCHAR 00FC
ENCODING 252
SWIDTH 720 0
DWIDTH 12 0
BBX 12 12 0 -2
BITMAP
0000
0000
0D80
0D80
0000
1DC0
0CC0
0CC0
0CC0
0CC0
0760
0000
ENDCHAR
STARTCHAR 00FD
ENCODING 253
SWIDTH 720 0
DWIDTH 12 0
BBX 12 12 0 -2
BITMAP
0000
0000
0080
0100
0200
1CE0
0C40
0680
0780
0300
1A00
1C00
ENDCHAR
STARTCHAR 00FE
ENCODING 254
SWIDTH 720 0
DWIDTH 12 0
BBX 12 12 0 -2
BITMAP
0000
1C00
0C00
0C00
0C00
0F80
0CC0
0CC0
0CC0
0F80
0C00
1E00
ENDCHAR
STARTCHAR 00FF
ENCODING 255
SWIDTH 720 0
DWIDTH 12 0
BBX 12 12 0 -2
BITMAP
0000
0000
0D80
0D80
0000
1CE0
0C40
0680
0780
0300
1A00
1C00
ENDCHAR
STARTCHAR 0100
ENCODING 256
SWIDTH 720 0
DWIDTH 12 0
BBX 12 12 0 -2
BITMAP
0000
0F80
0000
0300
0700
0580
0980
1F80
10C0
30C0
78E0
0000
ENDCHAR
STARTCHAR 0101
ENCODING 257
SWIDTH 720 0
DWIDTH 12 0
BBX 12 12 0 -2
BITMAP
0000
0000
0000
0F00
0000
0F00
0180
0F80
1980
1980
0EC0
0000
ENDCHAR
STARTCHAR 0102
ENCODING 258
SWIDTH 720 0
DWIDTH 12 0
BBX 12 12 0 -2
BITMAP
0000
0900
0600
0000
0700
0580
0980
1F80
10C0
30C0
78E0
0000
ENDCHAR
STARTCHAR 0103
ENCODING 259
SWIDTH 720 0
DWIDTH 12 0
BBX 12 12 0 -2
BITMAP
0000
0000
0900
0600
0000
0F00
0180
0F80
1980
1980
0EC0
0000
ENDCHAR
STARTCHAR 0104
ENCODING 260
SWIDTH 720 0
DWIDTH 12 0
BBX 12 12 0 -2
BITMAP
0000
0200
0200
0700
0700
0980
0F80
1980
10C0
78E0
0040
0030
ENDCHAR
STARTCHAR 0105
ENCODING 261
SWIDTH 720 0
DWIDTH 12 0
BBX 12 12 0 -2
BITMAP
0000
0000
0000
0000
0000
0F00
0180
0F80
1980
1980
0E80
0060
ENDCHAR
STARTCHAR 0106
ENCODING 262
SWIDTH 720 0
DWIDTH 12 0
BBX 12 12 0 -2
BITMAP
0000
0200
0400
0740
08C0
1840
3000
3000
1840
08C0
0700
0000
ENDCHAR
STARTCHAR 0107
ENCODING 263
SWIDTH 720 0
DWIDTH 12 0
BBX 12 12 0 -2
BITMAP
0000
0000
0100
0200
0400
0F80
1880
1800
1800
1880
0F00
0000
ENDCHAR
STARTCHAR 0108
ENCODING 264
SWIDTH 720 0
DWIDTH 12 0
BBX 12 12 0 -2
BITMAP
0000
0200
0500
0880
0F40
18C0
3040
3000
1840
08C0
0700
0000
ENDCHAR
STARTCHAR 0109
ENCODING 265
SWIDTH 720 0
DWIDTH 12 0
BBX 12 12 0 -2
BITMAP
0000
0000
0200
0500
0880
0F80
1880
1800
1800
1880
0F00
0000
ENDCHAR
STARTCHAR 010C
ENCODING 268
SWIDTH 720 0
DWIDTH 12 0
BBX 12 12 0 -2
BITMAP
0000
0880
0500
0740
08C0
1840
3000
3000
1840
08C0
0700
0000
ENDCHAR
STARTCHAR 010D
ENCODING 269
SWIDTH 720 0
DWIDTH 12 0
BBX 12 12 0 -2
BITMAP
0000
0000
0880
0500
0200
0F80
1880
1800
1800
1880
0F00
0000
ENDCHAR
STARTCHAR 010E
ENCODING 270
SWIDTH 720 0
DWIDTH 12 0
BBX 12 12 0 -2
BITMAP
0000
0880
0500
3F00
1880
1840
1860
1860
1840
1880
3F00
0000
ENDCHAR
STARTCHAR 010F
ENCODING 271
SWIDTH 720 0
DWIDTH 12 0
BBX 12 12 0 -2
BITMAP
0000
1100
0A00
0780
0180
0F80
1980
1980
1980
1980
0FC0
0000
ENDCHAR
STARTCHAR 0111
ENCODING 273
SWIDTH 720 0
DWIDTH 12 0
BBX 12 12 0 -2
BITMAP
0000
0380
0180
0FC0
0180
0F80
1980
1980
1980
1980
0FC0
0000
ENDCHAR
STARTCHAR 0112
ENCODING 274
SWIDTH 720 0
DWIDTH 12 0
BBX 12 12 0 -2
BITMAP
0000
0F80
0000
3FC0
1820
1900
1F00
1900
1820
1840
3FC0
0000
ENDCHAR
STARTCHAR 0113
ENCODING 275
SWIDTH 720 0
DWIDTH 12 0
BBX 12 12 0 -2
BITMAP
0000
0000
0000
0F80
0000
0F80
18C0
1FC0
1800
1840
0F80
0000
ENDCHAR
STARTCHAR 0118
ENCODING 280
SWIDTH 720 0
DWIDTH 12 0
BBX 12 12 0 -2
BITMAP
0000
3FC0
1820
1800
1900
1F00
1900
1820
1840
3FC0
0080
0060
ENDCHAR
STARTCHAR 0119
ENCODING 281
SWIDTH 720 0
DWIDTH 12 0
BBX 12 12 0 -2
BITMAP
0000
0000
0000
0000
0000
0F80
18C0
1FC0
1800
1840
0F80
00E0
ENDCHAR
STARTCHAR 011A
ENCODING 282
SWIDTH 720 0
DWIDTH 12 0
BBX 12 12 0 -2
BITMAP
0000
0880
0500
3FC0
1820
1900
1F00
1900
1820
1840
3FC0
0000
ENDCHAR
STARTCHAR 011B
ENCODING 283
SWIDTH 720 0
DWIDTH 12 0
BBX 12 12 0 -2
BITMAP
0000
0000
0880
0500
0200
0F80
18C0
1FC0
1800
1840
0F80
0000
ENDCHAR
STARTCHAR 011C
ENCODING 284
SWIDTH 720 0
DWIDTH 12 0
BBX 12 12 0 -2
BITMAP
0000
0200
0500
0880
0F40
18C0
3000
31E0
18C0
08C0
0740
0000
ENDCHAR
STARTCHAR 011D
ENCODING 285
SWIDTH 720 0
DWIDTH 12 0
BBX 12 12 0 -2
BITMAP
0000
0000
0200
0500
08C0
0F80
1980
1900
0E00
1F80
10C0
0F80
ENDCHAR
STARTCHAR 0124
ENCODING 292
SWIDTH 720 0
DWIDTH 12 0
BBX 12 12 0 -2
BITMAP
0000
0200
0500
38E0
18C0
18C0
1FC0
18C0
18C0
18C0
38E0
0000
ENDCHAR
STARTCHAR 0125
ENCODING 293
SWIDTH 720 0
DWIDTH 12 0
BBX 12 12 0 -2
BITMAP
0000
1D00
0E80
0C40
0C00
0F80
0CC0
0CC0
0CC0
0CC0
1CE0
0000
ENDCHAR
STARTCHAR 0127
ENCODING 295
SWIDTH 720 0
DWIDTH 12 0
BBX 12 12 0 -2
BITMAP
0000
1C00
0C00
1F00
0C00
0F80
0CC0
0CC0
0CC0
0CC0
1CE0
0000
ENDCHAR
STARTCHAR 012A
ENCODING 298
SWIDTH 720 0
DWIDTH 12 0
BBX 12 12 0 -2
BITMAP
0000
0F00
0000
0F00
0600
0600
0600
0600
0600
0600
0F00
0000
ENDCHAR
STARTCHAR 012B
ENCODING 299
SWIDTH 720 0
DWIDTH 12 0
BBX 12 12 0 -2
BITMAP
0000
0000
0000
0F00
0000
0E00
0600
0600
0600
0600
0F00
0000
ENDCHAR
STARTCHAR 0134
ENCODING 308
SWIDTH 720 0
DWIDTH 12 0
BBX 12 12 0 -2
BITMAP
0000
0200
0500
09C0
0180
0180
0180
0180
1180
1900
0E00
0000
ENDCHAR
STARTCHAR 0135
ENCODING 309
SWIDTH 720 0
DWIDTH 12 0
BBX 12 12 0 -2
BITMAP
0000
0000
0200
0500
0880
0700
0300
0300
0300
0300
2200
3C00
ENDCHAR
STARTCHAR 0139
ENCODING 313
SWIDTH 720 0
DWIDTH 12 0
BBX 12 12 0 -2
BITMAP
0000
0080
3D00
1A00
1800
1800
1800
1800
1820
1840
3FC0
0000
ENDCHAR
STARTCHAR 013A
ENCODING 314
SWIDTH 720 0
DWIDTH 12 0
BBX 12 12 0 -2
BITMAP
0000
0200
0400
0E00
0600
0600
0600
0600
0600
0600
0F00
0000
ENDCHAR
STARTCHAR 013D
ENCODING 317
SWIDTH 720 0
DWIDTH 12 0
BBX 12 12 0 -2
BITMAP
0000
3C40
1A80
1900
1800
1800
1800
1800
1820
1840
3FC0
0000
ENDCHAR
STARTCHAR 013E
ENCODING 318
SWIDTH 720 0
DWIDTH 12 0
BBX 12 12 0 -2
BITMAP
0000
0880
0500
0E00
0600
0600
0600
0600
0600
0600
0F00
0000
ENDCHAR
STARTCHAR 0141
ENCODING 321
SWIDTH 720 0
DWIDTH 12 0
BBX 12 12 0 -2
BITMAP
0000
3800
1800
1800
1A00
1C00
3800
5800
1820
1840
3FC0
0000
ENDCHAR
STARTCHAR 0142
ENCODING 322
SWIDTH 720 0
DWIDTH 12 0
BBX 12 12 0 -2
BITMAP
0000
0E00
0600
0600
0680
0700
0E00
1600
0600
0600
0F00
0000
ENDCHAR
STARTCHAR 0143
ENCODING 323
SWIDTH 720 0
DWIDTH 12 0
BBX 12 12 0 -2
BITMAP
0000
0100
32E0
1C40
1C40
1640
1740
1340
11C0
10C0
3840
0000
ENDCHAR
STARTCHAR 0144
ENCODING 324
SWIDTH 720 0
DWIDTH 12 0
BBX 12 12 0 -2
BITMAP
0000
0000
0100
0200
0400
1B80
0CC0
0CC0
0CC0
0CC0
1CE0
0000
ENDCHAR
STARTCHAR 0147
ENCODING 327
SWIDTH 720 0
DWIDTH 12 0
BBX 12 12 0 -2
BITMAP
0000
0C80
3360
1840
1C40
1640
1740
1340
11C0
10C0
3840
0000
ENDCHAR
STARTCHAR 0148
ENCODING 328
SWIDTH 720 0
DWIDTH 12 0
BBX 12 12 0 -2
BITMAP
0000
0000
0880
0500
0200
1B80
0CC0
0CC0
0CC0
0CC0
1CE0
0000
ENDCHAR
STARTCHAR 014B
ENCODING 331
SWIDTH 720 0
DWIDTH 12 0
BBX 12 12 0 -2
BITMAP
0000
0000
0000
0000
0000
1B80
0CC0
0CC0
0CC0
0CC0
1C80
0300
ENDCHAR
STARTCHAR 014C
ENCODING 332
SWIDTH 720 0
DWIDTH 12 0
BBX 12 12 0 -2
BITMAP
0000
0F80
0000
0700
18C0
3060
3060
3060
3060
18C0
0700
0000
ENDCHAR
STARTCHAR 014D
ENCODING 333
SWIDTH 720 0
DWIDTH 12 0
BBX 12 12 0 -2
BITMAP
0000
0000
0000
0F80
0000
0700
0880
18C0
18C0
0880
0700
0000
ENDCHAR
STARTCHAR 0150
ENCODING 336
SWIDTH 720 0
DWIDTH 12 0
BBX 12 12 0 -2
BITMAP
0000
0480
0900
0700
18C0
3060
3060
3060
3060
18C0
0700
0000
ENDCHAR
STARTCHAR 0151
ENCODING 337
SWIDTH 720 0
DWIDTH 12 0
BBX 12 12 0 -2
BITMAP
0000
0000
0480
0900
1200
0700
0880
18C0
18C0
0880
0700
0000
ENDCHAR
STARTCHAR 0152
ENCODING 338
SWIDTH 720 0
DWIDTH 12 0
BBX 12 12 0 -2
BITMAP
0000
1BC0
2620
2600
6640
67C0
6640
6600
2620
2640
1BC0
0000
ENDCHAR
STARTCHAR 0153
ENCODING 339
SWIDTH 720 0
DWIDTH 12 0
BBX 12 12 0 -2
BITMAP
0000
0000
0000
0000
0000
3DC0
6660
67E0
6600
6620
3DC0
0000
ENDCHAR
STARTCHAR 0154
ENCODING 340
SWIDTH 720 0
DWIDTH 12 0
BBX 12 12 0 -2
BITMAP
0000
0100
0200
3FC0
1860
1860
1FC0
1980
18C0
18C0
3CE0
0000
ENDCHAR
STARTCHAR 0155
ENCODING 341
SWIDTH 720 0
DWIDTH 12 0
BBX 12 12 0 -2
BITMAP
0000
0000
0100
0200
0400
1BC0
0CC0
0C00
0C00
0C00
1E00
0000
ENDCHAR
STARTCHAR 0158
ENCODING 344
SWIDTH 720 0
DWIDTH 12 0
BBX 12 12 0 -2
BITMAP
0000
0880
0500
3FC0
1860
1860
1FC0
1980
18C0
18C0
3CE0
0000
ENDCHAR
STARTCHAR 0159
ENCODING 345
SWIDTH 720 0
DWIDTH 12 0
BBX 12 12 0 -2
BITMAP
0000
0000
0880
0500
0200
1BC0
0CC0
0C00
0C00
0C00
1E00
0000
ENDCHAR
STARTCHAR 015A
ENCODING 346
SWIDTH 720 0
DWIDTH 12 0
BBX 12 12 0 -2
BITMAP
0000
0200
0400
0680
0980
1880
1E00
0780
11C0
1880
1700
0000
ENDCHAR
STARTCHAR 015B
ENCODING 347
SWIDTH 720 0
DWIDTH 12 0
BBX 12 12 0 -2
BITMAP
0000
0000
0100
0200
0400
0FC0
18C0
0E00
0380
18C0
2F80
0000
ENDCHAR
STARTCHAR 015C
ENCODING 348
SWIDTH 720 0
DWIDTH 12 0
BBX 12 12 0 -2
BITMAP
0000
0200
0500
0E80
0980
1880
1E00
0780
11C0
1880
1700
0000
ENDCHAR
STARTCHAR 015D
ENCODING 349
SWIDTH 720 0
DWIDTH 12 0
BBX 12 12 0 -2
BITMAP
0000
0000
0200
0500
0880
0FC0
18C0
0E00
0380
18C0
2F80
0000
ENDCHAR
STARTCHAR 015E
ENCODING 350
SWIDTH 720 0
DWIDTH 12 0
BBX 12 12 0 -2
BITMAP
0000
0680
0980
1880
1C00
0F80
03C0
10C0
1880
1700
0200
0C00
ENDCHAR
STARTCHAR 015F
ENCODING 351
SWIDTH 720 0
DWIDTH 12 0
BBX 12 12 0 -2
BITMAP
0000
0000
0000
0000
0FC0
18C0
0E00
0380
18C0
2F80
0100
0600
ENDCHAR
STARTCHAR 0160
ENCODING 352
SWIDTH 720 0
DWIDTH 12 0
BBX 12 12 0 -2
BITMAP
0000
0880
0500
0680
0980
1880
1E00
0780
11C0
1880
1700
0000
ENDCHAR
STARTCHAR 0161
ENCODING 353
SWIDTH 720 0
DWIDTH 12 0
BBX 12 12 0 -2
BITMAP
0000
0000
0880
0500
0200
0FC0
18C0
0E00
0380
18C0
2F80
0000
ENDCHAR
STARTCHAR 0162
ENCODING 354
SWIDTH 720 0
DWIDTH 12 0
BBX 12 12 0 -2
BITMAP
0000
3FC0
2640
4620
0600
0600
0600
0600
0600
0F00
0400
1800
ENDCHAR
STARTCHAR 0163
ENCODING 355
SWIDTH 720 0
DWIDTH 12 0
BBX 12 12 0 -2
BITMAP
0000
0000
0200
0600
0600
1F80
0600
0600
0640
0380
0200
0C00
ENDCHAR
STARTCHAR 0164
ENCODING 356
SWIDTH 720 0
DWIDTH 12 0
BBX 12 12 0 -2
BITMAP
0000
0880
0500
3FC0
2640
4620
0600
0600
0600
0600
0F00
0000
ENDCHAR
STARTCHAR 0165
ENCODING 357
SWIDTH 720 0
DWIDTH 12 0
BBX 12 12 0 -2
BITMAP
0000
0880
0500
0200
0600
1F80
0600
0600
0600
0640
0380
0000
ENDCHAR
STARTCHAR 016A
ENCODING 362
SWIDTH 720 0
DWIDTH 12 0
BBX 12 12 0 -2
BITMAP
0000
0F80
0000
3CE0
1840
1840
1840
1840
1840
0CC0
0700
0000
ENDCHAR
STARTCHAR 016B
ENCODING 363
SWIDTH 720 0
DWIDTH 12 0
BBX 12 12 0 -2
BITMAP
0000
0000
0000
0F80
0000
1DC0
0CC0
0CC0
0CC0
0CC0
0760
0000
ENDCHAR
STARTCHAR 016C
ENCODING 364
SWIDTH 720 0
DWIDTH 12 0
BBX 12 12 0 -2
BITMAP
0000
0900
0600
38E0
1840
1840
1840
1840
1840
0CC0
0700
0000
ENDCHAR
STARTCHAR 016D
ENCODING 365
SWIDTH 720 0
DWIDTH 12 0
BBX 12 12 0 -2
BITMAP
0000
0000
0900
0600
0000
1DC0
0CC0
0CC0
0CC0
0CC0
0760
0000
ENDCHAR
STARTCHAR 016E
ENCODING 366
SWIDTH 720 0
DWIDTH 12 0
BBX 12 12 0 -2
BITMAP
0000
0300
0480
3CE0
1B40
1840
1840
1840
1840
0CC0
0700
0000
ENDCHAR
STARTCHAR 016F
ENCODING 367
SWIDTH 720 0
DWIDTH 12 0
BBX 12 12 0 -2
BITMAP
0000
0000
0880
0500
0200
1DC0
0CC0
0CC0
0CC0
0CC0
0760
0000
ENDCHAR
STARTCHAR 0170
ENCODING 368
SWIDTH 720 0
DWIDTH 12 0
BBX 12 12 0 -2
BITMAP
0000
0480
0900
3CE0
1840
1840
1840
1840
1840
0CC0
0700
0000
ENDCHAR
STARTCHAR 0171
ENCODING 369
SWIDTH 720 0
DWIDTH 12 0
BBX 12 12 0 -2
BITMAP
0000
0000
0480
0900
1200
1DC0
0CC0
0CC0
0CC0
0CC0
0760
0000
ENDCHAR
STARTCHAR 0179
ENCODING 377
SWIDTH 720 0
DWIDTH 12 0
BBX 12 12 0 -2
BITMAP
0000
0100
0200
1FC0
1180
2300
0600
0C00
0820
1840
3FC0
0000
ENDCHAR
STARTCHAR 017A
ENCODING 378
SWIDTH 720 0
DWIDTH 12 0
BBX 12 12 0 -2
BITMAP
0000
0000
0100
0200
0400
0FC0
1180
0300
0600
0C40
1F80
0000
ENDCHAR
STARTCHAR 017B
ENCODING 379
SWIDTH 720 0
DWIDTH 12 0
BBX 12 12 0 -2
BITMAP
0000
0600
0600
1FC0
1180
2300
0600
0C00
0820
1840
3FC0
0000
ENDCHAR
STARTCHAR 017C
ENCODING 380
SWIDTH 720 0
DWIDTH 12 0
BBX 12 12 0 -2
BITMAP
0000
0000
0600
0600
0000
0FC0
1180
0300
0600
0C40
1F80
0000
ENDCHAR
STARTCHAR 017D
ENCODING 381
SWIDTH 720 0
DWIDTH 12 0
BBX 12 12 0 -2
BITMAP
0000
0880
0500
1FC0
1180
2300
0600
0C00
0820
1840
3FC0
0000
ENDCHAR
STARTCHAR 017E
ENCODING 382
SWIDTH 720 0
DWIDTH 12 0
BBX 12 12 0 -2
BITMAP
0000
0000
0880
0500
0200
0FC0
1180
0300
0600
0C40
1F80
0000
ENDCHAR
STARTCHAR 0193
ENCODING 403
SWIDTH 720 0
DWIDTH 12 0
BBX 12 12 0 -2
BITMAP
0000
0720
08D0
1840
3000
3000
31E0
30C0
18C0
08C0
0740
0000
ENDCHAR
STARTCHAR 01C2
ENCODING 450
SWIDTH 720 0
DWIDTH 12 0
BBX 12 12 0 -2
BITMAP
0000
0000
0200
0200
0F80
0200
0200
0F80
0200
0200
0200
0000
ENDCHAR
STARTCHAR 01CD
ENCODING 461
SWIDTH 720 0
DWIDTH 12 0
BBX 12 12 0 -2
BITMAP
0000
0880
0500
0700
0500
0980
0F80
1980
10C0
30C0
78E0
0000
ENDCHAR
STARTCHAR 01CE
ENCODING 462
SWIDTH 720 0
DWIDTH 12 0
BBX 12 12 0 -2
BITMAP
0000
0000
0880
0500
0200
0F00
0180
0F80
1980
1980
0EC0
0000
ENDCHAR
STARTCHAR 01D0
ENCODING 464
SWIDTH 720 0
DWIDTH 12 0
BBX 12 12 0 -2
BITMAP
0000
0000
1100
0A00
0400
0E00
0600
0600
0600
0600
0F00
0000
ENDCHAR
STARTCHAR 01D1
ENCODING 465
SWIDTH 720 0
DWIDTH 12 0
BBX 12 12 0 -2
BITMAP
0000
0880
0500
0200
0700
18C0
3060
3060
3060
18C0
0700
0000
ENDCHAR
STARTCHAR 01D2
ENCODING 466
SWIDTH 720 0
DWIDTH 12 0
BBX 12 12 0 -2
BITMAP
0000
0000
0880
0500
0200
0F80
18C0
18C0
18C0
18C0
0F80
0000
ENDCHAR
STARTCHAR 01D4
ENCODING 468
SWIDTH 720 0
DWIDTH 12 0
BBX 12 12 0 -2
BITMAP
0000
0000
0880
0500
0200
1DC0
0CC0
0CC0
0CC0
0CC0
0760
0000
ENDCHAR
STARTCHAR 01D6
ENCODING 470
SWIDTH 720 0
DWIDTH 12 0
BBX 12 12 0 -2
BITMAP
0000
0F80
0000
0D80
0D80
0000
1DC0
0CC0
0CC0
0CC0
0760
0000
ENDCHAR
STARTCHAR 01D8
ENCODING 472
SWIDTH 720 0
DWIDTH 12 0
BBX 12 12 0 -2
BITMAP
0000
0100
0200
0D80
0D80
0000
1DC0
0CC0
0CC0
0CC0
0760
0000
ENDCHAR
STARTCHAR 01DA
ENCODING 474
SWIDTH 720 0
DWIDTH 12 0
BBX 12 12 0 -2
BITMAP
0000
0880
0500
0F80
0D80
0000
1DC0
0CC0
0CC0
0CC0
0760
0000
ENDCHAR
STARTCHAR 01DC
ENCODING 476
SWIDTH 720 0
DWIDTH 12 0
BBX 12 12 0 -2
BITMAP
0000
0400
0200
0D80
0D80
0000
1DC0
0CC0
0CC0
0CC0
0760
0000
ENDCHAR
STARTCHAR 01F8
ENCODING 504
SWIDTH 720 0
DWIDTH 12 0
BBX 12 12 0 -2
BITMAP
0000
0400
32E0
1940
1C40
1640
1740
1340
11C0
10C0
3840
0000
ENDCHAR
STARTCHAR 01F9
ENCODING 505
SWIDTH 720 0
DWIDTH 12 0
BBX 12 12 0 -2
BITMAP
0000
0000
0400
0200
0100
1B80
0CC0
0CC0
0CC0
0CC0
1CE0
0000
ENDCHAR
STARTCHAR 01FD
ENCODING 509
SWIDTH 720 0
DWIDTH 12 0
BBX 12 12 0 -2
BITMAP
0000
0100
0200
0400
0000
3DC0
0720
3FF0
6700
6710
3DE0
0000
ENDCHAR
STARTCHAR 0250
ENCODING 592
SWIDTH 720 0
DWIDTH 12 0
BBX 12 12 0 -2
BITMAP
0000
0000
0000
0000
0000
1B80
0CC0
0CC0
0F80
0C00
0780
0000
ENDCHAR
STARTCHAR 0251
ENCODING 593
SWIDTH 720 0
DWIDTH 12 0
BBX 12 12 0 -2
BITMAP
0000
0000
0000
0000
0000
0E80
1980
1980
1980
1980
0EC0
0000
ENDCHAR
STARTCHAR 0252
ENCODING 594
SWIDTH 720 0
DWIDTH 12 0
BBX 12 12 0 -2
BITMAP
0000
0000
0000
0000
0000
3700
1980
1980
1980
1980
1700
0000
ENDCHAR
STARTCHAR 0253
ENCODING 595
SWIDTH 720 0
DWIDTH 12 0
BBX 12 12 0 -2
BITMAP
0000
03C0
0440
0C00
0C00
0F80
0CC0
0CC0
0CC0
0CC0
1F80
0000
ENDCHAR
STARTCHAR 0254
ENCODING 596
SWIDTH 720 0
DWIDTH 12 0
BBX 12 12 0 -2
BITMAP
0000
0000
0000
0000
0000
0F00
1180
0180
0180
1180
1F00
0000
ENDCHAR
STARTCHAR 0255
ENCODING 597
SWIDTH 720 0
DWIDTH 12 0
BBX 12 12 0 -2
BITMAP
0000
0000
0000
0000
0000
0F80
1880
1800
1B00
1C80
0F00
0800
ENDCHAR
STARTCHAR 0256
ENCODING 598
SWIDTH 720 0
DWIDTH 12 0
BBX 12 12 0 -2
BITMAP
0000
0380
0180
0180
0180
0F80
1980
1980
1980
1980
0FA0
00E0
ENDCHAR
STARTCHAR 0257
ENCODING 599
SWIDTH 720 0
DWIDTH 12 0
BBX 12 12 0 -2
BITMAP
0000
00E0
01A0
0180
0180
0F80
1980
1980
1980
1980
0FC0
0000
ENDCHAR
STARTCHAR 0258
ENCODING 600
SWIDTH 720 0
DWIDTH 12 0
BBX 12 12 0 -2
BITMAP
0000
0000
0000
0000
0000
0F80
18C0
1FC0
00C0
10C0
0F80
0000
ENDCHAR
STARTCHAR 0259
ENCODING 601
SWIDTH 720 0
DWIDTH 12 0
BBX 12 12 0 -2
BITMAP
0000
0000
0000
0000
0000
0F80
10C0
00C0
1FC0
18C0
0F80
0000
ENDCHAR
STARTCHAR 025A
ENCODING 602
SWIDTH 720 0
DWIDTH 12 0
BBX 12 12 0 -2
BITMAP
0000
0000
0000
0000
0000
0F20
11E0
07A0
1990
1180
0F00
0000
ENDCHAR
STARTCHAR 025C
ENCODING 604
SWIDTH 720 0
DWIDTH 12 0
BBX 12 12 0 -2
BITMAP
0000
0000
0000
0000
0000
0F80
10C0
0380
00C0
10C0
0F80
0000
ENDCHAR
STARTCHAR 025E
ENCODING 606
SWIDTH 720 0
DWIDTH 12 0
BBX 12 12 0 -2
BITMAP
0000
0000
0000
0000
0000
0F80
10C0
1380
10C0
10C0
0F80
0000
ENDCHAR
STARTCHAR 025F
ENCODING 607
SWIDTH 720 0
DWIDTH 12 0
BBX 12 12 0 -2
BITMAP
0000
0000
0000
0000
0000
0F80
0300
0300
0F80
0300
2200
3C00
ENDCHAR
STARTCHAR 0260
ENCODING 608
SWIDTH 720 0
DWIDTH 12 0
BBX 12 12 0 -2
BITMAP
0000
0000
0000
0020
0050
0F40
18C0
18C0
08C0
07C0
0880
0F00
ENDCHAR
STARTCHAR 0261
ENCODING 609
SWIDTH 720 0
DWIDTH 12 0
BBX 12 12 0 -2
BITMAP
0000
0000
0000
0000
0000
0F40
18C0
18C0
08C0
07C0
0880
0F00
ENDCHAR
STARTCHAR 0264
ENCODING 612
SWIDTH 720 0
DWIDTH 12 0
BBX 12 12 0 -2
BITMAP
0000
0000
0000
0000
39C0
1080
0900
0900
0600
0600
0600
0000
ENDCHAR
STARTCHAR 0265
ENCODING 613
SWIDTH 720 0
DWIDTH 12 0
BBX 12 12 0 -2
BITMAP
0000
1CE0
0CC0
0CC0
0CC0
0CC0
07C0
00C0
00C0
00C0
00E0
0000
ENDCHAR
STARTCHAR 0266
ENCODING 614
SWIDTH 720 0
DWIDTH 12 0
BBX 12 12 0 -2
BITMAP
0000
03C0
0440
0C00
0C00
0F80
0CC0
0CC0
0CC0
0CC0
1CE0
0000
ENDCHAR
STARTCHAR 0267
ENCODING 615
SWIDTH 720 0
DWIDTH 12 0
BBX 12 12 0 -2
BITMAP
0000
03C0
0440
0C00
0C00
0F80
0CC0
0CC0
0CC0
0CC0
1CC0
0380
ENDCHAR
STARTCHAR 0268
ENCODING 616
SWIDTH 720 0
DWIDTH 12 0
BBX 12 12 0 -2
BITMAP
0000
0200
0700
0200
0000
0E00
0600
1F80
0600
0600
0F00
0000
ENDCHAR
STARTCHAR 026C
ENCODING 620
SWIDTH 720 0
DWIDTH 12 0
BBX 12 12 0 -2
BITMAP
0000
0E00
0600
0600
0E00
1600
1600
0FC0
0600
0600
0F00
0000
ENDCHAR
STARTCHAR 026D
ENCODING 621
SWIDTH 720 0
DWIDTH 12 0
BBX 12 12 0 -2
BITMAP
0000
0E00
0600
0600
0600
0600
0600
0600
0600
0600
0680
0380
ENDCHAR
STARTCHAR 026E
ENCODING 622
SWIDTH 720 0
DWIDTH 12 0
BBX 12 12 0 -2
BITMAP
0000
3800
1800
1800
1800
1FC0
1980
1B00
1B80
18C0
3CC0
0F80
ENDCHAR
STARTCHAR 026F
ENCODING 623
SWIDTH 720 0
DWIDTH 12 0
BBX 12 12 0 -2
BITMAP
0000
0000
0000
0000
0000
3B70
1B60
1B60
1B60
1B60
0DB0
0000
ENDCHAR
STARTCHAR 0270
ENCODING 624
SWIDTH 720 0
DWIDTH 12 0
BBX 12 12 0 -2
BITMAP
0000
0000
0000
0000
0000
3B70
1B60
1B60
1B60
1B60
0DE0
0070
ENDCHAR
STARTCHAR 0271
ENCODING 625
SWIDTH 720 0
DWIDTH 12 0
BBX 12 12 0 -2
BITMAP
0000
0000
0000
0000
0000
36C0
1B60
1B60
1B60
1B60
3B60
00C0
ENDCHAR
STARTCHAR 0272
ENCODING 626
SWIDTH 720 0
DWIDTH 12 0
BBX 12 12 0 -2
BITMAP
0000
0000
0000
0000
0000
1B80
0CC0
0CC0
0CC0
0CC0
2CE0
3800
ENDCHAR
STARTCHAR 0273
ENCODING 627
SWIDTH 720 0
DWIDTH 12 0
BBX 12 12 0 -2
BITMAP
0000
0000
0000
0000
0000
3700
1980
1980
1980
1980
39A0
00E0
ENDCHAR
STARTCHAR 0275
ENCODING 629
SWIDTH 720 0
DWIDTH 12 0
BBX 12 12 0 -2
BITMAP
0000
0000
0000
0000
0000
0F80
18C0
1FC0
18C0
18C0
0F80
0000
ENDCHAR
STARTCHAR 0279
ENCODING 633
SWIDTH 720 0
DWIDTH 12 0
BBX 12 12 0 -2
BITMAP
0000
0000
0000
0000
0000
0780
0300
0300
0300
3300
3D80
0000
ENDCHAR
STARTCHAR 027A
ENCODING 634
SWIDTH 720 0
DWIDTH 12 0
BBX 12 12 0 -2
BITMAP
0000
0780
0300
0300
0300
0300
0300
0300
0300
3300
3D80
0000
ENDCHAR
STARTCHAR 027B
ENCODING 635
SWIDTH 720 0
DWIDTH 12 0
BBX 12 12 0 -2
BITMAP
0000
0000
0000
0000
0000
0780
0300
0300
0300
3300
3D40
00C0
ENDCHAR
STARTCHAR 027D
ENCODING 637
SWIDTH 720 0
DWIDTH 12 0
BBX 12 12 0 -2
BITMAP
0000
0000
0000
0000
0000
1BC0
0CC0
0C00
0C00
0C00
0D00
0700
ENDCHAR
STARTCHAR 027E
ENCODING 638
SWIDTH 720 0
DWIDTH 12 0
BBX 12 12 0 -2
BITMAP
0000
0000
0000
0000
0000
0380
06C0
06C0
0600
0600
0F00
0000
ENDCHAR
STARTCHAR 0281
ENCODING 641
SWIDTH 720 0
DWIDTH 12 0
BBX 12 12 0 -2
BITMAP
0000
0000
0000
0000
1CC0
0DC0
0F80
0CC0
0CC0
0CC0
0B80
0000
ENDCHAR
STARTCHAR 0282
ENCODING 642
SWIDTH 720 0
DWIDTH 12 0
BBX 12 12 0 -2
BITMAP
0000
0000
0000
0000
0FC0
18C0
0E00
0380
18C0
1F80
1000
0C00
ENDCHAR
STARTCHAR 0283
ENCODING 643
SWIDTH 720 0
DWIDTH 12 0
BBX 12 12 0 -2
BITMAP
0000
0380
06C0
0600
0600
0600
0600
0600
0600
0600
3600
1C00
ENDCHAR
STARTCHAR 0284
ENCODING 644
SWIDTH 720 0
DWIDTH 12 0
BBX 12 12 0 -2
BITMAP
0000
0000
0000
0000
01C0
02C0
0600
0600
0600
0F00
2600
3C00
ENDCHAR
STARTCHAR 0288
ENCODING 648
SWIDTH 720 0
DWIDTH 12 0
BBX 12 12 0 -2
BITMAP
0000
0000
0200
0600
0600
1F80
0600
0600
0600
0600
0640
0380
ENDCHAR
STARTCHAR 0289
ENCODING 649
SWIDTH 720 0
DWIDTH 12 0
BBX 12 12 0 -2
BITMAP
0000
0000
0000
0000
0000
1DC0
0CC0
3FE0
0CC0
0CC0
0760
0000
ENDCHAR
STARTCHAR 028A
ENCODING 650
SWIDTH 720 0
DWIDTH 12 0
BBX 12 12 0 -2
BITMAP
0000
0000
0000
0000
0000
1DC0
1540
0880
18C0
18C0
0F80
0000
ENDCHAR
STARTCHAR 028B
ENCODING 651
SWIDTH 720 0
DWIDTH 12 0
BBX 12 12 0 -2
BITMAP
0000
0000
0000
0000
0000
1DC0
0CC0
0CC0
0CC0
0C80
0700
0000
ENDCHAR
STARTCHAR 028C
ENCODING 652
SWIDTH 720 0
DWIDTH 12 0
BBX 12 12 0 -2
BITMAP
0000
0000
0000
0000
0000
0400
0600
0F00
0B00
1180
39C0
0000
ENDCHAR
STARTCHAR 028D
ENCODING 653
SWIDTH 720 0
DWIDTH 12 0
BBX 12 12 0 -2
BITMAP
0000
0000
0000
0000
0000
0900
0D80
1DC0
1EC0
2660
7670
0000
ENDCHAR
STARTCHAR 028E
ENCODING 654
SWIDTH 720 0
DWIDTH 12 0
BBX 12 12 0 -2
BITMAP
0000
0000
0000
00E0
0160
0300
0380
0780
05C0
08C0
1CE0
0000
ENDCHAR
STARTCHAR 0290
ENCODING 656
SWIDTH 720 0
DWIDTH 12 0
BBX 12 12 0 -2
BITMAP
0000
0000
0000
0000
0000
0FC0
1180
0300
0600
0C40
1F80
0060
ENDCHAR
STARTCHAR 0291
ENCODING 657
SWIDTH 720 0
DWIDTH 12 0
BBX 12 12 0 -2
BITMAP
0000
0000
0000
0000
0000
0FC0
1180
0300
06C0
0D40
1FC0
0200
ENDCHAR
STARTCHAR 0292
ENCODING 658
SWIDTH 720 0
DWIDTH 12 0
BBX 12 12 0 -2
BITMAP
0000
0000
0000
0000
0000
1F80
1300
0600
0700
3180
3180
1F00
ENDCHAR
STARTCHAR 0294
ENCODING 660
SWIDTH 720 0
DWIDTH 12 0
BBX 12 12 0 -2
BITMAP
0000
0F00
1180
30C0
30C0
0180
0700
0600
0600
0600
0F00
0000
ENDCHAR
STARTCHAR 0295
ENCODING 661
SWIDTH 720 0
DWIDTH 12 0
BBX 12 12 0 -2
BITMAP
0000
0F00
1880
30C0
30C0
1800
0E00
0600
0600
0600
0F00
0000
ENDCHAR
STARTCHAR 0298
ENCODING 664
SWIDTH 720 0
DWIDTH 12 0
BBX 12 12 0 -2
BITMAP
0000
0000
0000
0700
0880
1040
1240
1240
1040
0880
0700
0000
ENDCHAR
STARTCHAR 029D
ENCODING 669
SWIDTH 720 0
DWIDTH 12 0
BBX 12 12 0 -2
BITMAP
0000
0200
0700
0200
0000
0700
0300
0300
0300
1F80
1200
0C00
ENDCHAR
STARTCHAR 02A1
ENCODING 673
SWIDTH 720 0
DWIDTH 12 0
BBX 12 12 0 -2
BITMAP
0000
0F00
1180
30C0
30C0
0180
0700
0600
1F80
0600
0F00
0000
ENDCHAR
STARTCHAR 02A2
ENCODING 674
SWIDTH 720 0
DWIDTH 12 0
BBX 12 12 0 -2
BITMAP
0000
0F00
1880
30C0
30C0
1800
0E00
0600
1F80
0600
0F00
0000
ENDCHAR
STARTCHAR 02C7
ENCODING 711
SWIDTH 720 0
DWIDTH 12 0
BBX 12 12 0 -2
BITMAP
0000
0880
0500
0200
0000
0000
0000
0000
0000
0000
0000
0000
ENDCHAR
STARTCHAR 02C8
ENCODING 712
SWIDTH 720 0
DWIDTH 12 0
BBX 12 12 0 -2
BITMAP
0000
0200
0200
0200
0200
0000
0000
0000
0000
0000
0000
0000
ENDCHAR
STARTCHAR 02CC
ENCODING 716
SWIDTH 720 0
DWIDTH 12 0
BBX 12 12 0 -2
BITMAP
0000
0000
0000
0000
0000
0000
0000
0000
0200
0200
0200
0200
ENDCHAR
STARTCHAR 02D0
ENCODING 720
SWIDTH 720 0
DWIDTH 12 0
BBX 12 12 0 -2
BITMAP
0000
0000
0000
0000
0F80
0700
0200
0000
0200
0700
0F80
0000
ENDCHAR
STARTCHAR 02D1
ENCODING 721
SWIDTH 720 0
DWIDTH 12 0
BBX 12 12 0 -2
BITMAP
0000
0000
0000
0000
0F80
0700
0200
0000
0000
0000
0000
0000
ENDCHAR
STARTCHAR 02D8
ENCODING 728
SWIDTH 720 0
DWIDTH 12 0
BBX 12 12 0 -2
BITMAP
0000
0840
0840
0780
0000
0000
0000
0000
0000
0000
0000
0000
ENDCHAR
STARTCHAR 02D9
ENCODING 729
SWIDTH 720 0
DWIDTH 12 0
BBX 12 12 0 -2
BITMAP
0000
0600
0600
0000
0000
0000
0000
0000
0000
0000
0000
0000
ENDCHAR
STARTCHAR 02DB
ENCODING 731
SWIDTH 720 0
DWIDTH 12 0
BBX 12 12 0 -2
BITMAP
0000
0000
0000
0000
0000
0000
0000
0080
0100
0100
00C0
00C0
ENDCHAR
STARTCHAR 02DD
ENCODING 733
SWIDTH 720 0
DWIDTH 12 0
BBX 12 12 0 -2
BITMAP
0000
0280
0500
0A00
0000
0000
0000
0000
0000
0000
0000
0000
ENDCHAR
STARTCHAR 02DE
ENCODING 734
SWIDTH 720 0
DWIDTH 12 0
BBX 12 12 0 -2
BITMAP
0000
0000
0000
0000
0000
0700
0140
0140
0080
0000
0000
0000
ENDCHAR
STARTCHAR 02E5
ENCODING 741
SWIDTH 720 0
DWIDTH 12 0
BBX 12 12 0 -2
BITMAP
FE00
0200
0200
0200
0200
0200
0200
0200
0200
0200
0200
0200
ENDCHAR
STARTCHAR 02E6
ENCODING 742
SWIDTH 720 0
DWIDTH 12 0
BBX 12 12 0 -2
BITMAP
0200
0200
0200
FE00
0200
0200
0200
0200
0200
0200
0200
0200
ENDCHAR
STARTCHAR 02E7
ENCODING 743
SWIDTH 720 0
DWIDTH 12 0
BBX 12 12 0 -2
BITMAP
0200
0200
0200
0200
0200
0200
FE00
0200
0200
0200
0200
0200
ENDCHAR
STARTCHAR 02E8
ENCODING 744
SWIDTH 720 0
DWIDTH 12 0
BBX 12 12 0 -2
BITMAP
0200
0200
0200
0200
0200
0200
0200
0200
FE00
0200
0200
0200
ENDCHAR
STARTCHAR 02E9
ENCODING 745
SWIDTH 720 0
DWIDTH 12 0
BBX 12 12 0 -2
BITMAP
0200
0200
0200
0200
0200
0200
0200
0200
0200
0200
0200
FE00
ENDCHAR
STARTCHAR 0300
ENCODING 768
SWIDTH 720 0
DWIDTH 12 0
BBX 12 12 0 -2
BITMAP
0000
0400
0200
0100
0000
0000
0000
0000
0000
0000
0000
0000
ENDCHAR
STARTCHAR 0301
ENCODING 769
SWIDTH 720 0
DWIDTH 12 0
BBX 12 12 0 -2
BITMAP
0000
0100
0200
0400
0000
0000
0000
0000
0000
0000
0000
0000
ENDCHAR
STARTCHAR 0302
ENCODING 770
SWIDTH 720 0
DWIDTH 12 0
BBX 12 12 0 -2
BITMAP
0000
0200
0500
0880
0000
0000
0000
0000
0000
0000
0000
0000
ENDCHAR
STARTCHAR 0303
ENCODING 771
SWIDTH 720 0
DWIDTH 12 0
BBX 12 12 0 -2
BITMAP
0000
0C80
1300
0000
0000
0000
0000
0000
0000
0000
0000
0000
ENDCHAR
STARTCHAR 0304
ENCODING 772
SWIDTH 720 0
DWIDTH 12 0
BBX 12 12 0 -2
BITMAP
0000
0F00
0000
0000
0000
0000
0000
0000
0000
0000
0000
0000
ENDCHAR
STARTCHAR 0306
ENCODING 774
SWIDTH 720 0
DWIDTH 12 0
BBX 12 12 0 -2
BITMAP
0000
0880
0880
0700
0000
0000
0000
0000
0000
0000
0000
0000
ENDCHAR
STARTCHAR 0308
ENCODING 776
SWIDTH 720 0
DWIDTH 12 0
BBX 12 12 0 -2
BITMAP
0000
0D80
0D80
0000
0000
0000
0000
0000
0000
0000
0000
0000
ENDCHAR
STARTCHAR 030B
ENCODING 779
SWIDTH 720 0
DWIDTH 12 0
BBX 12 12 0 -2
BITMAP
0000
0480
0900
1200
0000
0000
0000
0000
0000
0000
0000
0000
ENDCHAR
STARTCHAR 030C
ENCODING 780
SWIDTH 720 0
DWIDTH 12 0
BBX 12 12 0 -2
BITMAP
0000
0880
0500
0200
0000
0000
0000
0000
0000
0000
0000
0000
ENDCHAR
STARTCHAR 030F
ENCODING 783
SWIDTH 720 0
DWIDTH 12 0
BBX 12 12 0 -2
BITMAP
0000
1200
0900
0480
0000
0000
0000
0000
0000
0000
0000
0000
ENDCHAR
STARTCHAR 0318
ENCODING 792
SWIDTH 720 0
DWIDTH 12 0
BBX 12 12 0 -2
BITMAP
0000
0000
0000
0000
0000
0000
0000
0200
0200
0E00
0200
0200
ENDCHAR
STARTCHAR 0319
ENCODING 793
SWIDTH 720 0
DWIDTH 12 0
BBX 12 12 0 -2
BITMAP
0000
0000
0000
0000
0000
0000
0000
0200
0200
0380
0200
0200
ENDCHAR
STARTCHAR 031A
ENCODING 794
SWIDTH 720 0
DWIDTH 12 0
BBX 12 12 0 -2
BITMAP
0000
01C0
0040
0040
0000
0000
0000
0000
0000
0000
0000
0000
ENDCHAR
STARTCHAR 031C
ENCODING 796
SWIDTH 720 0
DWIDTH 12 0
BBX 12 12 0 -2
BITMAP
0000
0000
0000
0000
0000
0000
0000
0000
0000
0300
0400
0300
ENDCHAR
STARTCHAR 031D
ENCODING 797
SWIDTH 720 0
DWIDTH 12 0
BBX 12 12 0 -2
BITMAP
0000
0000
0000
0000
0000
0000
0000
0200
0200
0F80
0000
0000
ENDCHAR
STARTCHAR 031E
ENCODING 798
SWIDTH 720 0
DWIDTH 12 0
BBX 12 12 0 -2
BITMAP
0000
0000
0000
0000
0000
0000
0000
0000
0000
0F80
0200
0200
ENDCHAR
STARTCHAR 031F
ENCODING 799
SWIDTH 720 0
DWIDTH 12 0
BBX 12 12 0 -2
BITMAP
0000
0000
0000
0000
0000
0000
0000
0000
0000
0200
0F80
0200
ENDCHAR
STARTCHAR 0320
ENCODING 800
SWIDTH 720 0
DWIDTH 12 0
BBX 12 12 0 -2
BITMAP
0000
0000
0000
0000
0000
0000
0000
0000
0000
0000
0F80
0000
ENDCHAR
STARTCHAR 0324
ENCODING 804
SWIDTH 720 0
DWIDTH 12 0
BBX 12 12 0 -2
BITMAP
0000
0000
0000
0000
0000
0000
0000
0000
0000
0000
0D80
0D80
ENDCHAR
STARTCHAR 0325
ENCODING 805
SWIDTH 720 0
DWIDTH 12 0
BBX 12 12 0 -2
BITMAP
0000
0000
0000
0000
0000
0000
0000
0000
0600
0900
0900
0600
ENDCHAR
STARTCHAR 0329
ENCODING 809
SWIDTH 720 0
DWIDTH 12 0
BBX 12 12 0 -2
BITMAP
0000
0000
0000
0000
0000
0000
0000
0000
0000
0200
0200
0200
ENDCHAR
STARTCHAR 032A
ENCODING 810
SWIDTH 720 0
DWIDTH 12 0
BBX 12 12 0 -2
BITMAP
0000
0000
0000
0000
0000
0000
0000
0000
0000
0F80
0880
0880
ENDCHAR
STARTCHAR 032C
ENCODING 812
SWIDTH 720 0
DWIDTH 12 0
BBX 12 12 0 -2
BITMAP
0000
0000
0000
0000
0000
0000
0000
0000
0000
0880
0880
0700
ENDCHAR
STARTCHAR 032F
ENCODING 815
SWIDTH 720 0
DWIDTH 12 0
BBX 12 12 0 -2
BITMAP
0000
0000
0000
0000
0000
0000
0000
0000
0000
0700
0880
0880
ENDCHAR
STARTCHAR 0330
ENCODING 816
SWIDTH 720 0
DWIDTH 12 0
BBX 12 12 0 -2
BITMAP
0000
0000
0000
0000
0000
0000
0000
0000
0000
0000
0C80
1300
ENDCHAR
STARTCHAR 0334
ENCODING 820
SWIDTH 720 0
DWIDTH 12 0
BBX 12 12 0 -2
BITMAP
0000
0000
0000
0000
0000
0000
0C80
1300
0000
0000
0000
0000
ENDCHAR
STARTCHAR 0339
ENCODING 825
SWIDTH 720 0
DWIDTH 12 0
BBX 12 12 0 -2
BITMAP
0000
0000
0000
0000
0000
0000
0000
0000
0000
0300
0080
0300
ENDCHAR
STARTCHAR 033A
ENCODING 826
SWIDTH 720 0
DWIDTH 12 0
BBX 12 12 0 -2
BITMAP
0000
0000
0000
0000
0000
0000
0000
0000
0000
0880
0880
0F80
ENDCHAR
STARTCHAR 033B
ENCODING 827
SWIDTH 720 0
DWIDTH 12 0
BBX 12 12 0 -2
BITMAP
0000
0000
0000
0000
0000
0000
0000
0000
0F80
0880
0880
0F80
ENDCHAR
STARTCHAR 033C
ENCODING 828
SWIDTH 720 0
DWIDTH 12 0
BBX 12 12 0 -2
BITMAP
0000
0000
0000
0000
0000
0000
0000
0000
0000
0000
0D80
1240
ENDCHAR
STARTCHAR 033D
ENCODING 829
SWIDTH 720 0
DWIDTH 12 0
BBX 12 12 0 -2
BITMAP
0000
0D80
0200
0D80
0000
0000
0000
0000
0000
0000
0000
0000
ENDCHAR
STARTCHAR 0361
ENCODING 865
SWIDTH 720 0
DWIDTH 12 0
BBX 12 12 0 -2
BITMAP
0000
0F80
1040
2020
0000
0000
0000
0000
0000
0000
0000
0000
ENDCHAR
STARTCHAR 0391
ENCODING 913
SWIDTH 720 0
DWIDTH 12 0
BBX 12 12 0 -2
BITMAP
0000
0200
0200
0700
0700
0980
0F80
1980
10C0
30C0
78E0
0000
ENDCHAR
STARTCHAR 0392
ENCODING 914
SWIDTH 720 0
DWIDTH 12 0
BBX 12 12 0 -2
BITMAP
0000
3F00
1880
18C0
18C0
1F80
1840
1860
1860
1840
3F80
0000
ENDCHAR
STARTCHAR 0393
ENCODING 915
SWIDTH 720 0
DWIDTH 12 0
BBX 12 12 0 -2
BITMAP
0000
1FC0
0C40
0C20
0C00
0C00
0C00
0C00
0C00
0C00
1E00
0000
ENDCHAR
STARTCHAR 0394
ENCODING 916
SWIDTH 720 0
DWIDTH 12 0
BBX 12 12 0 -2
BITMAP
0000
0200
0200
0700
0700
0980
0980
0980
10C0
10C0
3FE0
0000
ENDCHAR
STARTCHAR 0395
ENCODING 917
SWIDTH 720 0
DWIDTH 12 0
BBX 12 12 0 -2
BITMAP
0000
3FC0
1840
1820
1880
1F80
1880
1800
1820
1840
3FC0
0000
ENDCHAR
STARTCHAR 0396
ENCODING 918
SWIDTH 720 0
DWIDTH 12 0
BBX 12 12 0 -2
BITMAP
0000
1FC0
10C0
2180
0300
0300
0600
0C00
0820
1840
3FC0
0000
ENDCHAR
STARTCHAR 0397
ENCODING 919
SWIDTH 720 0
DWIDTH 12 0
BBX 12 12 0 -2
BITMAP
0000
38E0
18C0
18C0
18C0
1FC0
18C0
18C0
18C0
18C0
38E0
0000
ENDCHAR
STARTCHAR 0398
ENCODING 920
SWIDTH 720 0
DWIDTH 12 0
BBX 12 12 0 -2
BITMAP
0000
0700
0880
1040
3560
3760
3560
3560
1040
0880
0700
0000
ENDCHAR
STARTCHAR 0399
ENCODING 921
SWIDTH 720 0
DWIDTH 12 0
BBX 12 12 0 -2
BITMAP
0000
0F00
0600
0600
0600
0600
0600
0600
0600
0600
0F00
0000
ENDCHAR
STARTCHAR 039A
ENCODING 922
SWIDTH 720 0
DWIDTH 12 0
BBX 12 12 0 -2
BITMAP
0000
73C0
3100
3100
3200
3700
3700
3980
3180
30C0
71E0
0000
ENDCHAR
STARTCHAR 039B
ENCODING 923
SWIDTH 720 0
DWIDTH 12 0
BBX 12 12 0 -2
BITMAP
0000
0200
0200
0700
0700
0980
0980
0980
10C0
10C0
38E0
0000
ENDCHAR
STARTCHAR 039C
ENCODING 924
SWIDTH 720 0
DWIDTH 12 0
BBX 12 12 0 -2
BITMAP
0000
70E0
30C0
30C0
39C0
39C0
2AC0
2EC0
24C0
24C0
70E0
0000
ENDCHAR
STARTCHAR 039D
ENCODING 925
SWIDTH 720 0
DWIDTH 12 0
BBX 12 12 0 -2
BITMAP
0000
30E0
1840
1C40
1E40
1640
1340
1340
11C0
10C0
3840
0000
ENDCHAR
STARTCHAR 039E
ENCODING 926
SWIDTH 720 0
DWIDTH 12 0
BBX 12 12 0 -2
BITMAP
0000
1FE0
1FC0
2040
0000
0F80
0F80
0000
1020
1FC0
3FC0
0000
ENDCHAR
STARTCHAR 039F
ENCODING 927
SWIDTH 720 0
DWIDTH 12 0
BBX 12 12 0 -2
BITMAP
0000
0700
0880
18C0
3060
3060
3060
3060
18C0
0880
0700
0000
ENDCHAR
STARTCHAR 03A0
ENCODING 928
SWIDTH 720 0
DWIDTH 12 0
BBX 12 12 0 -2
BITMAP
0000
3FE0
18C0
18C0
18C0
18C0
18C0
18C0
18C0
18C0
3DE0
0000
ENDCHAR
STARTCHAR 03A1
ENCODING 929
SWIDTH 720 0
DWIDTH 12 0
BBX 12 12 0 -2
BITMAP
0000
3F80
18C0
1860
1860
18C0
1F80
1800
1800
1800
3C00
0000
ENDCHAR
STARTCHAR 03A3
ENCODING 931
SWIDTH 720 0
DWIDTH 12 0
BBX 12 12 0 -2
BITMAP
0000
3FC0
1840
0C20
0600
0300
0300
0600
0C20
1840
3FC0
0000
ENDCHAR
STARTCHAR 03A4
ENCODING 932
SWIDTH 720 0
DWIDTH 12 0
BBX 12 12 0 -2
BITMAP
0000
3FC0
2640
4620
0600
0600
0600
0600
0600
0600
0F00
0000
ENDCHAR
STARTCHAR 03A5
ENCODING 933
SWIDTH 720 0
DWIDTH 12 0
BBX 12 12 0 -2
BITMAP
0000
1980
3FC0
2640
4620
0600
0600
0600
0600
0600
0F00
0000
ENDCHAR
STARTCHAR 03A6
ENCODING 934
SWIDTH 720 0
DWIDTH 12 0
BBX 12 12 0 -2
BITMAP
0000
1F80
0600
1F80
2640
6660
6660
2640
1F80
0600
1F80
0000
ENDCHAR
STARTCHAR 03A7
ENCODING 935
SWIDTH 720 0
DWIDTH 12 0
BBX 12 12 0 -2
BITMAP
0000
38E0
1840
0C80
0F00
0700
0700
0580
0980
10C0
38E0
0000
ENDCHAR
STARTCHAR 03A8
ENCODING 936
SWIDTH 720 0
DWIDTH 12 0
BBX 12 12 0 -2
BITMAP
0000
1F80
0600
6660
36C0
36C0
36C0
1680
0F00
0600
1F80
0000
ENDCHAR
STARTCHAR 03A9
ENCODING 937
SWIDTH 720 0
DWIDTH 12 0
BBX 12 12 0 -2
BITMAP
0000
0700
0880
18C0
3060
3060
3060
18C0
0880
2520
3DE0
0000
ENDCHAR
STARTCHAR 03B1
ENCODING 945
SWIDTH 720 0
DWIDTH 12 0
BBX 12 12 0 -2
BITMAP
0000
0000
0000
0000
0000
0740
08C0
1080
1100
1340
0C80
0000
ENDCHAR
STARTCHAR 03B2
ENCODING 946
SWIDTH 720 0
DWIDTH 12 0
BBX 12 12 0 -2
BITMAP
0000
0180
0240
0440
0440
0B80
0880
0840
1840
1440
1380
2000
ENDCHAR
STARTCHAR 03B3
ENCODING 947
SWIDTH 720 0
DWIDTH 12 0
BBX 12 12 0 -2
BITMAP
0000
0000
0000
0000
0000
1CC0
2300
0200
0600
0600
0400
0000
ENDCHAR
STARTCHAR 03B4
ENCODING 948
SWIDTH 720 0
DWIDTH 12 0
BBX 12 12 0 -2
BITMAP
0000
0700
0880
0440
0240
0700
0880
1080
1080
1100
0E00
0000
ENDCHAR
STARTCHAR 03B5
ENCODING 949
SWIDTH 720 0
DWIDTH 12 0
BBX 12 12 0 -2
BITMAP
0000
0000
0000
0000
0000
0700
0880
0600
1800
1080
0F00
0000
ENDCHAR
STARTCHAR 03B6
ENCODING 950
SWIDTH 720 0
DWIDTH 12 0
BBX 12 12 0 -2
BITMAP
0000
08C0
0980
0700
0400
0800
1000
1000
0E00
0100
0100
0600
ENDCHAR
STARTCHAR 03B7
ENCODING 951
SWIDTH 720 0
DWIDTH 12 0
BBX 12 12 0 -2
BITMAP
0000
0000
0000
0000
0000
0980
1640
0440
0840
0880
0880
0080
ENDCHAR
STARTCHAR 03B8
ENCODING 952
SWIDTH 720 0
DWIDTH 12 0
BBX 12 12 0 -2
BITMAP
0000
0180
0240
0440
0840
0FC0
1080
1080
1100
1200
0C00
0000
ENDCHAR
STARTCHAR 03B9
ENCODING 953
SWIDTH 720 0
DWIDTH 12 0
BBX 12 12 0 -2
BITMAP
0000
0000
0000
0000
0000
0400
0800
0800
1000
1300
0C00
0000
ENDCHAR
STARTCHAR 03BA
ENCODING 954
SWIDTH 720 0
DWIDTH 12 0
BBX 12 12 0 -2
BITMAP
0000
0000
0000
0000
0000
0980
0A40
0C00
1200
1240
2180
0000
ENDCHAR
STARTCHAR 03BB
ENCODING 955
SWIDTH 720 0
DWIDTH 12 0
BBX 12 12 0 -2
BITMAP
0000
0600
0100
0100
0100
0300
0500
0500
0900
1080
1040
0000
ENDCHAR
STARTCHAR 03BC
ENCODING 956
SWIDTH 720 0
DWIDTH 12 0
BBX 12 12 0 -2
BITMAP
0000
0000
0000
0000
0000
0880
0880
0900
1100
1340
2C80
2000
ENDCHAR
STARTCHAR 03BD
ENCODING 957
SWIDTH 720 0
DWIDTH 12 0
BBX 12 12 0 -2
BITMAP
0000
0000
0000
0000
0000
1040
0840
0880
0900
1E00
1000
0000
ENDCHAR
STARTCHAR 03BE
ENCODING 958
SWIDTH 720 0
DWIDTH 12 0
BBX 12 12 0 -2
BITMAP
0000
0600
0C00
0780
0800
0C00
1380
1000
0800
0600
0100
0E00
ENDCHAR
STARTCHAR 03BF
ENCODING 959
SWIDTH 720 0
DWIDTH 12 0
BBX 12 12 0 -2
BITMAP
0000
0000
0000
0000
0000
0700
0880
1080
1080
1100
0E00
0000
ENDCHAR
STARTCHAR 03C0
ENCODING 960
SWIDTH 720 0
DWIDTH 12 0
BBX 12 12 0 -2
BITMAP
0000
0000
0000
0000
0C40
1780
2500
0900
0900
1100
20C0
0000
ENDCHAR
STARTCHAR 03C1
ENCODING 961
SWIDTH 720 0
DWIDTH 12 0
BBX 12 12 0 -2
BITMAP
0000
0000
0000
0000
0000
0380
0440
0840
0840
1480
1300
1000
ENDCHAR
STARTCHAR 03C2
ENCODING 962
SWIDTH 720 0
DWIDTH 12 0
BBX 12 12 0 -2
BITMAP
0000
0000
0000
0000
0780
0840
1040
1040
0880
0400
1200
0C00
ENDCHAR
STARTCHAR 03C3
ENCODING 963
SWIDTH 720 0
DWIDTH 12 0
BBX 12 12 0 -2
BITMAP
0000
0000
0000
0000
01C0
0700
0880
1080
1080
1100
0E00
0000
ENDCHAR
STARTCHAR 03C4
ENCODING 964
SWIDTH 720 0
DWIDTH 12 0
BBX 12 12 0 -2
BITMAP
0000
0000
0000
0000
0C40
1380
2400
0400
0800
0980
0600
0000
ENDCHAR
STARTCHAR 03C5
ENCODING 965
SWIDTH 720 0
DWIDTH 12 0
BBX 12 12 0 -2
BITMAP
0000
0000
0000
0000
0000
0880
0840
0840
1080
1100
0E00
0000
ENDCHAR
STARTCHAR 03C6
ENCODING 966
SWIDTH 720 0
DWIDTH 12 0
BBX 12 12 0 -2
BITMAP
0000
0000
0000
0100
0100
0780
0A40
1240
1280
0F00
0400
0400
ENDCHAR
STARTCHAR 03C7
ENCODING 967
SWIDTH 720 0
DWIDTH 12 0
BBX 12 12 0 -2
BITMAP
0000
0000
0000
0000
0000
0C40
1280
0300
0600
0A00
1200
2180
ENDCHAR
STARTCHAR 03C8
ENCODING 968
SWIDTH 720 0
DWIDTH 12 0
BBX 12 12 0 -2
BITMAP
0000
0000
0080
0080
0100
3980
0940
1240
1280
0F00
0400
0400
ENDCHAR
STARTCHAR 03C9
ENCODING 969
SWIDTH 720 0
DWIDTH 12 0
BBX 12 12 0 -2
BITMAP
0000
0000
0000
0000
0000
0840
1220
1220
2220
2640
1980
0000
ENDCHAR
STARTCHAR 0401
ENCODING 1025
SWIDTH 720 0
DWIDTH 12 0
BBX 12 12 0 -2
BITMAP
0000
1980
1980
3FC0
1820
1880
1F80
1880
1820
1840
3FC0
0000
ENDCHAR
STARTCHAR 0410
ENCODING 1040
SWIDTH 720 0
DWIDTH 12 0
BBX 12 12 0 -2
BITMAP
0000
0200
0200
0700
0700
0980
0F80
1980
10C0
30C0
78E0
0000
ENDCHAR
STARTCHAR 0411
ENCODING 1041
SWIDTH 720 0
DWIDTH 12 0
BBX 12 12 0 -2
BITMAP
0000
3FC0
1840
1820
1800
1F80
1840
1860
1860
1840
3F80
0000
ENDCHAR
STARTCHAR 0412
ENCODING 1042
SWIDTH 720 0
DWIDTH 12 0
BBX 12 12 0 -2
BITMAP
0000
3F00
1880
18C0
18C0
1F80
1840
1860
1860
1840
3F80
0000
ENDCHAR
STARTCHAR 0413
ENCODING 1043
SWIDTH 720 0
DWIDTH 12 0
BBX 12 12 0 -2
BITMAP
0000
1FC0
0C40
0C20
0C00
0C00
0C00
0C00
0C00
0C00
1E00
0000
ENDCHAR
STARTCHAR 0414
ENCODING 1044
SWIDTH 720 0
DWIDTH 12 0
BBX 12 12 0 -2
BITMAP
0000
0FE0
04C0
04C0
04C0
04C0
04C0
08C0
08C0
10C0
3FE0
2020
ENDCHAR
STARTCHAR 0415
ENCODING 1045
SWIDTH 720 0
DWIDTH 12 0
BBX 12 12 0 -2
BITMAP
0000
3FC0
1840
1820
1880
1F80
1880
1800
1820
1840
3FC0
0000
ENDCHAR
STARTCHAR 0416
ENCODING 1046
SWIDTH 720 0
DWIDTH 12 0
BBX 12 12 0 -2
BITMAP
0000
6660
2640
2640
1680
0F00
0F00
1680
2640
2640
76E0
0000
ENDCHAR
STARTCHAR 0417
ENCODING 1047
SWIDTH 720 0
DWIDTH 12 0
BBX 12 12 0 -2
BITMAP
0000
0700
1980
10C0
0080
0700
0080
00C0
20C0
1180
0E00
0000
ENDCHAR
STARTCHAR 0418
ENCODING 1048
SWIDTH 720 0
DWIDTH 12 0
BBX 12 12 0 -2
BITMAP
0000
38E0
18C0
19C0
19C0
1AC0
1AC0
1CC0
1CC0
18C0
38E0
0000
ENDCHAR
STARTCHAR 0419
ENCODING 1049
SWIDTH 720 0
DWIDTH 12 0
BBX 12 12 0 -2
BITMAP
0000
0D80
0D80
38E0
18C0
19C0
1AC0
1AC0
1CC0
18C0
38E0
0000
ENDCHAR
STARTCHAR 041A
ENCODING 1050
SWIDTH 720 0
DWIDTH 12 0
BBX 12 12 0 -2
BITMAP
0000
70C0
3160
3160
3200
3700
3700
3980
3180
30C0
71E0
0000
ENDCHAR
STARTCHAR 041B
ENCODING 1051
SWIDTH 720 0
DWIDTH 12 0
BBX 12 12 0 -2
BITMAP
0000
0FE0
04C0
04C0
04C0
04C0
04C0
04C0
68C0
68C0
30E0
0000
ENDCHAR
STARTCHAR 041C
ENCODING 1052
SWIDTH 720 0
DWIDTH 12 0
BBX 12 12 0 -2
BITMAP
0000
39C0
1980
1980
1D80
1F80
1680
36C0
32C0
30C0
70E0
0000
ENDCHAR
STARTCHAR 041D
ENCODING 1053
SWIDTH 720 0
DWIDTH 12 0
BBX 12 12 0 -2
BITMAP
0000
38E0
18C0
18C0
18C0
1FC0
18C0
18C0
18C0
18C0
38E0
0000
ENDCHAR
STARTCHAR 041E
ENCODING 1054
SWIDTH 720 0
DWIDTH 12 0
BBX 12 12 0 -2
BITMAP
0000
0700
0880
18C0
3060
3060
3060
3060
18C0
0880
0700
0000
ENDCHAR
STARTCHAR 041F
ENCODING 1055
SWIDTH 720 0
DWIDTH 12 0
BBX 12 12 0 -2
BITMAP
0000
3FE0
18C0
18C0
18C0
18C0
18C0
18C0
18C0
18C0
3DE0
0000
ENDCHAR
STARTCHAR 0420
ENCODING 1056
SWIDTH 720 0
DWIDTH 12 0
BBX 12 12 0 -2
BITMAP
0000
3F80
18C0
1860
1860
18C0
1F80
1800
1800
1800
3C00
0000
ENDCHAR
STARTCHAR 0421
ENCODING 1057
SWIDTH 720 0
DWIDTH 12 0
BBX 12 12 0 -2
BITMAP
0000
0740
08C0
1840
3040
3000
3000
3000
1840
08C0
0700
0000
ENDCHAR
STARTCHAR 0422
ENCODING 1058
SWIDTH 720 0
DWIDTH 12 0
BBX 12 12 0 -2
BITMAP
0000
3FC0
2640
4620
0600
0600
0600
0600
0600
0600
0F00
0000
ENDCHAR
STARTCHAR 0423
ENCODING 1059
SWIDTH 720 0
DWIDTH 12 0
BBX 12 12 0 -2
BITMAP
0000
38E0
1840
1C40
0C80
0680
0680
0300
0100
0200
1A00
1C00
ENDCHAR
STARTCHAR 0424
ENCODING 1060
SWIDTH 720 0
DWIDTH 12 0
BBX 12 12 0 -2
BITMAP
0000
1F80
0600
1F80
2640
6660
6660
2640
1F80
0600
1F80
0000
ENDCHAR
STARTCHAR 0425
ENCODING 1061
SWIDTH 720 0
DWIDTH 12 0
BBX 12 12 0 -2
BITMAP
0000
38E0
1840
0C80
0F00
0700
0700
0580
0980
10C0
38E0
0000
ENDCHAR
STARTCHAR 0426
ENCODING 1062
SWIDTH 720 0
DWIDTH 12 0
BBX 12 12 0 -2
BITMAP
0000
39E0
18C0
18C0
18C0
18C0
18C0
18C0
18C0
18C0
3FE0
0020
ENDCHAR
STARTCHAR 0427
ENCODING 1063
SWIDTH 720 0
DWIDTH 12 0
BBX 12 12 0 -2
BITMAP
0000
38E0
18C0
18C0
18C0
18C0
0FC0
00C0
00C0
00C0
01E0
0000
ENDCHAR
STARTCHAR 0428
ENCODING 1064
SWIDTH 720 0
DWIDTH 12 0
BBX 12 12 0 -2
BITMAP
0000
76E0
36C0
36C0
36C0
36C0
36C0
36C0
36C0
36C0
7FE0
0000
ENDCHAR
STARTCHAR 0429
ENCODING 1065
SWIDTH 720 0
DWIDTH 12 0
BBX 12 12 0 -2
BITMAP
0000
76E0
36C0
36C0
36C0
36C0
36C0
36C0
36C0
36C0
7FE0
0020
ENDCHAR
STARTCHAR 042A
ENCODING 1066
SWIDTH 720 0
DWIDTH 12 0
BBX 12 12 0 -2
BITMAP
0000
3E00
2C00
4C00
0C00
0FC0
0C60
0C60
0C60
0C60
1FC0
0000
ENDCHAR
STARTCHAR 042B
ENCODING 1067
SWIDTH 720 0
DWIDTH 12 0
BBX 12 12 0 -2
BITMAP
0000
70E0
30C0
30C0
30C0
3EC0
33C0
33C0
33C0
33C0
7EE0
0000
ENDCHAR
STARTCHAR 042C
ENCODING 1068
SWIDTH 720 0
DWIDTH 12 0
BBX 12 12 0 -2
BITMAP
0000
3C00
1800
1800
1800
1F80
18C0
18C0
18C0
18C0
3F80
0000
ENDCHAR
STARTCHAR 042D
ENCODING 1069
SWIDTH 720 0
DWIDTH 12 0
BBX 12 12 0 -2
BITMAP
0000
0700
1880
10C0
0060
0660
09E0
0060
10C0
1880
0700
0000
ENDCHAR
STARTCHAR 042E
ENCODING 1070
SWIDTH 720 0
DWIDTH 12 0
BBX 12 12 0 -2
BITMAP
0000
7180
3240
3660
3660
3660
3E60
3660
3660
3240
7180
0000
ENDCHAR
STARTCHAR 042F
ENCODING 1071
SWIDTH 720 0
DWIDTH 12 0
BBX 12 12 0 -2
BITMAP
0000
0FE0
18C0
30C0
30C0
18C0
0FC0
0CC0
08C0
18C0
21E0
0000
ENDCHAR
STARTCHAR 0430
ENCODING 1072
SWIDTH 720 0
DWIDTH 12 0
BBX 12 12 0 -2
BITMAP
0000
0000
0000
0000
0000
0F80
00C0
0FC0
18C0
18C0
0F40
0000
ENDCHAR
STARTCHAR 0431
ENCODING 1073
SWIDTH 720 0
DWIDTH 12 0
BBX 12 12 0 -2
BITMAP
0000
0080
0700
0800
0800
1F00
1880
18C0
18C0
0880
0700
0000
ENDCHAR
STARTCHAR 0432
ENCODING 1074
SWIDTH 720 0
DWIDTH 12 0
BBX 12 12 0 -2
BITMAP
0000
0000
0000
0000
0000
1F80
0CC0
0F80
0CC0
0CC0
1F80
0000
ENDCHAR
STARTCHAR 0433
ENCODING 1075
SWIDTH 720 0
DWIDTH 12 0
BBX 12 12 0 -2
BITMAP
0000
0000
0000
0000
0000
1F80
0C40
0C00
0C00
0C00
1E00
0000
ENDCHAR
STARTCHAR 0434
ENCODING 1076
SWIDTH 720 0
DWIDTH 12 0
BBX 12 12 0 -2
BITMAP
0000
0000
0000
0000
0000
0FC0
0580
0580
0580
0980
1F80
1040
ENDCHAR
STARTCHAR 0435
ENCODING 1077
SWIDTH 720 0
DWIDTH 12 0
BBX 12 12 0 -2
BITMAP
0000
0000
0000
0000
0000
0700
0880
1FC0
1800
0880
0700
0000
ENDCHAR
STARTCHAR 0436
ENCODING 1078
SWIDTH 720 0
DWIDTH 12 0
BBX 12 12 0 -2
BITMAP
0000
0000
0000
0000
0000
36C0
1680
0F00
1F80
1680
36C0
0000
ENDCHAR
STARTCHAR 0437
ENCODING 1079
SWIDTH 720 0
DWIDTH 12 0
BBX 12 12 0 -2
BITMAP
0000
0000
0000
0000
0000
0F80
10C0
0780
00C0
10C0
0F80
0000
ENDCHAR
STARTCHAR 0438
ENCODING 1080
SWIDTH 720 0
DWIDTH 12 0
BBX 12 12 0 -2
BITMAP
0000
0000
0000
0000
0000
38E0
19C0
1AC0
1AC0
1CC0
38E0
0000
ENDCHAR
STARTCHAR 0439
ENCODING 1081
SWIDTH 720 0
DWIDTH 12 0
BBX 12 12 0 -2
BITMAP
0000
0000
0D80
0700
0000
38E0
19C0
1AC0
1AC0
1CC0
38E0
0000
ENDCHAR
STARTCHAR 043A
ENCODING 1082
SWIDTH 720 0
DWIDTH 12 0
BBX 12 12 0 -2
BITMAP
0000
0000
0000
0000
0000
1CC0
0DC0
0E00
0D00
0D80
1DC0
0000
ENDCHAR
STARTCHAR 043B
ENCODING 1083
SWIDTH 720 0
DWIDTH 12 0
BBX 12 12 0 -2
BITMAP
0000
0000
0000
0000
0000
0FC0
0580
0580
0580
1980
19C0
0000
ENDCHAR
STARTCHAR 043C
ENCODING 1084
SWIDTH 720 0
DWIDTH 12 0
BBX 12 12 0 -2
BITMAP
0000
0000
0000
0000
0000
38E0
19C0
1DC0
16C0
12C0
38E0
0000
ENDCHAR
STARTCHAR 043D
ENCODING 1085
SWIDTH 720 0
DWIDTH 12 0
BBX 12 12 0 -2
BITMAP
0000
0000
0000
0000
0000
38E0
18C0
1FC0
18C0
18C0
38E0
0000
ENDCHAR
STARTCHAR 043E
ENCODING 1086
SWIDTH 720 0
DWIDTH 12 0
BBX 12 12 0 -2
BITMAP
0000
0000
0000
0000
0000
0700
0880
18C0
18C0
0880
0700
0000
ENDCHAR
STARTCHAR 043F
ENCODING 1087
SWIDTH 720 0
DWIDTH 12 0
BBX 12 12 0 -2
BITMAP
0000
0000
0000
0000
0000
3FC0
1980
1980
1980
1980
39C0
0000
ENDCHAR
STARTCHAR 0440
ENCODING 1088
SWIDTH 720 0
DWIDTH 12 0
BBX 12 12 0 -2
BITMAP
0000
0000
0000
0000
0000
1B80
0CC0
0CC0
0CC0
0F80
0C00
1E00
ENDCHAR
STARTCHAR 0441
ENCODING 1089
SWIDTH 720 0
DWIDTH 12 0
BBX 12 12 0 -2
BITMAP
0000
0000
0000
0000
0000
0780
0880
1800
1800
0880
0700
0000
ENDCHAR
STARTCHAR 0442
ENCODING 1090
SWIDTH 720 0
DWIDTH 12 0
BBX 12 12 0 -2
BITMAP
0000
0000
0000
0000
0000
1F80
1680
2640
0600
0600
0F00
0000
ENDCHAR
STARTCHAR 0443
ENCODING 1091
SWIDTH 720 0
DWIDTH 12 0
BBX 12 12 0 -2
BITMAP
0000
0000
0000
0000
0000
3DC0
1880
0C80
0700
0300
1A00
1C00
ENDCHAR
STARTCHAR 0444
ENCODING 1092
SWIDTH 720 0
DWIDTH 12 0
BBX 12 12 0 -2
BITMAP
0000
0200
0600
0600
1680
2F40
6660
6660
2F40
1680
0600
0F00
ENDCHAR
STARTCHAR 0445
ENCODING 1093
SWIDTH 720 0
DWIDTH 12 0
BBX 12 12 0 -2
BITMAP
0000
0000
0000
0000
0000
39C0
1C80
0F00
0F00
1380
39C0
0000
ENDCHAR
STARTCHAR 0446
ENCODING 1094
SWIDTH 720 0
DWIDTH 12 0
BBX 12 12 0 -2
BITMAP
0000
0000
0000
0000
0000
39C0
1980
1980
1980
1980
1FC0
0040
ENDCHAR
STARTCHAR 0447
ENCODING 1095
SWIDTH 720 0
DWIDTH 12 0
BBX 12 12 0 -2
BITMAP
0000
0000
0000
0000
0000
39C0
1980
1980
0F80
0180
03C0
0000
ENDCHAR
STARTCHAR 0448
ENCODING 1096
SWIDTH 720 0
DWIDTH 12 0
BBX 12 12 0 -2
BITMAP
0000
0000
0000
0000
0000
76E0
36C0
36C0
36C0
36C0
7FE0
0000
ENDCHAR
STARTCHAR 0449
ENCODING 1097
SWIDTH 720 0
DWIDTH 12 0
BBX 12 12 0 -2
BITMAP
0000
0000
0000
0000
0000
76E0
36C0
36C0
36C0
36C0
7FE0
0020
ENDCHAR
STARTCHAR 044A
ENCODING 1098
SWIDTH 720 0
DWIDTH 12 0
BBX 12 12 0 -2
BITMAP
0000
0000
0000
0000
0000
3F00
2600
47C0
0660
0660
0FC0
0000
ENDCHAR
STARTCHAR 044B
ENCODING 1099
SWIDTH 720 0
DWIDTH 12 0
BBX 12 12 0 -2
BITMAP
0000
0000
0000
0000
0000
79E0
30C0
3CC0
36C0
36C0
7DE0
0000
ENDCHAR
STARTCHAR 044C
ENCODING 1100
SWIDTH 720 0
DWIDTH 12 0
BBX 12 12 0 -2
BITMAP
0000
0000
0000
0000
0000
3C00
1800
1F80
18C0
18C0
3F80
0000
ENDCHAR
STARTCHAR 044D
ENCODING 1101
SWIDTH 720 0
DWIDTH 12 0
BBX 12 12 0 -2
BITMAP
0000
0000
0000
0000
0000
1F00
2080
0DC0
16C0
2080
1F00
0000
ENDCHAR
STARTCHAR 044E
ENCODING 1102
SWIDTH 720 0
DWIDTH 12 0
BBX 12 12 0 -2
BITMAP
0000
0000
0000
0000
0000
7980
3240
3E60
3660
3240
7980
0000
ENDCHAR
STARTCHAR 044F
ENCODING 1103
SWIDTH 720 0
DWIDTH 12 0
BBX 12 12 0 -2
BITMAP
0000
0000
0000
0000
0000
0FC0
1980
1980
0F80
1980
21C0
0000
ENDCHAR
STARTCHAR 0451
ENCODING 1105
SWIDTH 720 0
DWIDTH 12 0
BBX 12 12 0 -2
BITMAP
0000
0000
0000
0D80
0D80
0700
0880
1FC0
1800
0880
0700
0000
ENDCHAR
STARTCHAR 1E3E
ENCODING 7742
SWIDTH 720 0
DWIDTH 12 0
BBX 12 12 0 -2
BITMAP
0000
0100
72E0
34C0
39C0
39C0
2AC0
2EC0
24C0
24C0
70E0
0000
ENDCHAR
STARTCHAR 1E3F
ENCODING 7743
SWIDTH 720 0
DWIDTH 12 0
BBX 12 12 0 -2
BITMAP
0000
0000
0100
0200
0400
36C0
1B60
1B60
1B60
1B60
3B70
0000
ENDCHAR
STARTCHAR 1F70
ENCODING 8048
SWIDTH 720 0
DWIDTH 12 0
BBX 12 12 0 -2
BITMAP
0000
0000
0400
0200
0100
0E80
1980
1980
1980
1980
0EC0
0000
ENDCHAR
STARTCHAR 1F71
ENCODING 8049
SWIDTH 720 0
DWIDTH 12 0
BBX 12 12 0 -2
BITMAP
0000
0000
0100
0200
0400
0E80
1980
1980
1980
1980
0EC0
0000
ENDCHAR
STARTCHAR 1F72
ENCODING 8050
SWIDTH 720 0
DWIDTH 12 0
BBX 12 12 0 -2
BITMAP
0000
0000
0400
0200
0100
0F80
1840
0F00
1800
1840
0780
0000
ENDCHAR
STARTCHAR 1F73
ENCODING 8051
SWIDTH 720 0
DWIDTH 12 0
BBX 12 12 0 -2
BITMAP
0000
0000
0100
0200
0400
0F80
1840
0F00
1800
1840
0780
0000
ENDCHAR
STARTCHAR 2000
ENCODING 8192
SWIDTH 720 0
DWIDTH 12 0
BBX 12 12 0 -2
BITMAP
0000
0000
0000
0000
0000
0000
0000
0000
0000
0000
0000
0000
ENDCHAR
STARTCHAR 2001
ENCODING 8193
SWIDTH 720 0
DWIDTH 12 0
BBX 12 12 0 -2
BITMAP
0000
0000
0000
0000
0000
0000
0000
0000
0000
0000
0000
0000
ENDCHAR
STARTCHAR 2002
ENCODING 8194
SWIDTH 720 0
DWIDTH 12 0
BBX 12 12 0 -2
BITMAP
0000
0000
0000
0000
0000
0000
0000
0000
0000
0000
0000
0000
ENDCHAR
STARTCHAR 2003
ENCODING 8195
SWIDTH 720 0
DWIDTH 12 0
BBX 12 12 0 -2
BITMAP
0000
0000
0000
0000
0000
0000
0000
0000
0000
0000
0000
0000
ENDCHAR
STARTCHAR 2004
ENCODING 8196
SWIDTH 720 0
DWIDTH 12 0
BBX 12 12 0 -2
BITMAP
0000
0000
0000
0000
0000
0000
0000
0000
0000
0000
0000
0000
ENDCHAR
STARTCHAR 2005
ENCODING 8197
SWIDTH 720 0
DWIDTH 12 0
BBX 12 12 0 -2
BITMAP
0000
0000
0000
0000
0000
0000
0000
0000
0000
0000
0000
0000
ENDCHAR
STARTCHAR 2006
ENCODING 8198
SWIDTH 720 0
DWIDTH 12 0
BBX 12 12 0 -2
BITMAP
0000
0000
0000
0000
0000
0000
0000
0000
0000
0000
0000
0000
ENDCHAR
STARTCHAR 2007
ENCODING 8199
SWIDTH 720 0
DWIDTH 12 0
BBX 12 12 0 -2
BITMAP
0000
0000
0000
0000
0000
0000
0000
0000
0000
0000
0000
0000
ENDCHAR
STARTCHAR 2008
ENCODING 8200
SWIDTH 720 0
DWIDTH 12 0
BBX 12 12 0 -2
BITMAP
0000
0000
0000
0000
0000
0000
0000
0000
0000
0000
0000
0000
ENDCHAR
STARTCHAR 2009
ENCODING 8201
SWIDTH 720 0
DWIDTH 12 0
BBX 12 12 0 -2
BITMAP
0000
0000
0000
0000
0000
0000
0000
0000
0000
0000
0000
0000
ENDCHAR
STARTCHAR 200A
ENCODING 8202
SWIDTH 720 0
DWIDTH 12 0
BBX 12 12 0 -2
BITMAP
0000
0000
0000
0000
0000
0000
0000
0000
0000
0000
0000
0000
ENDCHAR
STARTCHAR 200B
ENCODING 8203
SWIDTH 360 0
DWIDTH 6 0
BBX 1 1 0 0
BITMAP
00
ENDCHAR
STARTCHAR 200C
ENCODING 8204
SWIDTH 360 0
DWIDTH 6 0
BBX 1 1 0 0
BITMAP
00
ENDCHAR
STARTCHAR 200D
ENCODING 8205
SWIDTH 360 0
DWIDTH 6 0
BBX 1 1 0 0
BITMAP
00
ENDCHAR
STARTCHAR 200E
ENCODING 8206
SWIDTH 360 0
DWIDTH 6 0
BBX 1 1 0 0
BITMAP
00
ENDCHAR
STARTCHAR 200F
ENCODING 8207
SWIDTH 360 0
DWIDTH 6 0
BBX 1 1 0 0
BITMAP
00
ENDCHAR
STARTCHAR 2010
ENCODING 8208
SWIDTH 720 0
DWIDTH 12 0
BBX 12 12 0 -2
BITMAP
0000
0000
0000
0000
0000
0000
0F80
0000
0000
0000
0000
0000
ENDCHAR
STARTCHAR 2013
ENCODING 8211
SWIDTH 720 0
DWIDTH 12 0
BBX 12 12 0 -2
BITMAP
0000
0000
0000
0000
0000
0000
0F80
0000
0000
0000
0000
0000
ENDCHAR
STARTCHAR 2014
ENCODING 8212
SWIDTH 720 0
DWIDTH 12 0
BBX 12 12 0 -2
BITMAP
0000
0000
0000
0000
0000
0000
7FF0
0000
0000
0000
0000
0000
ENDCHAR
STARTCHAR 2015
ENCODING 8213
SWIDTH 720 0
DWIDTH 12 0
BBX 12 12 0 -2
BITMAP
0000
0000
0000
0000
0000
0000
7FF0
0000
0000
0000
0000
0000
ENDCHAR
STARTCHAR 2016
ENCODING 8214
SWIDTH 720 0
DWIDTH 12 0
BBX 12 12 0 -2
BITMAP
0000
0900
0900
0900
0900
0900
0900
0900
0900
0900
0900
0900
ENDCHAR
STARTCHAR 2018
ENCODING 8216
SWIDTH 720 0
DWIDTH 12 0
BBX 12 12 0 -2
BITMAP
0000
0040
0080
00C0
00C0
0000
0000
0000
0000
0000
0000
0000
ENDCHAR
STARTCHAR 2019
ENCODING 8217
SWIDTH 720 0
DWIDTH 12 0
BBX 12 12 0 -2
BITMAP
0000
1800
1800
0800
1000
0000
0000
0000
0000
0000
0000
0000
ENDCHAR
STARTCHAR 201C
ENCODING 8220
SWIDTH 720 0
DWIDTH 12 0
BBX 12 12 0 -2
BITMAP
0000
0120
0240
0360
0360
0000
0000
0000
0000
0000
0000
0000
ENDCHAR
STARTCHAR 201D
ENCODING 8221
SWIDTH 720 0
DWIDTH 12 0
BBX 12 12 0 -2
BITMAP
0000
3600
3600
1200
2400
0000
0000
0000
0000
0000
0000
0000
ENDCHAR
STARTCHAR 2020
ENCODING 8224
SWIDTH 720 0
DWIDTH 12 0
BBX 12 12 0 -2
BITMAP
0200
0700
0A80
1FC0
0A80
0200
0700
0700
0200
0200
0200
0200
ENDCHAR
STARTCHAR 2021
ENCODING 8225
SWIDTH 720 0
DWIDTH 12 0
BBX 12 12 0 -2
BITMAP
0000
0200
0A80
1FC0
0A80
0200
0200
0200
0A80
1FC0
0A80
0200
ENDCHAR
STARTCHAR 2022
ENCODING 8226
SWIDTH 720 0
DWIDTH 12 0
BBX 12 12 0 -2
BITMAP
0000
0000
0000
0700
0F80
0F80
0F80
0700
0000
0000
0000
0000
ENDCHAR
STARTCHAR 2025
ENCODING 8229
SWIDTH 720 0
DWIDTH 12 0
BBX 12 12 0 -2
BITMAP
0000
0000
0000
0000
0000
18C0
18C0
0000
0000
0000
0000
0000
ENDCHAR
STARTCHAR 2026
ENCODING 8230
SWIDTH 720 0
DWIDTH 12 0
BBX 12 12 0 -2
BITMAP
0000
0000
0000
0000
0000
6660
6660
0000
0000
0000
0000
0000
ENDCHAR
STARTCHAR 2030
ENCODING 8240
SWIDTH 720 0
DWIDTH 12 0
BBX 12 12 0 -2
BITMAP
0000
1100
2900
6A00
6A00
2C00
1E40
0DA0
15B0
15B0
25A0
2240
ENDCHAR
STARTCHAR 2032
ENCODING 8242
SWIDTH 720 0
DWIDTH 12 0
BBX 12 12 0 -2
BITMAP
0000
0000
1800
3000
2000
0000
0000
0000
0000
0000
0000
0000
ENDCHAR
STARTCHAR 2033
ENCODING 8243
SWIDTH 720 0
DWIDTH 12 0
BBX 12 12 0 -2
BITMAP
0000
1000
3600
6C00
0800
0000
0000
0000
0000
0000
0000
0000
ENDCHAR
STARTCHAR 203B
ENCODING 8251
SWIDTH 720 0
DWIDTH 12 0
BBX 12 12 0 -2
BITMAP
0000
0000
2220
1240
0880
0500
3260
0500
0880
1240
2220
0000
ENDCHAR
STARTCHAR 203C
ENCODING 8252
SWIDTH 720 0
DWIDTH 12 0
BBX 12 12 0 -2
BITMAP
0000
0900
0D80
0D80
0D80
0D00
0900
0900
0000
0D80
0D80
0000
ENDCHAR
STARTCHAR 203E
ENCODING 8254
SWIDTH 720 0
DWIDTH 12 0
BBX 12 12 0 -2
BITMAP
0000
7FF0
0000
0000
0000
0000
0000
0000
0000
0000
0000
0000
ENDCHAR
STARTCHAR 203F
ENCODING 8255
SWIDTH 720 0
DWIDTH 12 0
BBX 12 12 0 -2
BITMAP
0000
0000
0000
0000
0000
0000
0000
0000
0000
2020
1040
0F80
ENDCHAR
STARTCHAR 2042
ENCODING 8258
SWIDTH 720 0
DWIDTH 12 0
BBX 12 12 0 -2
BITMAP
0000
0200
0A80
0700
0700
0A80
1240
5550
38E0
38E0
5550
1040
ENDCHAR
STARTCHAR 2047
ENCODING 8263
SWIDTH 720 0
DWIDTH 12 0
BBX 12 12 0 -2
BITMAP
0000
18C0
2520
6730
6730
0C60
1080
1080
0000
1080
1080
0000
ENDCHAR
STARTCHAR 2048
ENCODING 8264
SWIDTH 720 0
DWIDTH 12 0
BBX 12 12 0 -2
BITMAP
0000
0C40
1260
3360
3360
0660
0840
0840
0000
0840
0840
0000
ENDCHAR
STARTCHAR 2049
ENCODING 8265
SWIDTH 720 0
DWIDTH 12 0
BBX 12 12 0 -2
BITMAP
0000
2180
3240
3660
3660
30C0
2100
2100
0000
2100
2100
0000
ENDCHAR
STARTCHAR 2051
ENCODING 8273
SWIDTH 720 0
DWIDTH 12 0
BBX 12 12 0 -2
BITMAP
0000
0200
0A80
0700
0700
0A80
0200
0A80
0700
0700
0A80
0200
ENDCHAR
STARTCHAR 20AC
ENCODING 8364
SWIDTH 720 0
DWIDTH 12 0
BBX 12 12 0 -2
BITMAP
0000
0700
08C0
1840
7F80
3000
7F00
3000
1840
08C0
0700
0000
ENDCHAR
STARTCHAR 2103
ENCODING 8451
SWIDTH 720 0
DWIDTH 12 0
BBX 12 12 0 -2
BITMAP
0000
2180
5650
5C30
2810
0800
0800
0800
0C10
0420
03C0
0000
ENDCHAR
STARTCHAR 210F
ENCODING 8463
SWIDTH 720 0
DWIDTH 12 0
BBX 12 12 0 -2
BITMAP
0000
1E00
0780
0600
1C00
0F80
0C40
08C0
1880
19A0
10C0
0000
ENDCHAR
STARTCHAR 2113
ENCODING 8467
SWIDTH 720 0
DWIDTH 12 0
BBX 12 12 0 -2
BITMAP
0000
0100
0280
0480
0480
0880
0900
0900
0A40
0480
1B00
0000
ENDCHAR
STARTCHAR 2116
ENCODING 8470
SWIDTH 720 0
DWIDTH 12 0
BBX 12 12 0 -2
BITMAP
0000
4400
6400
6400
5480
5540
5620
5620
4E20
4D70
44B0
0000
ENDCHAR
STARTCHAR 2121
ENCODING 8481
SWIDTH 720 0
DWIDTH 12 0
BBX 12 12 0 -2
BITMAP
0000
7740
6D40
2440
2440
2740
2440
2440
2440
2550
7770
0000
ENDCHAR
STARTCHAR 2127
ENCODING 8487
SWIDTH 720 0
DWIDTH 12 0
BBX 12 12 0 -2
BITMAP
0000
3DE0
2520
0880
18C0
3060
3060
3060
18C0
0880
0700
0000
ENDCHAR
STARTCHAR 212B
ENCODING 8491
SWIDTH 720 0
DWIDTH 12 0
BBX 12 12 0 -2
BITMAP
0000
0700
0500
0700
0200
0500
0500
0880
0F80
1040
38E0
0000
ENDCHAR
STARTCHAR 2135
ENCODING 8501
SWIDTH 720 0
DWIDTH 12 0
BBX 12 12 0 -2
BITMAP
0000
1100
1080
18C0
0CE0
0F80
1F00
1180
10C0
18C0
30C0
0000
ENDCHAR
STARTCHAR 2153
ENCODING 8531
SWIDTH 720 0
DWIDTH 12 0
BBX 12 12 0 -2
BITMAP
0000
0800
3800
0840
0880
0900
0200
05C0
0820
11C0
2020
01C0
ENDCHAR
STARTCHAR 2154
ENCODING 8532
SWIDTH 720 0
DWIDTH 12 0
BBX 12 12 0 -2
BITMAP
0000
3800
0400
1840
2080
3D00
0200
05C0
0820
11C0
2020
01C0
ENDCHAR
STARTCHAR 2155
ENCODING 8533
SWIDTH 720 0
DWIDTH 12 0
BBX 12 12 0 -2
BITMAP
0000
0800
3800
0840
0880
0900
0200
05E0
0900
11C0
2020
01C0
ENDCHAR
STARTCHAR 2160
ENCODING 8544
SWIDTH 720 0
DWIDTH 12 0
BBX 12 12 0 -2
BITMAP
0000
0F00
0600
0600
0600
0600
0600
0600
0600
0600
0F00
0000
ENDCHAR
STARTCHAR 2161
ENCODING 8545
SWIDTH 720 0
DWIDTH 12 0
BBX 12 12 0 -2
BITMAP
0000
3FC0
1980
1980
1980
1980
1980
1980
1980
1980
3FC0
0000
ENDCHAR
STARTCHAR 2162
ENCODING 8546
SWIDTH 720 0
DWIDTH 12 0
BBX 12 12 0 -2
BITMAP
0000
7FE0
36C0
36C0
36C0
36C0
36C0
36C0
36C0
36C0
7FE0
0000
ENDCHAR
STARTCHAR 2163
ENCODING 8547
SWIDTH 720 0
DWIDTH 12 0
BBX 12 12 0 -2
BITMAP
0000
7CE0
3C40
3E40
3640
3680
3380
3380
3300
3100
7900
0000
ENDCHAR
STARTCHAR 2164
ENCODING 8548
SWIDTH 720 0
DWIDTH 12 0
BBX 12 12 0 -2
BITMAP
0000
38E0
1840
1840
0C80
0C80
0C80
0700
0700
0200
0200
0000
ENDCHAR
STARTCHAR 2165
ENCODING 8549
SWIDTH 720 0
DWIDTH 12 0
BBX 12 12 0 -2
BITMAP
0000
73E0
31C0
39C0
19C0
1AC0
0EC0
0EC0
0CC0
04C0
05E0
0000
ENDCHAR
STARTCHAR 2166
ENCODING 8550
SWIDTH 720 0
DWIDTH 12 0
BBX 12 12 0 -2
BITMAP
0000
77E0
3340
3340
3340
1D40
1D40
1D40
0940
0940
0BE0
0000
ENDCHAR
STARTCHAR 2167
ENCODING 8551
SWIDTH 720 0
DWIDTH 12 0
BBX 12 12 0 -2
BITMAP
0000
6FF0
66A0
66A0
36A0
3AA0
3AA0
3AA0
12A0
12A0
13F0
0000
ENDCHAR
STARTCHAR 2168
ENCODING 8552
SWIDTH 720 0
DWIDTH 12 0
BBX 12 12 0 -2
BITMAP
0000
7E60
3640
3680
3380
3300
3380
3580
35C0
38C0
7CE0
0000
ENDCHAR
STARTCHAR 2169
ENCODING 8553
SWIDTH 720 0
DWIDTH 12 0
BBX 12 12 0 -2
BITMAP
0000
38E0
1840
0C80
0F00
0700
0700
0580
0980
10C0
38E0
0000
ENDCHAR
STARTCHAR 216A
ENCODING 8554
SWIDTH 720 0
DWIDTH 12 0
BBX 12 12 0 -2
BITMAP
0000
73E0
32C0
34C0
1CC0
18C0
1CC0
2CC0
2EC0
46C0
67E0
0000
ENDCHAR
STARTCHAR 216B
ENCODING 8555
SWIDTH 720 0
DWIDTH 12 0
BBX 12 12 0 -2
BITMAP
0000
73E0
3340
3540
1D40
1940
1D40
2D40
2F40
4740
67E0
0000
ENDCHAR
STARTCHAR 2170
ENCODING 8560
SWIDTH 720 0
DWIDTH 12 0
BBX 12 12 0 -2
BITMAP
0000
0000
0600
0600
0000
0E00
0600
0600
0600
0600
0F00
0000
ENDCHAR
STARTCHAR 2171
ENCODING 8561
SWIDTH 720 0
DWIDTH 12 0
BBX 12 12 0 -2
BITMAP
0000
0000
0D80
0D80
0000
1F80
0D80
0D80
0D80
0D80
1FC0
0000
ENDCHAR
STARTCHAR 2172
ENCODING 8562
SWIDTH 720 0
DWIDTH 12 0
BBX 12 12 0 -2
BITMAP
0000
0000
1AC0
1AC0
0000
3FE0
1AC0
1AC0
1AC0
1AC0
3FE0
0000
ENDCHAR
STARTCHAR 2173
ENCODING 8563
SWIDTH 720 0
DWIDTH 12 0
BBX 12 12 0 -2
BITMAP
0000
0000
1800
1800
0000
3FE0
1B40
1B40
19C0
1980
3C80
0000
ENDCHAR
STARTCHAR 2174
ENCODING 8564
SWIDTH 720 0
DWIDTH 12 0
BBX 12 12 0 -2
BITMAP
0000
0000
0000
0000
0000
39C0
1880
0D00
0F00
0600
0200
0000
ENDCHAR
STARTCHAR 2175
ENCODING 8565
SWIDTH 720 0
DWIDTH 12 0
BBX 12 12 0 -2
BITMAP
0000
0000
00C0
00C0
0000
3FC0
1AC0
1AC0
0EC0
0CC0
05E0
0000
ENDCHAR
STARTCHAR 2176
ENCODING 8566
SWIDTH 720 0
DWIDTH 12 0
BBX 12 12 0 -2
BITMAP
0000
0000
01A0
01A0
0000
7FE0
35A0
35A0
1DA0
19A0
0BE0
0000
ENDCHAR
STARTCHAR 2177
ENCODING 8567
SWIDTH 720 0
DWIDTH 12 0
BBX 12 12 0 -2
BITMAP
0000
0000
02A0
02A0
0000
7FF0
36A0
36A0
1AA0
1AA0
0BF0
0000
ENDCHAR
STARTCHAR 2178
ENCODING 8568
SWIDTH 720 0
DWIDTH 12 0
BBX 12 12 0 -2
BITMAP
0000
0000
1800
1800
0000
3FE0
1E80
1B00
1B80
1CC0
3EE0
0000
ENDCHAR
STARTCHAR 2179
ENCODING 8569
SWIDTH 720 0
DWIDTH 12 0
BBX 12 12 0 -2
BITMAP
0000
0000
0000
0000
0000
38E0
1CC0
0700
0780
18C0
38E0
0000
ENDCHAR
STARTCHAR 217A
ENCODING 8570
SWIDTH 720 0
DWIDTH 12 0
BBX 12 12 0 -2
BITMAP
0000
0000
00C0
00C0
0000
3FC0
1AC0
0CC0
0EC0
13C0
3BE0
0000
ENDCHAR
STARTCHAR 217B
ENCODING 8571
SWIDTH 720 0
DWIDTH 12 0
BBX 12 12 0 -2
BITMAP
0000
0000
00A0
00A0
0000
7FF0
34A0
18A0
1CA0
26A0
77F0
0000
ENDCHAR
STARTCHAR 2190
ENCODING 8592
SWIDTH 720 0
DWIDTH 12 0
BBX 12 12 0 -2
BITMAP
0000
0000
0000
0000
1000
2000
7FF0
2000
1000
0000
0000
0000
ENDCHAR
STARTCHAR 2191
ENCODING 8593
SWIDTH 720 0
DWIDTH 12 0
BBX 12 12 0 -2
BITMAP
0000
0200
0700
0A80
0200
0200
0200
0200
0200
0200
0200
0200
ENDCHAR
STARTCHAR 2192
ENCODING 8594
SWIDTH 720 0
DWIDTH 12 0
BBX 12 12 0 -2
BITMAP
0000
0000
0000
0000
0040
0020
7FF0
0020
0040
0000
0000
0000
ENDCHAR
STARTCHAR 2193
ENCODING 8595
SWIDTH 720 0
DWIDTH 12 0
BBX 12 12 0 -2
BITMAP
0000
0200
0200
0200
0200
0200
0200
0200
0200
0A80
0700
0200
ENDCHAR
STARTCHAR 2194
ENCODING 8596
SWIDTH 720 0
DWIDTH 12 0
BBX 12 12 0 -2
BITMAP
0000
0000
0000
0000
1040
2020
7FF0
2020
1040
0000
0000
0000
ENDCHAR
STARTCHAR 2196
ENCODING 8598
SWIDTH 720 0
DWIDTH 12 0
BBX 12 12 0 -2
BITMAP
0000
4000
3800
3000
2800
0400
0200
0100
0080
0040
0020
0000
ENDCHAR
STARTCHAR 2197
ENCODING 8599
SWIDTH 720 0
DWIDTH 12 0
BBX 12 12 0 -2
BITMAP
0000
0020
01C0
00C0
0140
0200
0400
0800
1000
2000
4000
0000
ENDCHAR
STARTCHAR 2198
ENCODING 8600
SWIDTH 720 0
DWIDTH 12 0
BBX 12 12 0 -2
BITMAP
0000
4000
2000
1000
0800
0400
0200
0140
00C0
01C0
0020
0000
ENDCHAR
STARTCHAR 2199
ENCODING 8601
SWIDTH 720 0
DWIDTH 12 0
BBX 12 12 0 -2
BITMAP
0000
0020
0040
0080
0100
0200
0400
2800
3000
3800
4000
0000
ENDCHAR
STARTCHAR 21C4
ENCODING 8644
SWIDTH 720 0
DWIDTH 12 0
BBX 12 12 0 -2
BITMAP
0000
0040
0020
7FF0
0020
0040
1000
2000
7FF0
2000
1000
0000
ENDCHAR
STARTCHAR 21D2
ENCODING 8658
SWIDTH 720 0
DWIDTH 12 0
BBX 12 12 0 -2
BITMAP
0000
0000
0100
0080
7FC0
0020
7FC0
0080
0100
0000
0000
0000
ENDCHAR
STARTCHAR 21D4
ENCODING 8660
SWIDTH 720 0
DWIDTH 12 0
BBX 12 12 0 -2
BITMAP
0000
0000
0900
1080
3FC0
4020
3FC0
1080
0900
0000
0000
0000
ENDCHAR
STARTCHAR 21E6
ENCODING 8678
SWIDTH 720 0
DWIDTH 12 0
BBX 12 12 0 -2
BITMAP
0000
0000
0800
1800
2FF0
4010
4010
2FF0
1800
0800
0000
0000
ENDCHAR
STARTCHAR 21E7
ENCODING 8679
SWIDTH 720 0
DWIDTH 12 0
BBX 12 12 0 -2
BITMAP
0000
0600
0900
1080
39C0
0900
0900
0900
0900
0900
0900
0F00
ENDCHAR
STARTCHAR 21E8
ENCODING 8680
SWIDTH 720 0
DWIDTH 12 0
BBX 12 12 0 -2
BITMAP
0000
0000
0080
00C0
7FA0
4010
4010
7FA0
00C0
0080
0000
0000
ENDCHAR
STARTCHAR 21E9
ENCODING 8681
SWIDTH 720 0
DWIDTH 12 0
BBX 12 12 0 -2
BITMAP
0000
0F00
0900
0900
0900
0900
0900
0900
39C0
1080
0900
0600
ENDCHAR
STARTCHAR 2200
ENCODING 8704
SWIDTH 720 0
DWIDTH 12 0
BBX 12 12 0 -2
BITMAP
0000
2020
2020
1FC0
1040
0880
0880
0500
0500
0200
0200
0000
ENDCHAR
STARTCHAR 2202
ENCODING 8706
SWIDTH 720 0
DWIDTH 12 0
BBX 12 12 0 -2
BITMAP
0000
0300
0480
0840
0040
0740
0C80
1880
1880
1900
0E00
0000
ENDCHAR
STARTCHAR 2203
ENCODING 8707
SWIDTH 720 0
DWIDTH 12 0
BBX 12 12 0 -2
BITMAP
0000
1F80
0080
0080
0080
1F80
0080
0080
0080
1F80
0000
0000
ENDCHAR
STARTCHAR 2205
ENCODING 8709
SWIDTH 720 0
DWIDTH 12 0
BBX 12 12 0 -2
BITMAP
0000
0000
0020
0740
0880
1140
1240
1440
0880
1700
2000
0000
ENDCHAR
STARTCHAR 2207
ENCODING 8711
SWIDTH 720 0
DWIDTH 12 0
BBX 12 12 0 -2
BITMAP
0000
3FE0
3FE0
3020
1840
1840
0C80
0C80
0700
0700
0200
0000
ENDCHAR
STARTCHAR 2208
ENCODING 8712
SWIDTH 720 0
DWIDTH 12 0
BBX 12 12 0 -2
BITMAP
0000
0000
0000
0FC0
1000
1000
1FC0
1000
1000
0FC0
0000
0000
ENDCHAR
STARTCHAR 2209
ENCODING 8713
SWIDTH 720 0
DWIDTH 12 0
BBX 12 12 0 -2
BITMAP
0000
0000
0200
0FC0
1200
1200
1FC0
1200
1200
0FC0
0200
0000
ENDCHAR
STARTCHAR 220B
ENCODING 8715
SWIDTH 720 0
DWIDTH 12 0
BBX 12 12 0 -2
BITMAP
0000
0000
0000
1F80
0040
0040
1FC0
0040
0040
1F80
0000
0000
ENDCHAR
STARTCHAR 2212
ENCODING 8722
SWIDTH 720 0
DWIDTH 12 0
BBX 12 12 0 -2
BITMAP
0000
0000
0000
0000
0000
0000
3FE0
0000
0000
0000
0000
0000
ENDCHAR
STARTCHAR 2213
ENCODING 8723
SWIDTH 720 0
DWIDTH 12 0
BBX 12 12 0 -2
BITMAP
0000
0000
3FE0
0000
0200
0200
0200
3FE0
0200
0200
0200
0000
ENDCHAR
STARTCHAR 221A
ENCODING 8730
SWIDTH 720 0
DWIDTH 12 0
BBX 12 12 0 -2
BITMAP
0000
03F0
0200
0200
0200
0400
0400
2400
7800
1800
0800
0000
ENDCHAR
STARTCHAR 221D
ENCODING 8733
SWIDTH 720 0
DWIDTH 12 0
BBX 12 12 0 -2
BITMAP
0000
0000
0000
18C0
2520
4200
4200
4200
2520
18C0
0000
0000
ENDCHAR
STARTCHAR 221E
ENCODING 8734
SWIDTH 720 0
DWIDTH 12 0
BBX 12 12 0 -2
BITMAP
0000
0000
0000
18C0
2520
4210
4210
4210
2520
18C0
0000
0000
ENDCHAR
STARTCHAR 221F
ENCODING 8735
SWIDTH 720 0
DWIDTH 12 0
BBX 12 12 0 -2
BITMAP
0000
0000
2000
2000
2000
2000
2000
2000
2000
2000
3FE0
0000
ENDCHAR
STARTCHAR 2220
ENCODING 8736
SWIDTH 720 0
DWIDTH 12 0
BBX 12 12 0 -2
BITMAP
0000
0000
0040
0080
0100
0200
0400
0800
1000
3FE0
0000
0000
ENDCHAR
STARTCHAR 2225
ENCODING 8741
SWIDTH 720 0
DWIDTH 12 0
BBX 12 12 0 -2
BITMAP
0000
0100
0220
0240
0440
0480
0880
0900
1100
1200
2200
0400
ENDCHAR
STARTCHAR 2226
ENCODING 8742
SWIDTH 720 0
DWIDTH 12 0
BBX 12 12 0 -2
BITMAP
0000
0100
0220
1240
0C40
0480
0F80
0900
1180
1240
2200
0400
ENDCHAR
STARTCHAR 2227
ENCODING 8743
SWIDTH 720 0
DWIDTH 12 0
BBX 12 12 0 -2
BITMAP
0000
0000
0200
0500
0500
0880
0880
1040
1040
2020
0000
0000
ENDCHAR
STARTCHAR 2228
ENCODING 8744
SWIDTH 720 0
DWIDTH 12 0
BBX 12 12 0 -2
BITMAP
0000
0000
2020
1040
1040
0880
0880
0500
0500
0200
0000
0000
ENDCHAR
STARTCHAR 2229
ENCODING 8745
SWIDTH 720 0
DWIDTH 12 0
BBX 12 12 0 -2
BITMAP
0000
0000
0700
0880
1040
1040
1040
1040
1040
1040
1040
0000
ENDCHAR
STARTCHAR 222A
ENCODING 8746
SWIDTH 720 0
DWIDTH 12 0
BBX 12 12 0 -2
BITMAP
0000
0000
1040
1040
1040
1040
1040
1040
1040
0880
0700
0000
ENDCHAR
STARTCHAR 222B
ENCODING 8747
SWIDTH 720 0
DWIDTH 12 0
BBX 12 12 0 -2
BITMAP
0000
0300
0500
0400
0400
0200
0200
0200
0100
0100
0500
0600
ENDCHAR
STARTCHAR 222C
ENCODING 8748
SWIDTH 720 0
DWIDTH 12 0
BBX 12 12 0 -2
BITMAP
0000
0CC0
1540
1100
1100
0880
0880
0880
0440
0440
1540
1980
ENDCHAR
STARTCHAR 222E
ENCODING 8750
SWIDTH 720 0
DWIDTH 12 0
BBX 12 12 0 -2
BITMAP
0000
0300
0500
0400
0700
0A80
0A80
0A80
0700
0100
0500
0600
ENDCHAR
STARTCHAR 2234
ENCODING 8756
SWIDTH 720 0
DWIDTH 12 0
BBX 12 12 0 -2
BITMAP
0000
0000
0000
0600
0600
0000
0000
0000
30C0
30C0
0000
0000
ENDCHAR
STARTCHAR 2235
ENCODING 8757
SWIDTH 720 0
DWIDTH 12 0
BBX 12 12 0 -2
BITMAP
0000
0000
0000
30C0
30C0
0000
0000
0000
0600
0600
0000
0000
ENDCHAR
STARTCHAR 223D
ENCODING 8765
SWIDTH 720 0
DWIDTH 12 0
BBX 12 12 0 -2
BITMAP
0000
0000
0000
18C0
2120
4110
4210
4410
2420
18C0
0000
0000
ENDCHAR
STARTCHAR 2243
ENCODING 8771
SWIDTH 720 0
DWIDTH 12 0
BBX 12 12 0 -2
BITMAP
0000
0000
0000
1810
2720
40C0
0000
0000
3FE0
0000
0000
0000
ENDCHAR
STARTCHAR 2245
ENCODING 8773
SWIDTH 720 0
DWIDTH 12 0
BBX 12 12 0 -2
BITMAP
0000
0000
0000
1810
2720
40C0
0000
3FE0
0000
3FE0
0000
0000
ENDCHAR
STARTCHAR 2248
ENCODING 8776
SWIDTH 720 0
DWIDTH 12 0
BBX 12 12 0 -2
BITMAP
0000
0000
0000
1810
2720
40C0
1810
2720
40C0
0000
0000
0000
ENDCHAR
STARTCHAR 2252
ENCODING 8786
SWIDTH 720 0
DWIDTH 12 0
BBX 12 12 0 -2
BITMAP
0000
0000
1000
1000
3FE0
0000
0000
3FE0
0080
0080
0000
0000
ENDCHAR
STARTCHAR 2260
ENCODING 8800
SWIDTH 720 0
DWIDTH 12 0
BBX 12 12 0 -2
BITMAP
0000
0000
0100
0100
3FE0
0200
0200
3FE0
0400
0400
0000
0000
ENDCHAR
STARTCHAR 2261
ENCODING 8801
SWIDTH 720 0
DWIDTH 12 0
BBX 12 12 0 -2
BITMAP
0000
0000
0000
3FE0
0000
0000
3FE0
0000
0000
3FE0
0000
0000
ENDCHAR
STARTCHAR 2262
ENCODING 8802
SWIDTH 720 0
DWIDTH 12 0
BBX 12 12 0 -2
BITMAP
0000
0080
0080
3FE0
0100
0200
3FE0
0200
0400
3FE0
0800
0800
ENDCHAR
STARTCHAR 2266
ENCODING 8806
SWIDTH 720 0
DWIDTH 12 0
BBX 12 12 0 -2
BITMAP
0000
0060
0180
0600
3800
0600
0180
0060
3FE0
0000
3FE0
0000
ENDCHAR
STARTCHAR 2267
ENCODING 8807
SWIDTH 720 0
DWIDTH 12 0
BBX 12 12 0 -2
BITMAP
0000
3000
0C00
0300
00E0
0300
0C00
3000
3FE0
0000
3FE0
0000
ENDCHAR
STARTCHAR 226A
ENCODING 8810
SWIDTH 720 0
DWIDTH 12 0
BBX 12 12 0 -2
BITMAP
0000
0240
0480
0900
1200
2400
1200
0900
0480
0240
0000
0000
ENDCHAR
STARTCHAR 226B
ENCODING 8811
SWIDTH 720 0
DWIDTH 12 0
BBX 12 12 0 -2
BITMAP
0000
2400
1200
0900
0480
0240
0480
0900
1200
2400
0000
0000
ENDCHAR
STARTCHAR 2276
ENCODING 8822
SWIDTH 720 0
DWIDTH 12 0
BBX 12 12 0 -2
BITMAP
0000
00E0
0700
3800
0700
00E0
3800
0700
00E0
0700
3800
0000
ENDCHAR
STARTCHAR 2277
ENCODING 8823
SWIDTH 720 0
DWIDTH 12 0
BBX 12 12 0 -2
BITMAP
0000
3800
0700
00E0
0700
3800
00E0
0700
3800
0700
00E0
0000
ENDCHAR
STARTCHAR 2282
ENCODING 8834
SWIDTH 720 0
DWIDTH 12 0
BBX 12 12 0 -2
BITMAP
0000
0000
0000
0FE0
1000
2000
2000
2000
1000
0FE0
0000
0000
ENDCHAR
STARTCHAR 2283
ENCODING 8835
SWIDTH 720 0
DWIDTH 12 0
BBX 12 12 0 -2
BITMAP
0000
0000
0000
3F80
0040
0020
0020
0020
0040
3F80
0000
0000
ENDCHAR
STARTCHAR 2284
ENCODING 8836
SWIDTH 720 0
DWIDTH 12 0
BBX 12 12 0 -2
BITMAP
0000
0000
0040
0FE0
1080
2100
2300
2200
1400
0FE0
0800
0000
ENDCHAR
STARTCHAR 2285
ENCODING 8837
SWIDTH 720 0
DWIDTH 12 0
BBX 12 12 0 -2
BITMAP
0000
0000
0080
3F80
0140
0220
0620
0420
0840
3F80
1000
0000
ENDCHAR
STARTCHAR 2286
ENCODING 8838
SWIDTH 720 0
DWIDTH 12 0
BBX 12 12 0 -2
BITMAP
0000
0000
0FE0
1000
2000
2000
1000
0FE0
0000
3FE0
0000
0000
ENDCHAR
STARTCHAR 2287
ENCODING 8839
SWIDTH 720 0
DWIDTH 12 0
BBX 12 12 0 -2
BITMAP
0000
0000
3F80
0040
0020
0020
0040
3F80
0000
3FE0
0000
0000
ENDCHAR
STARTCHAR 228A
ENCODING 8842
SWIDTH 720 0
DWIDTH 12 0
BBX 12 12 0 -2
BITMAP
0000
0000
0FE0
1000
2000
2000
1000
0FE0
0100
3FE0
0200
0200
ENDCHAR
STARTCHAR 228B
ENCODING 8843
SWIDTH 720 0
DWIDTH 12 0
BBX 12 12 0 -2
BITMAP
0000
0000
3F80
0040
0020
0020
0040
3F80
0100
3FE0
0200
0200
ENDCHAR
STARTCHAR 2295
ENCODING 8853
SWIDTH 720 0
DWIDTH 12 0
BBX 12 12 0 -2
BITMAP
0000
0700
1AC0
2220
2220
4210
7FF0
4210
2220
2220
1AC0
0700
ENDCHAR
STARTCHAR 2296
ENCODING 8854
SWIDTH 720 0
DWIDTH 12 0
BBX 12 12 0 -2
BITMAP
0000
0700
18C0
2020
2020
4010
7FF0
4010
2020
2020
18C0
0700
ENDCHAR
STARTCHAR 2297
ENCODING 8855
SWIDTH 720 0
DWIDTH 12 0
BBX 12 12 0 -2
BITMAP
0000
0700
18C0
3060
28A0
4510
4210
4510
28A0
3060
18C0
0700
ENDCHAR
STARTCHAR 22A5
ENCODING 8869
SWIDTH 720 0
DWIDTH 12 0
BBX 12 12 0 -2
BITMAP
0000
0000
0200
0200
0200
0200
0200
0200
0200
3FE0
0000
0000
ENDCHAR
STARTCHAR 22BF
ENCODING 8895
SWIDTH 720 0
DWIDTH 12 0
BBX 12 12 0 -2
BITMAP
0000
0000
0020
0060
00A0
0120
0220
0420
0820
1020
3FE0
0000
ENDCHAR
STARTCHAR 22DA
ENCODING 8922
SWIDTH 720 0
DWIDTH 12 0
BBX 12 12 0 -2
BITMAP
0000
00E0
0700
3800
0700
00E0
3FE0
3800
0700
00E0
0700
3800
ENDCHAR
STARTCHAR 22DB
ENCODING 8923
SWIDTH 720 0
DWIDTH 12 0
BBX 12 12 0 -2
BITMAP
0000
3800
0700
00E0
0700
3800
3FE0
00E0
0700
3800
0700
00E0
ENDCHAR
STARTCHAR 2305
ENCODING 8965
SWIDTH 720 0
DWIDTH 12 0
BBX 12 12 0 -2
BITMAP
0000
0000
0000
0000
3FE0
0200
0500
0880
1040
0000
0000
0000
ENDCHAR
STARTCHAR 2306
ENCODING 8966
SWIDTH 720 0
DWIDTH 12 0
BBX 12 12 0 -2
BITMAP
0000
0000
0000
3FE0
0000
3FE0
0200
0500
0880
1040
0000
0000
ENDCHAR
STARTCHAR 2312
ENCODING 8978
SWIDTH 720 0
DWIDTH 12 0
BBX 12 12 0 -2
BITMAP
0000
1FC0
6030
0000
0000
0000
0000
0000
0000
0000
0000
0000
ENDCHAR
STARTCHAR 2318
ENCODING 8984
SWIDTH 720 0
DWIDTH 12 0
BBX 12 12 0 -2
BITMAP
0000
30C0
4920
4920
3FE0
0900
0900
3FC0
4920
4920
30C0
0000
ENDCHAR
STARTCHAR 23BE
ENCODING 9150
SWIDTH 720 0
DWIDTH 12 0
BBX 12 12 0 -2
BITMAP
03F0
0200
0200
0200
0200
0200
0200
0200
0200
0200
0200
0200
ENDCHAR
STARTCHAR 23BF
ENCODING 9151
SWIDTH 720 0
DWIDTH 12 0
BBX 12 12 0 -2
BITMAP
0200
0200
0200
0200
0200
0200
0200
0200
0200
0200
0200
03F0
ENDCHAR
STARTCHAR 23C0
ENCODING 9152
SWIDTH 720 0
DWIDTH 12 0
BBX 12 12 0 -2
BITMAP
0200
0200
0200
0700
0A80
1240
1240
1240
0A80
0700
0200
0200
ENDCHAR
STARTCHAR 23C1
ENCODING 9153
SWIDTH 720 0
DWIDTH 12 0
BBX 12 12 0 -2
BITMAP
FFF0
0200
0200
0700
0A80
1240
1240
1240
0A80
0700
0200
0200
ENDCHAR
STARTCHAR 23C2
ENCODING 9154
SWIDTH 720 0
DWIDTH 12 0
BBX 12 12 0 -2
BITMAP
0200
0200
0200
0700
0A80
1240
1240
1240
0A80
0700
0200
FFF0
ENDCHAR
STARTCHAR 23C3
ENCODING 9155
SWIDTH 720 0
DWIDTH 12 0
BBX 12 12 0 -2
BITMAP
0200
0200
0200
0200
0700
0700
0A80
1240
1240
3FE0
0200
0200
ENDCHAR
STARTCHAR 23C4
ENCODING 9156
SWIDTH 720 0
DWIDTH 12 0
BBX 12 12 0 -2
BITMAP
FFF0
0200
0200
0200
0700
0700
0A80
1240
1240
3FE0
0200
0200
ENDCHAR
STARTCHAR 23C5
ENCODING 9157
SWIDTH 720 0
DWIDTH 12 0
BBX 12 12 0 -2
BITMAP
0200
0200
0200
0200
0700
0700
0A80
1240
1240
3FE0
0200
FFF0
ENDCHAR
STARTCHAR 23C6
ENCODING 9158
SWIDTH 720 0
DWIDTH 12 0
BBX 12 12 0 -2
BITMAP
0200
0200
0200
0200
0200
1A00
2720
02C0
0200
0200
0200
0200
ENDCHAR
STARTCHAR 23C7
ENCODING 9159
SWIDTH 720 0
DWIDTH 12 0
BBX 12 12 0 -2
BITMAP
FFF0
0200
0200
0200
0200
1A00
2720
02C0
0200
0200
0200
0200
ENDCHAR
STARTCHAR 23C8
ENCODING 9160
SWIDTH 720 0
DWIDTH 12 0
BBX 12 12 0 -2
BITMAP
0200
0200
0200
0200
0200
1A00
2720
02C0
0200
0200
0200
FFF0
ENDCHAR
STARTCHAR 23C9
ENCODING 9161
SWIDTH 720 0
DWIDTH 12 0
BBX 12 12 0 -2
BITMAP
FFF0
0200
0200
0200
0200
0200
0200
0200
0200
0200
0200
0200
ENDCHAR
STARTCHAR 23CA
ENCODING 9162
SWIDTH 720 0
DWIDTH 12 0
BBX 12 12 0 -2
BITMAP
0200
0200
0200
0200
0200
0200
0200
0200
0200
0200
0200
FFF0
ENDCHAR
STARTCHAR 23CB
ENCODING 9163
SWIDTH 720 0
DWIDTH 12 0
BBX 12 12 0 -2
BITMAP
FE00
0200
0200
0200
0200
0200
0200
0200
0200
0200
0200
0200
ENDCHAR
STARTCHAR 23CC
ENCODING 9164
SWIDTH 720 0
DWIDTH 12 0
BBX 12 12 0 -2
BITMAP
0200
0200
0200
0200
0200
0200
0200
0200
0200
0200
0200
FE00
ENDCHAR
STARTCHAR 23CE
ENCODING 9166
SWIDTH 720 0
DWIDTH 12 0
BBX 12 12 0 -2
BITMAP
0000
0000
00E0
00A0
00A0
08A0
1920
2E20
4040
2F80
1800
0800
ENDCHAR
STARTCHAR 2423
ENCODING 9251
SWIDTH 720 0
DWIDTH 12 0
BBX 12 12 0 -2
BITMAP
0000
0000
0000
0000
0000
0000
0000
0000
0000
2040
2040
3FC0
ENDCHAR
STARTCHAR 2460
ENCODING 9312
SWIDTH 720 0
DWIDTH 12 0
BBX 12 12 0 -2
BITMAP
0000
0F80
1040
2220
4610
4210
4210
4210
4210
2FA0
1040
0F80
ENDCHAR
STARTCHAR 2461
ENCODING 9313
SWIDTH 720 0
DWIDTH 12 0
BBX 12 12 0 -2
BITMAP
0000
0F80
1040
2720
4890
4110
4210
4410
4810
2FA0
1040
0F80
ENDCHAR
STARTCHAR 2462
ENCODING 9314
SWIDTH 720 0
DWIDTH 12 0
BBX 12 12 0 -2
BITMAP
0000
0F80
1040
2720
4890
4090
4310
4090
4890
2720
1040
0F80
ENDCHAR
STARTCHAR 2463
ENCODING 9315
SWIDTH 720 0
DWIDTH 12 0
BBX 12 12 0 -2
BITMAP
0000
0F80
1040
2220
4610
4A10
4A10
5F90
4210
2720
1040
0F80
ENDCHAR
STARTCHAR 2464
ENCODING 9316
SWIDTH 720 0
DWIDTH 12 0
BBX 12 12 0 -2
BITMAP
0000
0F80
1040
2FA0
4810
4810
4F10
4090
4890
2720
1040
0F80
ENDCHAR
STARTCHAR 2465
ENCODING 9317
SWIDTH 720 0
DWIDTH 12 0
BBX 12 12 0 -2
BITMAP
0000
0F80
1040
2720
4890
4810
4F10
4890
4890
2720
1040
0F80
ENDCHAR
STARTCHAR 2466
ENCODING 9318
SWIDTH 720 0
DWIDTH 12 0
BBX 12 12 0 -2
BITMAP
0000
0F80
1040
2FA0
4890
4110
4110
4210
4210
2220
1040
0F80
ENDCHAR
STARTCHAR 2467
ENCODING 9319
SWIDTH 720 0
DWIDTH 12 0
BBX 12 12 0 -2
BITMAP
0000
0F80
1040
2720
4890
4890
4710
4890
4890
2720
1040
0F80
ENDCHAR
STARTCHAR 2468
ENCODING 9320
SWIDTH 720 0
DWIDTH 12 0
BBX 12 12 0 -2
BITMAP
0000
0F80
1040
2720
4890
4890
4790
4090
4890
2720
1040
0F80
ENDCHAR
STARTCHAR 2469
ENCODING 9321
SWIDTH 720 0
DWIDTH 12 0
BBX 12 12 0 -2
BITMAP
0000
1FC0
2020
4990
5A50
4A50
4A50
4A50
4A50
5D90
2020
1FC0
ENDCHAR
STARTCHAR 246A
ENCODING 9322
SWIDTH 720 0
DWIDTH 12 0
BBX 12 12 0 -2
BITMAP
0000
1FC0
2020
4890
5990
4890
4890
4890
4890
5DD0
2020
1FC0
ENDCHAR
STARTCHAR 246B
ENCODING 9323
SWIDTH 720 0
DWIDTH 12 0
BBX 12 12 0 -2
BITMAP
0000
1FC0
2020
4990
5A50
4850
4890
4910
4A10
5FD0
2020
1FC0
ENDCHAR
STARTCHAR 246C
ENCODING 9324
SWIDTH 720 0
DWIDTH 12 0
BBX 12 12 0 -2
BITMAP
0000
1FC0
2020
4990
5A50
4850
4990
4850
4A50
5D90
2020
1FC0
ENDCHAR
STARTCHAR 246D
ENCODING 9325
SWIDTH 720 0
DWIDTH 12 0
BBX 12 12 0 -2
BITMAP
0000
1FC0
2020
4890
5990
4A90
4C90
4FD0
4890
5DD0
2020
1FC0
ENDCHAR
STARTCHAR 246E
ENCODING 9326
SWIDTH 720 0
DWIDTH 12 0
BBX 12 12 0 -2
BITMAP
0000
1FC0
2020
4B90
5A10
4A10
4B90
4850
4A50
5D90
2020
1FC0
ENDCHAR
STARTCHAR 246F
ENCODING 9327
SWIDTH 720 0
DWIDTH 12 0
BBX 12 12 0 -2
BITMAP
0000
1FC0
2020
4990
5A50
4A10
4B90
4A50
4A50
5D90
2020
1FC0
ENDCHAR
STARTCHAR 2470
ENCODING 9328
SWIDTH 720 0
DWIDTH 12 0
BBX 12 12 0 -2
BITMAP
0000
1FC0
2020
4BD0
5A50
4890
4990
4910
4910
5D10
2020
1FC0
ENDCHAR
STARTCHAR 2471
ENCODING 9329
SWIDTH 720 0
DWIDTH 12 0
BBX 12 12 0 -2
BITMAP
0000
1FC0
2020
4990
5A50
4A50
4990
4A50
4A50
5D90
2020
1FC0
ENDCHAR
STARTCHAR 2472
ENCODING 9330
SWIDTH 720 0
DWIDTH 12 0
BBX 12 12 0 -2
BITMAP
0000
1FC0
2020
4B90
5A50
4A50
4BD0
4850
4A50
5F90
2020
1FC0
ENDCHAR
STARTCHAR 2473
ENCODING 9331
SWIDTH 720 0
DWIDTH 12 0
BBX 12 12 0 -2
BITMAP
0000
1FC0
2020
4DD0
5350
4750
4D50
4950
5150
5FD0
2020
1FC0
ENDCHAR
STARTCHAR 24D0
ENCODING 9424
SWIDTH 720 0
DWIDTH 12 0
BBX 12 12 0 -2
BITMAP
0000
0F80
1040
2E20
4110
4110
4F10
5110
5110
2EA0
1040
0F80
ENDCHAR
STARTCHAR 24D1
ENCODING 9425
SWIDTH 720 0
DWIDTH 12 0
BBX 12 12 0 -2
BITMAP
0000
0F80
1040
2820
4810
4B90
4C50
4850
4C50
2BA0
1040
0F80
ENDCHAR
STARTCHAR 24D2
ENCODING 9426
SWIDTH 720 0
DWIDTH 12 0
BBX 12 12 0 -2
BITMAP
0000
0F80
1040
2020
4710
4890
5010
5010
4890
2720
1040
0F80
ENDCHAR
STARTCHAR 24D3
ENCODING 9427
SWIDTH 720 0
DWIDTH 12 0
BBX 12 12 0 -2
BITMAP
0000
0F80
1040
20A0
4090
4E90
5190
5090
5190
2EA0
1040
0F80
ENDCHAR
STARTCHAR 24D4
ENCODING 9428
SWIDTH 720 0
DWIDTH 12 0
BBX 12 12 0 -2
BITMAP
0000
0F80
1040
2020
4F10
5090
5F90
5010
4890
2720
1040
0F80
ENDCHAR
STARTCHAR 24D5
ENCODING 9429
SWIDTH 720 0
DWIDTH 12 0
BBX 12 12 0 -2
BITMAP
0000
0F80
1040
21A0
4210
4210
4F90
4210
4210
2720
1040
0F80
ENDCHAR
STARTCHAR 24D6
ENCODING 9430
SWIDTH 720 0
DWIDTH 12 0
BBX 12 12 0 -2
BITMAP
0000
0F80
1040
26A0
4910
4910
4E10
5110
5090
2F20
1040
0F80
ENDCHAR
STARTCHAR 24D7
ENCODING 9431
SWIDTH 720 0
DWIDTH 12 0
BBX 12 12 0 -2
BITMAP
0000
0F80
1040
2820
4810
4B10
4C90
4890
4890
28A0
1040
0F80
ENDCHAR
STARTCHAR 24D8
ENCODING 9432
SWIDTH 720 0
DWIDTH 12 0
BBX 12 12 0 -2
BITMAP
0000
0F80
1040
2220
4010
4610
4210
4210
4210
2720
1040
0F80
ENDCHAR
STARTCHAR 24D9
ENCODING 9433
SWIDTH 720 0
DWIDTH 12 0
BBX 12 12 0 -2
BITMAP
0000
0F80
1040
2120
4010
4310
4110
4110
4910
2920
1640
0F80
ENDCHAR
STARTCHAR 24DA
ENCODING 9434
SWIDTH 720 0
DWIDTH 12 0
BBX 12 12 0 -2
BITMAP
0000
0F80
1040
2820
4990
4910
4A10
4E10
4910
29E0
1040
0F80
ENDCHAR
STARTCHAR 24DB
ENCODING 9435
SWIDTH 720 0
DWIDTH 12 0
BBX 12 12 0 -2
BITMAP
0000
0F80
1040
2620
4210
4210
4210
4210
4210
2720
1040
0F80
ENDCHAR
STARTCHAR 24DC
ENCODING 9436
SWIDTH 720 0
DWIDTH 12 0
BBX 12 12 0 -2
BITMAP
0000
0F80
1040
2020
5D90
5250
5250
5250
5250
3B60
1040
0F80
ENDCHAR
STARTCHAR 24DD
ENCODING 9437
SWIDTH 720 0
DWIDTH 12 0
BBX 12 12 0 -2
BITMAP
0000
0F80
1040
2020
4B10
4C90
4890
4890
4890
3CE0
1040
0F80
ENDCHAR
STARTCHAR 24DE
ENCODING 9438
SWIDTH 720 0
DWIDTH 12 0
BBX 12 12 0 -2
BITMAP
0000
0F80
1040
2020
4710
4890
5050
5050
4890
2720
1040
0F80
ENDCHAR
STARTCHAR 24DF
ENCODING 9439
SWIDTH 720 0
DWIDTH 12 0
BBX 12 12 0 -2
BITMAP
0000
0F80
1040
2BA0
4C50
4850
4C50
4B90
4810
3C20
1040
0F80
ENDCHAR
STARTCHAR 24E0
ENCODING 9440
SWIDTH 720 0
DWIDTH 12 0
BBX 12 12 0 -2
BITMAP
0000
0F80
1040
2EA0
5190
5090
5190
4E90
4090
21E0
1040
0F80
ENDCHAR
STARTCHAR 24E1
ENCODING 9441
SWIDTH 720 0
DWIDTH 12 0
BBX 12 12 0 -2
BITMAP
0000
0F80
1040
2020
4D90
4650
4410
4410
4410
2E20
1040
0F80
ENDCHAR
STARTCHAR 24E2
ENCODING 9442
SWIDTH 720 0
DWIDTH 12 0
BBX 12 12 0 -2
BITMAP
0000
0F80
1040
2720
4890
4810
4710
4090
4890
2720
1040
0F80
ENDCHAR
STARTCHAR 24E3
ENCODING 9443
SWIDTH 720 0
DWIDTH 12 0
BBX 12 12 0 -2
BITMAP
0000
0F80
1040
2420
4410
5F90
4410
4410
4490
2320
1040
0F80
ENDCHAR
STARTCHAR 24E4
ENCODING 9444
SWIDTH 720 0
DWIDTH 12 0
BBX 12 12 0 -2
BITMAP
0000
0F80
1040
2020
4890
4890
4890
4890
4990
26A0
1040
0F80
ENDCHAR
STARTCHAR 24E5
ENCODING 9445
SWIDTH 720 0
DWIDTH 12 0
BBX 12 12 0 -2
BITMAP
0000
0F80
1040
2020
59D0
4890
4910
4510
4610
2220
1040
0F80
ENDCHAR
STARTCHAR 24E6
ENCODING 9446
SWIDTH 720 0
DWIDTH 12 0
BBX 12 12 0 -2
BITMAP
0000
0F80
1040
2020
7AF0
5250
5550
5550
4890
28A0
1040
0F80
ENDCHAR
STARTCHAR 24E7
ENCODING 9447
SWIDTH 720 0
DWIDTH 12 0
BBX 12 12 0 -2
BITMAP
0000
0F80
1040
2020
5DD0
4890
4710
4510
4890
3DE0
1040
0F80
ENDCHAR
STARTCHAR 24E8
ENCODING 9448
SWIDTH 720 0
DWIDTH 12 0
BBX 12 12 0 -2
BITMAP
0000
0F80
1040
2020
5DD0
4890
4490
4310
5210
2C20
1040
0F80
ENDCHAR
STARTCHAR 24E9
ENCODING 9449
SWIDTH 720 0
DWIDTH 12 0
BBX 12 12 0 -2
BITMAP
0000
0F80
1040
2020
4F90
5110
4210
4450
4890
3FA0
1040
0F80
ENDCHAR
STARTCHAR 24EB
ENCODING 9451
SWIDTH 720 0
DWIDTH 12 0
BBX 12 12 0 -2
BITMAP
0000
1FC0
3FE0
7770
6670
7770
7770
7770
7770
6230
3FE0
1FC0
ENDCHAR
STARTCHAR 24EC
ENCODING 9452
SWIDTH 720 0
DWIDTH 12 0
BBX 12 12 0 -2
BITMAP
0000
1FC0
3FE0
7670
65B0
77B0
7770
76F0
75F0
6030
3FE0
1FC0
ENDCHAR
STARTCHAR 24ED
ENCODING 9453
SWIDTH 720 0
DWIDTH 12 0
BBX 12 12 0 -2
BITMAP
0000
1FC0
3FE0
7670
65B0
77B0
7670
77B0
75B0
6270
3FE0
1FC0
ENDCHAR
STARTCHAR 24EE
ENCODING 9454
SWIDTH 720 0
DWIDTH 12 0
BBX 12 12 0 -2
BITMAP
0000
1FC0
3FE0
7770
6670
7570
7370
7030
7770
6230
3FE0
1FC0
ENDCHAR
STARTCHAR 24EF
ENCODING 9455
SWIDTH 720 0
DWIDTH 12 0
BBX 12 12 0 -2
BITMAP
0000
1FC0
3FE0
7470
65F0
75F0
7470
77B0
75B0
6270
3FE0
1FC0
ENDCHAR
STARTCHAR 24F0
ENCODING 9456
SWIDTH 720 0
DWIDTH 12 0
BBX 12 12 0 -2
BITMAP
0000
1FC0
3FE0
7670
65B0
75F0
7470
75B0
75B0
6270
3FE0
1FC0
ENDCHAR
STARTCHAR 24F1
ENCODING 9457
SWIDTH 720 0
DWIDTH 12 0
BBX 12 12 0 -2
BITMAP
0000
1FC0
3FE0
7430
65B0
7770
7770
76F0
76F0
62F0
3FE0
1FC0
ENDCHAR
STARTCHAR 24F2
ENCODING 9458
SWIDTH 720 0
DWIDTH 12 0
BBX 12 12 0 -2
BITMAP
0000
1FC0
3FE0
7670
65B0
75B0
7670
75B0
75B0
6270
3FE0
1FC0
ENDCHAR
STARTCHAR 24F3
ENCODING 9459
SWIDTH 720 0
DWIDTH 12 0
BBX 12 12 0 -2
BITMAP
0000
1FC0
3FE0
7670
65B0
75B0
7630
77B0
75B0
6270
3FE0
1FC0
ENDCHAR
STARTCHAR 24F4
ENCODING 9460
SWIDTH 720 0
DWIDTH 12 0
BBX 12 12 0 -2
BITMAP
0000
1FC0
3FE0
7230
6CB0
7CB0
7AB0
76B0
6EB0
6030
3FE0
1FC0
ENDCHAR
STARTCHAR 24F5
ENCODING 9461
SWIDTH 720 0
DWIDTH 12 0
BBX 12 12 0 -2
BITMAP
0000
1FC0
2FA0
5050
6630
6230
6230
6230
6730
5050
2FA0
1FC0
ENDCHAR
STARTCHAR 24F6
ENCODING 9462
SWIDTH 720 0
DWIDTH 12 0
BBX 12 12 0 -2
BITMAP
0000
1FC0
2FA0
5050
6730
6130
6230
6430
6730
5050
2FA0
1FC0
ENDCHAR
STARTCHAR 24F7
ENCODING 9463
SWIDTH 720 0
DWIDTH 12 0
BBX 12 12 0 -2
BITMAP
0000
1FC0
2FA0
5050
6730
6130
6630
6130
6730
5050
2FA0
1FC0
ENDCHAR
STARTCHAR 24F8
ENCODING 9464
SWIDTH 720 0
DWIDTH 12 0
BBX 12 12 0 -2
BITMAP
0000
1FC0
2FA0
5050
6230
6630
6A30
6F30
6230
5050
2FA0
1FC0
ENDCHAR
STARTCHAR 24F9
ENCODING 9465
SWIDTH 720 0
DWIDTH 12 0
BBX 12 12 0 -2
BITMAP
0000
1FC0
2FA0
5050
6730
6430
6730
6130
6730
5050
2FA0
1FC0
ENDCHAR
STARTCHAR 24FA
ENCODING 9466
SWIDTH 720 0
DWIDTH 12 0
BBX 12 12 0 -2
BITMAP
0000
1FC0
2FA0
5050
6330
6430
6730
6530
6730
5050
2FA0
1FC0
ENDCHAR
STARTCHAR 24FB
ENCODING 9467
SWIDTH 720 0
DWIDTH 12 0
BBX 12 12 0 -2
BITMAP
0000
1FC0
2FA0
5050
6730
6530
6130
6230
6230
5050
2FA0
1FC0
ENDCHAR
STARTCHAR 24FC
ENCODING 9468
SWIDTH 720 0
DWIDTH 12 0
BBX 12 12 0 -2
BITMAP
0000
1FC0
2FA0
5050
6730
6530
6730
6530
6730
5050
2FA0
1FC0
ENDCHAR
STARTCHAR 24FD
ENCODING 9469
SWIDTH 720 0
DWIDTH 12 0
BBX 12 12 0 -2
BITMAP
0000
1FC0
2FA0
5050
6730
6530
6730
6130
6630
5050
2FA0
1FC0
ENDCHAR
STARTCHAR 24FE
ENCODING 9470
SWIDTH 720 0
DWIDTH 12 0
BBX 12 12 0 -2
BITMAP
0000
1FC0
2FA0
5050
65B0
6DB0
65B0
65B0
6FB0
5050
2FA0
1FC0
ENDCHAR
STARTCHAR 2500
ENCODING 9472
SWIDTH 720 0
DWIDTH 12 0
BBX 12 12 0 -2
BITMAP
0000
0000
0000
0000
0000
0000
FFF0
0000
0000
0000
0000
0000
ENDCHAR
STARTCHAR 2501
ENCODING 9473
SWIDTH 720 0
DWIDTH 12 0
BBX 12 12 0 -2
BITMAP
0000
0000
0000
0000
0000
FFF0
FFF0
0000
0000
0000
0000
0000
ENDCHAR
STARTCHAR 2502
ENCODING 9474
SWIDTH 720 0
DWIDTH 12 0
BBX 12 12 0 -2
BITMAP
0200
0200
0200
0200
0200
0200
0200
0200
0200
0200
0200
0200
ENDCHAR
STARTCHAR 2503
ENCODING 9475
SWIDTH 720 0
DWIDTH 12 0
BBX 12 12 0 -2
BITMAP
0600
0600
0600
0600
0600
0600
0600
0600
0600
0600
0600
0600
ENDCHAR
STARTCHAR 250C
ENCODING 9484
SWIDTH 720 0
DWIDTH 12 0
BBX 12 12 0 -2
BITMAP
0000
0000
0000
0000
0000
0000
03F0
0200
0200
0200
0200
0200
ENDCHAR
STARTCHAR 250F
ENCODING 9487
SWIDTH 720 0
DWIDTH 12 0
BBX 12 12 0 -2
BITMAP
0000
0000
0000
0000
0000
07F0
07F0
0600
0600
0600
0600
0600
ENDCHAR
STARTCHAR 2510
ENCODING 9488
SWIDTH 720 0
DWIDTH 12 0
BBX 12 12 0 -2
BITMAP
0000
0000
0000
0000
0000
0000
FE00
0200
0200
0200
0200
0200
ENDCHAR
STARTCHAR 2513
ENCODING 9491
SWIDTH 720 0
DWIDTH 12 0
BBX 12 12 0 -2
BITMAP
0000
0000
0000
0000
0000
FE00
FE00
0600
0600
0600
0600
0600
ENDCHAR
STARTCHAR 2514
ENCODING 9492
SWIDTH 720 0
DWIDTH 12 0
BBX 12 12 0 -2
BITMAP
0200
0200
0200
0200
0200
0200
03F0
0000
0000
0000
0000
0000
ENDCHAR
STARTCHAR 2517
ENCODING 9495
SWIDTH 720 0
DWIDTH 12 0
BBX 12 12 0 -2
BITMAP
0600
0600
0600
0600
0600
07F0
07F0
0000
0000
0000
0000
0000
ENDCHAR
STARTCHAR 2518
ENCODING 9496
SWIDTH 720 0
DWIDTH 12 0
BBX 12 12 0 -2
BITMAP
0200
0200
0200
0200
0200
0200
FE00
0000
0000
0000
0000
0000
ENDCHAR
STARTCHAR 251B
ENCODING 9499
SWIDTH 720 0
DWIDTH 12 0
BBX 12 12 0 -2
BITMAP
0600
0600
0600
0600
0600
FE00
FE00
0000
0000
0000
0000
0000
ENDCHAR
STARTCHAR 251C
ENCODING 9500
SWIDTH 720 0
DWIDTH 12 0
BBX 12 12 0 -2
BITMAP
0200
0200
0200
0200
0200
0200
03F0
0200
0200
0200
0200
0200
ENDCHAR
STARTCHAR 251D
ENCODING 9501
SWIDTH 720 0
DWIDTH 12 0
BBX 12 12 0 -2
BITMAP
0200
0200
0200
0200
0200
03F0
03F0
0200
0200
0200
0200
0200
ENDCHAR
STARTCHAR 2520
ENCODING 9504
SWIDTH 720 0
DWIDTH 12 0
BBX 12 12 0 -2
BITMAP
0600
0600
0600
0600
0600
0600
07F0
0600
0600
0600
0600
0600
ENDCHAR
STARTCHAR 2523
ENCODING 9507
SWIDTH 720 0
DWIDTH 12 0
BBX 12 12 0 -2
BITMAP
0600
0600
0600
0600
0600
07F0
07F0
0600
0600
0600
0600
0600
ENDCHAR
STARTCHAR 2524
ENCODING 9508
SWIDTH 720 0
DWIDTH 12 0
BBX 12 12 0 -2
BITMAP
0200
0200
0200
0200
0200
0200
FE00
0200
0200
0200
0200
0200
ENDCHAR
STARTCHAR 2525
ENCODING 9509
SWIDTH 720 0
DWIDTH 12 0
BBX 12 12 0 -2
BITMAP
0200
0200
0200
0200
0200
FE00
FE00
0200
0200
0200
0200
0200
ENDCHAR
STARTCHAR 2528
ENCODING 9512
SWIDTH 720 0
DWIDTH 12 0
BBX 12 12 0 -2
BITMAP
0600
0600
0600
0600
0600
0600
FE00
0600
0600
0600
0600
0600
ENDCHAR
STARTCHAR 252B
ENCODING 9515
SWIDTH 720 0
DWIDTH 12 0
BBX 12 12 0 -2
BITMAP
0600
0600
0600
0600
0600
FE00
FE00
0600
0600
0600
0600
0600
ENDCHAR
STARTCHAR 252C
ENCODING 9516
SWIDTH 720 0
DWIDTH 12 0
BBX 12 12 0 -2
BITMAP
0000
0000
0000
0000
0000
0000
FFF0
0200
0200
0200
0200
0200
ENDCHAR
STARTCHAR 252F
ENCODING 9519
SWIDTH 720 0
DWIDTH 12 0
BBX 12 12 0 -2
BITMAP
0000
0000
0000
0000
0000
FFF0
FFF0
0200
0200
0200
0200
0200
ENDCHAR
STARTCHAR 2530
ENCODING 9520
SWIDTH 720 0
DWIDTH 12 0
BBX 12 12 0 -2
BITMAP
0000
0000
0000
0000
0000
0000
FFF0
0600
0600
0600
0600
0600
ENDCHAR
STARTCHAR 2533
ENCODING 9523
SWIDTH 720 0
DWIDTH 12 0
BBX 12 12 0 -2
BITMAP
0000
0000
0000
0000
0000
FFF0
FFF0
0600
0600
0600
0600
0600
ENDCHAR
STARTCHAR 2534
ENCODING 9524
SWIDTH 720 0
DWIDTH 12 0
BBX 12 12 0 -2
BITMAP
0200
0200
0200
0200
0200
0200
FFF0
0000
0000
0000
0000
0000
ENDCHAR
STARTCHAR 2537
ENCODING 9527
SWIDTH 720 0
DWIDTH 12 0
BBX 12 12 0 -2
BITMAP
0200
0200
0200
0200
0200
FFF0
FFF0
0000
0000
0000
0000
0000
ENDCHAR
STARTCHAR 2538
ENCODING 9528
SWIDTH 720 0
DWIDTH 12 0
BBX 12 12 0 -2
BITMAP
0600
0600
0600
0600
0600
0600
FFF0
0000
0000
0000
0000
0000
ENDCHAR
STARTCHAR 253B
ENCODING 9531
SWIDTH 720 0
DWIDTH 12 0
BBX 12 12 0 -2
BITMAP
0600
0600
0600
0600
0600
FFF0
FFF0
0000
0000
0000
0000
0000
ENDCHAR
STARTCHAR 253C
ENCODING 9532
SWIDTH 720 0
DWIDTH 12 0
BBX 12 12 0 -2
BITMAP
0200
0200
0200
0200
0200
0200
FFF0
0200
0200
0200
0200
0200
ENDCHAR
STARTCHAR 253F
ENCODING 9535
SWIDTH 720 0
DWIDTH 12 0
BBX 12 12 0 -2
BITMAP
0200
0200
0200
0200
0200
FFF0
FFF0
0200
0200
0200
0200
0200
ENDCHAR
STARTCHAR 2542
ENCODING 9538
SWIDTH 720 0
DWIDTH 12 0
BBX 12 12 0 -2
BITMAP
0600
0600
0600
0600
0600
0600
FFF0
0600
0600
0600
0600
0600
ENDCHAR
STARTCHAR 254B
ENCODING 9547
SWIDTH 720 0
DWIDTH 12 0
BBX 12 12 0 -2
BITMAP
0600
0600
0600
0600
0600
FFF0
FFF0
0600
0600
0600
0600
0600
ENDCHAR
STARTCHAR 25A0
ENCODING 9632
SWIDTH 720 0
DWIDTH 12 0
BBX 12 12 0 -2
BITMAP
0000
7FE0
7FE0
7FE0
7FE0
7FE0
7FE0
7FE0
7FE0
7FE0
7FE0
0000
ENDCHAR
STARTCHAR 25A1
ENCODING 9633
SWIDTH 720 0
DWIDTH 12 0
BBX 12 12 0 -2
BITMAP
0000
7FE0
4020
4020
4020
4020
4020
4020
4020
4020
7FE0
0000
ENDCHAR
STARTCHAR 25B1
ENCODING 9649
SWIDTH 720 0
DWIDTH 12 0
BBX 12 12 0 -2
BITMAP
0000
0000
0000
0FF0
1010
1020
2020
2040
4040
7F80
0000
0000
ENDCHAR
STARTCHAR 25B2
ENCODING 9650
SWIDTH 720 0
DWIDTH 12 0
BBX 12 12 0 -2
BITMAP
0000
0000
0200
0700
0700
0F80
0F80
1FC0
1FC0
3FE0
3FE0
0000
ENDCHAR
STARTCHAR 25B3
ENCODING 9651
SWIDTH 720 0
DWIDTH 12 0
BBX 12 12 0 -2
BITMAP
0000
0000
0200
0500
0500
0880
0880
1040
1040
2020
3FE0
0000
ENDCHAR
STARTCHAR 25B6
ENCODING 9654
SWIDTH 720 0
DWIDTH 12 0
BBX 12 12 0 -2
BITMAP
0000
0000
2000
3800
3E00
3F80
3FE0
3F80
3E00
3800
2000
0000
ENDCHAR
STARTCHAR 25B7
ENCODING 9655
SWIDTH 720 0
DWIDTH 12 0
BBX 12 12 0 -2
BITMAP
0000
0000
2000
3800
2600
2180
2060
2180
2600
3800
2000
0000
ENDCHAR
STARTCHAR 25BC
ENCODING 9660
SWIDTH 720 0
DWIDTH 12 0
BBX 12 12 0 -2
BITMAP
0000
0000
3FE0
3FE0
1FC0
1FC0
0F80
0F80
0700
0700
0200
0000
ENDCHAR
STARTCHAR 25BD
ENCODING 9661
SWIDTH 720 0
DWIDTH 12 0
BBX 12 12 0 -2
BITMAP
0000
0000
3FE0
2020
1040
1040
0880
0880
0500
0500
0200
0000
ENDCHAR
STARTCHAR 25C0
ENCODING 9664
SWIDTH 720 0
DWIDTH 12 0
BBX 12 12 0 -2
BITMAP
0000
0000
0020
00E0
03E0
0FE0
3FE0
0FE0
03E0
00E0
0020
0000
ENDCHAR
STARTCHAR 25C1
ENCODING 9665
SWIDTH 720 0
DWIDTH 12 0
BBX 12 12 0 -2
BITMAP
0000
0000
0020
00E0
0320
0C20
3020
0C20
0320
00E0
0020
0000
ENDCHAR
STARTCHAR 25C6
ENCODING 9670
SWIDTH 720 0
DWIDTH 12 0
BBX 12 12 0 -2
BITMAP
0000
0200
0700
0F80
1FC0
3FE0
7FF0
3FE0
1FC0
0F80
0700
0200
ENDCHAR
STARTCHAR 25C7
ENCODING 9671
SWIDTH 720 0
DWIDTH 12 0
BBX 12 12 0 -2
BITMAP
0000
0200
0500
0880
1040
2020
4010
2020
1040
0880
0500
0200
ENDCHAR
STARTCHAR 25C9
ENCODING 9673
SWIDTH 720 0
DWIDTH 12 0
BBX 12 12 0 -2
BITMAP
0000
0700
18C0
2720
2FA0
5FD0
5FD0
5FD0
2FA0
2720
18C0
0700
ENDCHAR
STARTCHAR 25CB
ENCODING 9675
SWIDTH 720 0
DWIDTH 12 0
BBX 12 12 0 -2
BITMAP
0000
0600
1980
2040
2040
4020
4020
2040
2040
1980
0600
0000
ENDCHAR
STARTCHAR 25CE
ENCODING 9678
SWIDTH 720 0
DWIDTH 12 0
BBX 12 12 0 -2
BITMAP
0000
0600
1980
2640
2940
50A0
50A0
2940
2640
1980
0600
0000
ENDCHAR
STARTCHAR 25CF
ENCODING 9679
SWIDTH 720 0
DWIDTH 12 0
BBX 12 12 0 -2
BITMAP
0000
0600
1F80
3FC0
3FC0
7FE0
7FE0
3FC0
3FC0
1F80
0600
0000
ENDCHAR
STARTCHAR 25D0
ENCODING 9680
SWIDTH 720 0
DWIDTH 12 0
BBX 12 12 0 -2
BITMAP
0000
0700
1EC0
3E20
3E20
7E10
7E10
7E10
3E20
3E20
1EC0
0700
ENDCHAR
STARTCHAR 25D1
ENCODING 9681
SWIDTH 720 0
DWIDTH 12 0
BBX 12 12 0 -2
BITMAP
0000
0700
1BC0
23E0
23E0
43F0
43F0
43F0
23E0
23C0
1B80
0700
ENDCHAR
STARTCHAR 25D2
ENCODING 9682
SWIDTH 720 0
DWIDTH 12 0
BBX 12 12 0 -2
BITMAP
0000
0700
18C0
2020
2020
4010
7FF0
7FF0
3FE0
3FE0
1FC0
0700
ENDCHAR
STARTCHAR 25D3
ENCODING 9683
SWIDTH 720 0
DWIDTH 12 0
BBX 12 12 0 -2
BITMAP
0000
0700
1FC0
3FE0
3FE0
7FF0
7FF0
4010
2020
2020
18C0
0700
ENDCHAR
STARTCHAR 25E6
ENCODING 9702
SWIDTH 720 0
DWIDTH 12 0
BBX 12 12 0 -2
BITMAP
0000
0000
0000
0700
0D80
0880
0D80
0700
0000
0000
0000
0000
ENDCHAR
STARTCHAR 25EF
ENCODING 9711
SWIDTH 720 0
DWIDTH 12 0
BBX 12 12 0 -2
BITMAP
0000
0F00
1080
2040
4020
4020
4020
4020
2040
1080
0F00
0000
ENDCHAR
STARTCHAR 2600
ENCODING 9728
SWIDTH 720 0
DWIDTH 12 0
BBX 12 12 0 -2
BITMAP
0000
0200
2220
1040
0700
0F80
6FB0
0F80
0700
1040
2220
0200
ENDCHAR
STARTCHAR 2601
ENCODING 9729
SWIDTH 720 0
DWIDTH 12 0
BBX 12 12 0 -2
BITMAP
0000
0000
0E00
1F00
3FE0
7FF0
7FE0
7FF0
3BE0
01C0
0000
0000
ENDCHAR
STARTCHAR 2602
ENCODING 9730
SWIDTH 720 0
DWIDTH 12 0
BBX 12 12 0 -2
BITMAP
0000
0200
0200
1FC0
3FE0
7FF0
4A90
0200
0200
0200
1200
0C00
ENDCHAR
STARTCHAR 2603
ENCODING 9731
SWIDTH 720 0
DWIDTH 12 0
BBX 12 12 0 -2
BITMAP
0000
09D0
2FE0
59D0
2DE0
2DA0
5550
2220
4010
4210
4210
3FE0
ENDCHAR
STARTCHAR 2605
ENCODING 9733
SWIDTH 720 0
DWIDTH 12 0
BBX 12 12 0 -2
BITMAP
0000
0200
0200
0700
7FF0
3FE0
0F80
1FC0
1DC0
38E0
2020
0000
ENDCHAR
STARTCHAR 2606
ENCODING 9734
SWIDTH 720 0
DWIDTH 12 0
BBX 12 12 0 -2
BITMAP
0000
0200
0200
0500
78F0
3060
0880
1240
1540
38E0
2020
0000
ENDCHAR
STARTCHAR 260E
ENCODING 9742
SWIDTH 720 0
DWIDTH 12 0
BBX 12 12 0 -2
BITMAP
0000
0000
3FE0
68B0
6FB0
1FC0
38E0
38E0
78F0
7FF0
7FF0
0000
ENDCHAR
STARTCHAR 2616
ENCODING 9750
SWIDTH 720 0
DWIDTH 12 0
BBX 12 12 0 -2
BITMAP
0000
0600
1980
1080
2040
2040
2040
4020
4020
4020
7FE0
0000
ENDCHAR
STARTCHAR 2617
ENCODING 9751
SWIDTH 720 0
DWIDTH 12 0
BBX 12 12 0 -2
BITMAP
0000
0600
1F80
1F80
3FC0
3FC0
3FC0
7FE0
7FE0
7FE0
7FE0
0000
ENDCHAR
STARTCHAR 261E
ENCODING 9758
SWIDTH 720 0
DWIDTH 12 0
BBX 12 12 0 -2
BITMAP
0000
0000
0000
3FE0
6810
5EE0
5100
6500
2200
1C00
0000
0000
ENDCHAR
STARTCHAR 2640
ENCODING 9792
SWIDTH 720 0
DWIDTH 12 0
BBX 12 12 0 -2
BITMAP
0000
0700
0880
1040
1040
0880
0700
0200
1FC0
0200
0200
0200
ENDCHAR
STARTCHAR 2642
ENCODING 9794
SWIDTH 720 0
DWIDTH 12 0
BBX 12 12 0 -2
BITMAP
0000
0000
01E0
0060
00A0
0120
1A00
2400
4200
4200
2400
1800
ENDCHAR
STARTCHAR 2660
ENCODING 9824
SWIDTH 720 0
DWIDTH 12 0
BBX 12 12 0 -2
BITMAP
0000
0200
0700
0F80
1FC0
3FE0
3FE0
3FE0
1AC0
0200
0700
0000
ENDCHAR
STARTCHAR 2661
ENCODING 9825
SWIDTH 720 0
DWIDTH 12 0
BBX 12 12 0 -2
BITMAP
0000
0D80
1240
2220
2020
2020
1040
0880
0500
0200
0200
0000
ENDCHAR
STARTCHAR 2662
ENCODING 9826
SWIDTH 720 0
DWIDTH 12 0
BBX 12 12 0 -2
BITMAP
0000
0200
0500
0880
1040
2020
2020
1040
0880
0500
0200
0000
ENDCHAR
STARTCHAR 2663
ENCODING 9827
SWIDTH 720 0
DWIDTH 12 0
BBX 12 12 0 -2
BITMAP
0000
0700
0F80
0F80
1740
3AE0
3FE0
3FE0
1AC0
0200
0700
0000
ENDCHAR
STARTCHAR 2664
ENCODING 9828
SWIDTH 720 0
DWIDTH 12 0
BBX 12 12 0 -2
BITMAP
0000
0200
0500
0880
1040
2020
2020
2720
1AC0
0200
0700
0000
ENDCHAR
STARTCHAR 2665
ENCODING 9829
SWIDTH 720 0
DWIDTH 12 0
BBX 12 12 0 -2
BITMAP
0000
0D80
1FC0
3FE0
3FE0
3FE0
1FC0
0F80
0700
0200
0200
0000
ENDCHAR
STARTCHAR 2666
ENCODING 9830
SWIDTH 720 0
DWIDTH 12 0
BBX 12 12 0 -2
BITMAP
0000
0200
0700
0F80
1FC0
3FE0
3FE0
1FC0
0F80
0700
0200
0000
ENDCHAR
STARTCHAR 2667
ENCODING 9831
SWIDTH 720 0
DWIDTH 12 0
BBX 12 12 0 -2
BITMAP
0000
0700
0880
0880
18C0
2520
2020
2720
1AC0
0200
0700
0000
ENDCHAR
STARTCHAR 2668
ENCODING 9832
SWIDTH 720 0
DWIDTH 12 0
BBX 12 12 0 -2
BITMAP
0000
0200
1240
1440
2480
2480
3260
5250
5250
6490
2020
1FC0
ENDCHAR
STARTCHAR 2669
ENCODING 9833
SWIDTH 720 0
DWIDTH 12 0
BBX 12 12 0 -2
BITMAP
0000
0200
0200
0200
0200
0200
0200
0200
0200
1E00
3E00
1C00
ENDCHAR
STARTCHAR 266A
ENCODING 9834
SWIDTH 720 0
DWIDTH 12 0
BBX 12 12 0 -2
BITMAP
0000
0200
0300
0380
03C0
0260
0220
0240
0280
1E00
3E00
1C00
ENDCHAR
STARTCHAR 266B
ENCODING 9835
SWIDTH 720 0
DWIDTH 12 0
BBX 12 12 0 -2
BITMAP
0000
0F00
0FE0
08E0
0820
0820
0820
0820
3820
78E0
31E0
01C0
ENDCHAR
STARTCHAR 266C
ENCODING 9836
SWIDTH 720 0
DWIDTH 12 0
BBX 12 12 0 -2
BITMAP
0000
0F00
0FE0
08E0
0E20
0FE0
09E0
0820
3820
78E0
31E0
01C0
ENDCHAR
STARTCHAR 266D
ENCODING 9837
SWIDTH 720 0
DWIDTH 12 0
BBX 12 12 0 -2
BITMAP
0000
0800
0800
0800
0800
0B80
0CC0
08C0
0980
0900
0A00
0C00
ENDCHAR
STARTCHAR 266E
ENCODING 9838
SWIDTH 720 0
DWIDTH 12 0
BBX 12 12 0 -2
BITMAP
0000
0800
0840
09C0
0FC0
0E40
0840
09C0
0FC0
0E40
0840
0040
ENDCHAR
STARTCHAR 266F
ENCODING 9839
SWIDTH 720 0
DWIDTH 12 0
BBX 12 12 0 -2
BITMAP
0000
0080
0880
0FE0
3FE0
3D80
0880
0DE0
3FE0
3F80
0880
0800
ENDCHAR
STARTCHAR 2713
ENCODING 10003
SWIDTH 720 0
DWIDTH 12 0
BBX 12 12 0 -2
BITMAP
0000
0000
0020
0040
0080
0100
0200
6200
1400
0800
0800
0000
ENDCHAR
STARTCHAR 2756
ENCODING 10070
SWIDTH 720 0
DWIDTH 12 0
BBX 12 12 0 -2
BITMAP
0000
0600
0F00
0F00
1680
39C0
7FE0
39C0
1680
0F00
0F00
0600
ENDCHAR
STARTCHAR 2776
ENCODING 10102
SWIDTH 720 0
DWIDTH 12 0
BBX 12 12 0 -2
BITMAP
0000
1FC0
3FE0
7DF0
79F0
7DF0
7DF0
7DF0
7DF0
7070
3FE0
1FC0
ENDCHAR
STARTCHAR 2777
ENCODING 10103
SWIDTH 720 0
DWIDTH 12 0
BBX 12 12 0 -2
BITMAP
0000
1FC0
3FE0
78F0
7770
7EF0
7DF0
7BF0
77F0
7070
3FE0
1FC0
ENDCHAR
STARTCHAR 2778
ENCODING 10104
SWIDTH 720 0
DWIDTH 12 0
BBX 12 12 0 -2
BITMAP
0000
1FC0
3FE0
78F0
7770
7F70
7CF0
7F70
7770
78F0
3FE0
1FC0
ENDCHAR
STARTCHAR 2779
ENCODING 10105
SWIDTH 720 0
DWIDTH 12 0
BBX 12 12 0 -2
BITMAP
0000
1FC0
3FE0
7DF0
79F0
75F0
6DF0
6070
7DF0
78F0
3FE0
1FC0
ENDCHAR
STARTCHAR 277A
ENCODING 10106
SWIDTH 720 0
DWIDTH 12 0
BBX 12 12 0 -2
BITMAP
0000
1FC0
3FE0
7070
77F0
77F0
70F0
7F70
7770
78F0
3FE0
1FC0
ENDCHAR
STARTCHAR 277B
ENCODING 10107
SWIDTH 720 0
DWIDTH 12 0
BBX 12 12 0 -2
BITMAP
0000
1FC0
3FE0
78F0
7770
77F0
70F0
7770
7770
78F0
3FE0
1FC0
ENDCHAR
STARTCHAR 277C
ENCODING 10108
SWIDTH 720 0
DWIDTH 12 0
BBX 12 12 0 -2
BITMAP
0000
1FC0
3FE0
7070
7770
7EF0
7EF0
7DF0
7DF0
7DF0
3FE0
1FC0
ENDCHAR
STARTCHAR 277D
ENCODING 10109
SWIDTH 720 0
DWIDTH 12 0
BBX 12 12 0 -2
BITMAP
0000
1FC0
3FE0
78F0
7770
7770
78F0
7770
7770
78F0
3FE0
1FC0
ENDCHAR
STARTCHAR 277E
ENCODING 10110
SWIDTH 720 0
DWIDTH 12 0
BBX 12 12 0 -2
BITMAP
0000
1FC0
3FE0
78F0
7770
7770
7870
7F70
7770
78F0
3FE0
1FC0
ENDCHAR
STARTCHAR 277F
ENCODING 10111
SWIDTH 720 0
DWIDTH 12 0
BBX 12 12 0 -2
BITMAP
0000
1FC0
3FE0
7670
65B0
75B0
75B0
75B0
75B0
6270
3FE0
1FC0
ENDCHAR
STARTCHAR 2934
ENCODING 10548
SWIDTH 720 0
DWIDTH 12 0
BBX 12 12 0 -2
BITMAP
0000
0040
0040
00E0
0150
0040
0040
0080
0100
7E00
0000
0000
ENDCHAR
STARTCHAR 2935
ENCODING 10549
SWIDTH 720 0
DWIDTH 12 0
BBX 12 12 0 -2
BITMAP
0000
0000
3E00
0100
0080
0040
0040
0150
00E0
0040
0040
0000
ENDCHAR
STARTCHAR 29BF
ENCODING 10687
SWIDTH 720 0
DWIDTH 12 0
BBX 12 12 0 -2
BITMAP
0000
0700
18C0
2020
2220
4710
4F90
4710
2220
2020
18C0
0700
ENDCHAR
STARTCHAR 29FA
ENCODING 10746
SWIDTH 720 0
DWIDTH 12 0
BBX 12 12 0 -2
BITMAP
0000
0000
0880
0880
0880
0880
3FE0
0880
0880
0880
0880
0000
ENDCHAR
STARTCHAR 29FB
ENCODING 10747
SWIDTH 720 0
DWIDTH 12 0
BBX 12 12 0 -2
BITMAP
0000
0000
0A80
0A80
0A80
0A80
3FE0
0A80
0A80
0A80
0A80
0000
ENDCHAR
STARTCHAR 3000
ENCODING 12288
SWIDTH 720 0
DWIDTH 12 0
BBX 12 12 0 -2
BITMAP
0000
0000
0000
0000
0000
0000
0000
0000
0000
0000
0000
0000
ENDCHAR
STARTCHAR 3001
ENCODING 12289
SWIDTH 720 0
DWIDTH 12 0
BBX 12 12 0 -2
BITMAP
0000
0000
0000
0000
0000
0000
0000
0000
4000
3000
1800
1800
ENDCHAR
STARTCHAR 3002
ENCODING 12290
SWIDTH 720 0
DWIDTH 12 0
BBX 12 12 0 -2
BITMAP
0000
0000
0000
0000
0000
0000
0000
0000
3000
4800
4800
3000
ENDCHAR
STARTCHAR 3003
ENCODING 12291
SWIDTH 720 0
DWIDTH 12 0
BBX 12 12 0 -2
BITMAP
0000
0000
0000
0480
0480
0480
0480
0900
0900
1200
0000
0000
ENDCHAR
STARTCHAR 3005
ENCODING 12293
SWIDTH 720 0
DWIDTH 12 0
BBX 12 12 0 -2
BITMAP
0000
0400
0400
0400
0FC0
0880
1080
2500
0200
0100
0080
0000
ENDCHAR
STARTCHAR 3006
ENCODING 12294
SWIDTH 720 0
DWIDTH 12 0
BBX 12 12 0 -2
BITMAP
0000
0020
0020
0040
0C80
1300
2280
2400
2800
3000
2000
0000
ENDCHAR
STARTCHAR 3007
ENCODING 12295
SWIDTH 720 0
DWIDTH 12 0
BBX 12 12 0 -2
BITMAP
0000
0000
0F80
1040
2020
4010
4010
4010
2020
1040
0F80
0000
ENDCHAR
STARTCHAR 3008
ENCODING 12296
SWIDTH 720 0
DWIDTH 12 0
BBX 12 12 0 -2
BITMAP
0000
0040
0080
0080
0100
0100
0200
0100
0100
0080
0080
0040
ENDCHAR
STARTCHAR 3009
ENCODING 12297
SWIDTH 720 0
DWIDTH 12 0
BBX 12 12 0 -2
BITMAP
0000
1000
0800
0800
0400
0400
0200
0400
0400
0800
0800
1000
ENDCHAR
STARTCHAR 300A
ENCODING 12298
SWIDTH 720 0
DWIDTH 12 0
BBX 12 12 0 -2
BITMAP
0000
0090
0120
0120
0240
0240
0480
0240
0240
0120
0120
0090
ENDCHAR
STARTCHAR 300B
ENCODING 12299
SWIDTH 720 0
DWIDTH 12 0
BBX 12 12 0 -2
BITMAP
0000
4800
2400
2400
1200
1200
0900
1200
1200
2400
2400
4800
ENDCHAR
STARTCHAR 300C
ENCODING 12300
SWIDTH 720 0
DWIDTH 12 0
BBX 12 12 0 -2
BITMAP
0000
03C0
0200
0200
0200
0200
0200
0200
0200
0200
0000
0000
ENDCHAR
STARTCHAR 300D
ENCODING 12301
SWIDTH 720 0
DWIDTH 12 0
BBX 12 12 0 -2
BITMAP
0000
0000
0000
0200
0200
0200
0200
0200
0200
0200
0200
1E00
ENDCHAR
STARTCHAR 300E
ENCODING 12302
SWIDTH 720 0
DWIDTH 12 0
BBX 12 12 0 -2
BITMAP
0000
03F0
0210
02F0
0280
0280
0280
0280
0280
0280
0380
0000
ENDCHAR
STARTCHAR 300F
ENCODING 12303
SWIDTH 720 0
DWIDTH 12 0
BBX 12 12 0 -2
BITMAP
0000
0000
0E00
0A00
0A00
0A00
0A00
0A00
0A00
7A00
4200
7E00
ENDCHAR
STARTCHAR 3010
ENCODING 12304
SWIDTH 720 0
DWIDTH 12 0
BBX 12 12 0 -2
BITMAP
0000
03C0
0380
0300
0300
0200
0200
0200
0300
0300
0380
03C0
ENDCHAR
STARTCHAR 3011
ENCODING 12305
SWIDTH 720 0
DWIDTH 12 0
BBX 12 12 0 -2
BITMAP
0000
1E00
0E00
0600
0600
0200
0200
0200
0600
0600
0E00
1E00
ENDCHAR
STARTCHAR 3012
ENCODING 12306
SWIDTH 720 0
DWIDTH 12 0
BBX 12 12 0 -2
BITMAP
0000
3FE0
3FE0
0000
7FF0
7FF0
0200
0200
0200
0200
0200
0200
ENDCHAR
STARTCHAR 3013
ENCODING 12307
SWIDTH 720 0
DWIDTH 12 0
BBX 12 12 0 -2
BITMAP
0000
0000
0000
3FE0
3FE0
0000
0000
3FE0
3FE0
0000
0000
0000
ENDCHAR
STARTCHAR 3014
ENCODING 12308
SWIDTH 720 0
DWIDTH 12 0
BBX 12 12 0 -2
BITMAP
0000
00C0
0300
0200
0200
0200
0200
0200
0200
0200
0300
00C0
ENDCHAR
STARTCHAR 3015
ENCODING 12309
SWIDTH 720 0
DWIDTH 12 0
BBX 12 12 0 -2
BITMAP
0000
1800
0600
0200
0200
0200
0200
0200
0200
0200
0600
1800
ENDCHAR
STARTCHAR 3016
ENCODING 12310
SWIDTH 720 0
DWIDTH 12 0
BBX 12 12 0 -2
BITMAP
03E0
0240
0280
0280
0300
0300
0300
0300
0280
0280
0240
03E0
ENDCHAR
STARTCHAR 3017
ENCODING 12311
SWIDTH 720 0
DWIDTH 12 0
BBX 12 12 0 -2
BITMAP
3E00
1200
0A00
0A00
0600
0600
0600
0600
0A00
0A00
1200
3E00
ENDCHAR
STARTCHAR 3018
ENCODING 12312
SWIDTH 720 0
DWIDTH 12 0
BBX 12 12 0 -2
BITMAP
0060
0380
0260
0280
0280
0280
0280
0280
0280
0260
0380
0060
ENDCHAR
STARTCHAR 3019
ENCODING 12313
SWIDTH 720 0
DWIDTH 12 0
BBX 12 12 0 -2
BITMAP
3000
0E00
3200
0A00
0A00
0A00
0A00
0A00
0A00
3200
0E00
3000
ENDCHAR
STARTCHAR 301C
ENCODING 12316
SWIDTH 720 0
DWIDTH 12 0
BBX 12 12 0 -2
BITMAP
0000
0000
0000
0000
0000
3800
4620
01C0
0000
0000
0000
0000
ENDCHAR
STARTCHAR 301D
ENCODING 12317
SWIDTH 720 0
DWIDTH 12 0
BBX 12 12 0 -2
BITMAP
0000
00C0
0640
0220
0100
0000
0000
0000
0000
0000
0000
0000
ENDCHAR
STARTCHAR 301F
ENCODING 12319
SWIDTH 720 0
DWIDTH 12 0
BBX 12 12 0 -2
BITMAP
0000
0000
0000
0000
0000
0000
0000
0000
0800
4400
2600
3000
ENDCHAR
STARTCHAR 3020
ENCODING 12320
SWIDTH 720 0
DWIDTH 12 0
BBX 12 12 0 -2
BITMAP
0000
3FE0
0000
3FE0
2220
5AD0
6730
5AD0
28A0
2720
1040
0F80
ENDCHAR
STARTCHAR 3033
ENCODING 12339
SWIDTH 720 0
DWIDTH 12 0
BBX 12 12 0 -2
BITMAP
0000
0000
0000
0000
1800
2600
0180
0040
0020
0010
0000
0000
ENDCHAR
STARTCHAR 3034
ENCODING 12340
SWIDTH 720 0
DWIDTH 12 0
BBX 12 12 0 -2
BITMAP
0000
0300
0400
0180
1A00
2600
0180
0040
0020
0010
0000
0000
ENDCHAR
STARTCHAR 3035
ENCODING 12341
SWIDTH 720 0
DWIDTH 12 0
BBX 12 12 0 -2
BITMAP
0000
0000
0000
0000
01C0
0200
0C00
3000
4000
8000
0000
0000
ENDCHAR
STARTCHAR 303B
ENCODING 12347
SWIDTH 720 0
DWIDTH 12 0
BBX 12 12 0 -2
BITMAP
0000
0000
0400
0200
0180
0200
0400
0600
0300
0180
0000
0000
ENDCHAR
STARTCHAR 303C
ENCODING 12348
SWIDTH 720 0
DWIDTH 12 0
BBX 12 12 0 -2
BITMAP
FFF0
8030
8050
8090
8110
8210
8410
8810
9010
A010
C010
FFF0
ENDCHAR
STARTCHAR 303D
ENCODING 12349
SWIDTH 720 0
DWIDTH 12 0
BBX 12 12 0 -2
BITMAP
0000
1000
2B00
6A80
0480
0040
0040
0040
0060
0060
0020
0000
ENDCHAR
STARTCHAR 3041
ENCODING 12353
SWIDTH 720 0
DWIDTH 12 0
BBX 12 12 0 -2
BITMAP
0000
0000
0000
0400
0380
1E00
0500
0780
0D40
1240
1640
0880
ENDCHAR
STARTCHAR 3042
ENCODING 12354
SWIDTH 720 0
DWIDTH 12 0
BBX 12 12 0 -2
BITMAP
0000
0800
0780
3D00
0900
0FC0
1A20
2A10
4C10
5420
2040
0180
ENDCHAR
STARTCHAR 3043
ENCODING 12355
SWIDTH 720 0
DWIDTH 12 0
BBX 12 12 0 -2
BITMAP
0000
0000
0000
0000
2000
1080
1040
1040
10C0
1400
0800
0000
ENDCHAR
STARTCHAR 3044
ENCODING 12356
SWIDTH 720 0
DWIDTH 12 0
BBX 12 12 0 -2
BITMAP
0000
0000
4000
2180
2040
2020
2020
2060
1420
1800
0800
0000
ENDCHAR
STARTCHAR 3045
ENCODING 12357
SWIDTH 720 0
DWIDTH 12 0
BBX 12 12 0 -2
BITMAP
0000
0000
0000
0400
0300
0000
1380
0C40
0040
0040
0080
0300
ENDCHAR
STARTCHAR 3046
ENCODING 12358
SWIDTH 720 0
DWIDTH 12 0
BBX 12 12 0 -2
BITMAP
0000
0800
0700
0000
2780
1840
0040
0040
0080
0080
0100
0200
ENDCHAR
STARTCHAR 3047
ENCODING 12359
SWIDTH 720 0
DWIDTH 12 0
BBX 12 12 0 -2
BITMAP
0000
0000
0000
0400
0380
0000
1380
0D00
0200
0400
0A00
11C0
ENDCHAR
STARTCHAR 3048
ENCODING 12360
SWIDTH 720 0
DWIDTH 12 0
BBX 12 12 0 -2
BITMAP
0000
0800
0700
0000
2780
1900
0200
0400
0E00
1100
2100
20E0
ENDCHAR
STARTCHAR 3049
ENCODING 12361
SWIDTH 720 0
DWIDTH 12 0
BBX 12 12 0 -2
BITMAP
0000
0000
0000
1000
0E80
3860
0840
0B80
1C40
2840
1840
0980
ENDCHAR
STARTCHAR 304A
ENCODING 12362
SWIDTH 720 0
DWIDTH 12 0
BBX 12 12 0 -2
BITMAP
0000
1000
0AC0
0C20
3830
08C0
0B20
0C10
1810
6910
18E0
0800
ENDCHAR
STARTCHAR 304B
ENCODING 12363
SWIDTH 720 0
DWIDTH 12 0
BBX 12 12 0 -2
BITMAP
0000
0800
08C0
0E20
3910
0930
1100
1100
1100
2100
0200
0600
ENDCHAR
STARTCHAR 304C
ENCODING 12364
SWIDTH 720 0
DWIDTH 12 0
BBX 12 12 0 -2
BITMAP
0000
10A0
1050
1C50
73C0
1220
2260
2200
2200
4200
0400
0C00
ENDCHAR
STARTCHAR 304D
ENCODING 12365
SWIDTH 720 0
DWIDTH 12 0
BBX 12 12 0 -2
BITMAP
0000
0400
13C0
0E00
23E0
1D00
0080
0F80
1040
1000
0C00
0380
ENDCHAR
STARTCHAR 304E
ENCODING 12366
SWIDTH 720 0
DWIDTH 12 0
BBX 12 12 0 -2
BITMAP
0000
08A0
2750
1C50
0780
7A00
0100
1F00
2080
2000
1800
0700
ENDCHAR
STARTCHAR 304F
ENCODING 12367
SWIDTH 720 0
DWIDTH 12 0
BBX 12 12 0 -2
BITMAP
0000
0200
0100
0100
0200
0C00
1800
0400
0200
0100
0100
0100
ENDCHAR
STARTCHAR 3050
ENCODING 12368
SWIDTH 720 0
DWIDTH 12 0
BBX 12 12 0 -2
BITMAP
0000
04A0
0250
0250
0400
1800
3000
0800
0400
0200
0200
0200
ENDCHAR
STARTCHAR 3051
ENCODING 12369
SWIDTH 720 0
DWIDTH 12 0
BBX 12 12 0 -2
BITMAP
0000
0100
2080
1060
17C0
2040
2040
2040
2840
1080
1080
0100
ENDCHAR
STARTCHAR 3052
ENCODING 12370
SWIDTH 720 0
DWIDTH 12 0
BBX 12 12 0 -2
BITMAP
0000
02A0
2150
10F0
17C0
2040
2040
2040
2840
1080
1080
0100
ENDCHAR
STARTCHAR 3053
ENCODING 12371
SWIDTH 720 0
DWIDTH 12 0
BBX 12 12 0 -2
BITMAP
0000
1000
0FC0
0080
0100
0000
0000
0000
2000
1020
0FC0
0000
ENDCHAR
STARTCHAR 3054
ENCODING 12372
SWIDTH 720 0
DWIDTH 12 0
BBX 12 12 0 -2
BITMAP
0000
10A0
0F50
0150
0200
0000
0000
0000
2000
1020
0FC0
0000
ENDCHAR
STARTCHAR 3055
ENCODING 12373
SWIDTH 720 0
DWIDTH 12 0
BBX 12 12 0 -2
BITMAP
0000
0400
22C0
1F00
0100
0100
0F80
1080
2000
2000
1800
0700
ENDCHAR
STARTCHAR 3056
ENCODING 12374
SWIDTH 720 0
DWIDTH 12 0
BBX 12 12 0 -2
BITMAP
0000
08A0
2550
1E50
0200
0100
0F80
1080
2000
2000
1800
0700
ENDCHAR
STARTCHAR 3057
ENCODING 12375
SWIDTH 720 0
DWIDTH 12 0
BBX 12 12 0 -2
BITMAP
0000
1000
0800
0800
0800
0800
0800
0800
0820
0840
0480
0300
ENDCHAR
STARTCHAR 3058
ENCODING 12376
SWIDTH 720 0
DWIDTH 12 0
BBX 12 12 0 -2
BITMAP
0000
2140
10A0
10A0
1000
1000
1000
1000
1040
1080
0900
0600
ENDCHAR
STARTCHAR 3059
ENCODING 12377
SWIDTH 720 0
DWIDTH 12 0
BBX 12 12 0 -2
BITMAP
0000
0400
43F0
3E00
0200
0E00
1100
1100
0F00
0100
0200
0C00
ENDCHAR
STARTCHAR 305A
ENCODING 12378
SWIDTH 720 0
DWIDTH 12 0
BBX 12 12 0 -2
BITMAP
0000
04A0
42D0
3F50
0200
0E00
1100
1100
0F00
0100
0200
0C00
ENDCHAR
STARTCHAR 305B
ENCODING 12379
SWIDTH 720 0
DWIDTH 12 0
BBX 12 12 0 -2
BITMAP
0000
0100
2080
1080
51F0
3E80
1080
1080
1180
1080
0800
07C0
ENDCHAR
STARTCHAR 305C
ENCODING 12380
SWIDTH 720 0
DWIDTH 12 0
BBX 12 12 0 -2
BITMAP
0000
02A0
2150
1150
53E0
3D00
1100
1100
1300
1100
0800
07C0
ENDCHAR
STARTCHAR 305D
ENCODING 12381
SWIDTH 720 0
DWIDTH 12 0
BBX 12 12 0 -2
BITMAP
0000
1380
0D00
0200
0460
0F80
3100
0200
0400
0400
0200
0180
ENDCHAR
STARTCHAR 305E
ENCODING 12382
SWIDTH 720 0
DWIDTH 12 0
BBX 12 12 0 -2
BITMAP
0000
27A0
1A50
0250
0400
0F80
3200
0400
0800
0800
0400
0300
ENDCHAR
STARTCHAR 305F
ENCODING 12383
SWIDTH 720 0
DWIDTH 12 0
BBX 12 12 0 -2
BITMAP
0000
1000
0900
0E00
3800
09C0
0820
1040
1000
1200
2200
21E0
ENDCHAR
STARTCHAR 3060
ENCODING 12384
SWIDTH 720 0
DWIDTH 12 0
BBX 12 12 0 -2
BITMAP
0000
10A0
0A50
0C50
3800
09C0
0820
1040
1000
1200
2200
21E0
ENDCHAR
STARTCHAR 3061
ENCODING 12385
SWIDTH 720 0
DWIDTH 12 0
BBX 12 12 0 -2
BITMAP
0000
0800
2780
1C00
0800
0B80
0C40
1820
1020
0040
00C0
0700
ENDCHAR
STARTCHAR 3062
ENCODING 12386
SWIDTH 720 0
DWIDTH 12 0
BBX 12 12 0 -2
BITMAP
0000
08A0
2750
1C50
0800
0B80
0C40
1820
1020
0040
00C0
0700
ENDCHAR
STARTCHAR 3063
ENCODING 12387
SWIDTH 720 0
DWIDTH 12 0
BBX 12 12 0 -2
BITMAP
0000
0000
0000
0000
0000
0000
0380
2440
1840
0040
0080
0300
ENDCHAR
STARTCHAR 3064
ENCODING 12388
SWIDTH 720 0
DWIDTH 12 0
BBX 12 12 0 -2
BITMAP
0000
0000
0000
0780
4840
3020
0020
0020
0040
0380
0000
0000
ENDCHAR
STARTCHAR 3065
ENCODING 12389
SWIDTH 720 0
DWIDTH 12 0
BBX 12 12 0 -2
BITMAP
0000
00A0
0050
0750
4880
3040
0040
0040
0080
0700
0000
0000
ENDCHAR
STARTCHAR 3066
ENCODING 12390
SWIDTH 720 0
DWIDTH 12 0
BBX 12 12 0 -2
BITMAP
0000
0020
23C0
1D00
0100
0200
0200
0200
0200
0200
0100
00C0
ENDCHAR
STARTCHAR 3067
ENCODING 12391
SWIDTH 720 0
DWIDTH 12 0
BBX 12 12 0 -2
BITMAP
0000
00A0
2750
1A50
0200
0200
0400
0400
0400
0400
0200
0180
ENDCHAR
STARTCHAR 3068
ENCODING 12392
SWIDTH 720 0
DWIDTH 12 0
BBX 12 12 0 -2
BITMAP
0000
1000
0800
0800
08C0
0700
0400
0800
1000
1000
1000
0FC0
ENDCHAR
STARTCHAR 3069
ENCODING 12393
SWIDTH 720 0
DWIDTH 12 0
BBX 12 12 0 -2
BITMAP
0000
10A0
0850
0850
0880
0700
0400
0800
1000
1000
1000
0FC0
ENDCHAR
STARTCHAR 306A
ENCODING 12394
SWIDTH 720 0
DWIDTH 12 0
BBX 12 12 0 -2
BITMAP
0000
1000
0A00
7CC0
0820
1040
1080
2080
2780
08C0
08A0
0700
ENDCHAR
STARTCHAR 306B
ENCODING 12395
SWIDTH 720 0
DWIDTH 12 0
BBX 12 12 0 -2
BITMAP
0000
2000
13C0
1060
2080
2000
2000
2000
2400
2C00
13E0
1000
ENDCHAR
STARTCHAR 306C
ENCODING 12396
SWIDTH 720 0
DWIDTH 12 0
BBX 12 12 0 -2
BITMAP
0000
0400
0200
1380
1E40
3220
2A20
4C20
45C0
4A20
3250
0180
ENDCHAR
STARTCHAR 306D
ENCODING 12397
SWIDTH 720 0
DWIDTH 12 0
BBX 12 12 0 -2
BITMAP
0000
1000
0800
09C0
2A20
1C20
0820
1820
19E0
2A20
5A50
0980
ENDCHAR
STARTCHAR 306E
ENCODING 12398
SWIDTH 720 0
DWIDTH 12 0
BBX 12 12 0 -2
BITMAP
0000
0000
0780
0A40
1220
2220
2420
2420
2820
1040
0180
0000
ENDCHAR
STARTCHAR 306F
ENCODING 12399
SWIDTH 720 0
DWIDTH 12 0
BBX 12 12 0 -2
BITMAP
0000
0100
2080
14F0
1380
2080
2080
2080
2BC0
34A0
1490
1300
ENDCHAR
STARTCHAR 3070
ENCODING 12400
SWIDTH 720 0
DWIDTH 12 0
BBX 12 12 0 -2
BITMAP
0000
02A0
2150
1550
13E0
2080
2080
2080
2BC0
34A0
1490
1300
ENDCHAR
STARTCHAR 3071
ENCODING 12401
SWIDTH 720 0
DWIDTH 12 0
BBX 12 12 0 -2
BITMAP
0000
0260
2190
1590
13E0
2080
2080
2080
2BC0
34A0
1490
1300
ENDCHAR
STARTCHAR 3072
ENCODING 12402
SWIDTH 720 0
DWIDTH 12 0
BBX 12 12 0 -2
BITMAP
0000
0080
0880
3840
0860
1050
1040
1040
1040
1080
0900
0600
ENDCHAR
STARTCHAR 3073
ENCODING 12403
SWIDTH 720 0
DWIDTH 12 0
BBX 12 12 0 -2
BITMAP
0000
01A0
0950
3950
0880
1060
1050
1040
1040
1080
0900
0600
ENDCHAR
STARTCHAR 3074
ENCODING 12404
SWIDTH 720 0
DWIDTH 12 0
BBX 12 12 0 -2
BITMAP
0000
0160
0990
3890
08E0
1060
1050
1040
1040
1080
0900
0600
ENDCHAR
STARTCHAR 3075
ENCODING 12405
SWIDTH 720 0
DWIDTH 12 0
BBX 12 12 0 -2
BITMAP
0000
0400
0300
0100
0200
0400
0240
4520
2910
3130
2500
0200
ENDCHAR
STARTCHAR 3076
ENCODING 12406
SWIDTH 720 0
DWIDTH 12 0
BBX 12 12 0 -2
BITMAP
0000
04A0
0350
0150
0200
0400
0240
4520
2910
3130
2500
0200
ENDCHAR
STARTCHAR 3077
ENCODING 12407
SWIDTH 720 0
DWIDTH 12 0
BBX 12 12 0 -2
BITMAP
0000
0460
0390
0190
0260
0400
0240
4520
2910
3130
2500
0200
ENDCHAR
STARTCHAR 3078
ENCODING 12408
SWIDTH 720 0
DWIDTH 12 0
BBX 12 12 0 -2
BITMAP
0000
0000
0000
0800
0C00
1400
1200
2100
2080
0060
0000
0000
ENDCHAR
STARTCHAR 3079
ENCODING 12409
SWIDTH 720 0
DWIDTH 12 0
BBX 12 12 0 -2
BITMAP
0000
0000
00A0
0850
0C50
1400
1200
2100
2080
0060
0000
0000
ENDCHAR
STARTCHAR 307A
ENCODING 12410
SWIDTH 720 0
DWIDTH 12 0
BBX 12 12 0 -2
BITMAP
0000
0000
00C0
0920
0D20
14C0
1200
2100
2080
0060
0000
0000
ENDCHAR
STARTCHAR 307B
ENCODING 12411
SWIDTH 720 0
DWIDTH 12 0
BBX 12 12 0 -2
BITMAP
0000
0000
24E0
1300
1080
24F0
2380
2080
2BC0
34A0
1490
1300
ENDCHAR
STARTCHAR 307C
ENCODING 12412
SWIDTH 720 0
DWIDTH 12 0
BBX 12 12 0 -2
BITMAP
0000
00A0
2450
13D0
1080
24F0
2380
2080
2BC0
34A0
1490
1300
ENDCHAR
STARTCHAR 307D
ENCODING 12413
SWIDTH 720 0
DWIDTH 12 0
BBX 12 12 0 -2
BITMAP
0000
0060
2490
1390
10E0
24F0
2380
2080
2BC0
34A0
1490
1300
ENDCHAR
STARTCHAR 307E
ENCODING 12414
SWIDTH 720 0
DWIDTH 12 0
BBX 12 12 0 -2
BITMAP
0000
0400
23C0
1E00
0200
2380
1E00
0200
1E00
2380
2240
1C00
ENDCHAR
STARTCHAR 307F
ENCODING 12415
SWIDTH 720 0
DWIDTH 12 0
BBX 12 12 0 -2
BITMAP
0000
1200
0E00
0200
0280
0440
1FC0
2460
4850
4880
3080
0100
ENDCHAR
STARTCHAR 3080
ENCODING 12416
SWIDTH 720 0
DWIDTH 12 0
BBX 12 12 0 -2
BITMAP
0000
0800
0400
26C0
1C20
0430
1C00
2440
2420
1820
0820
07C0
ENDCHAR
STARTCHAR 3081
ENCODING 12417
SWIDTH 720 0
DWIDTH 12 0
BBX 12 12 0 -2
BITMAP
0000
0400
0200
1380
1E40
3220
2A20
4C20
4420
4A20
3040
0180
ENDCHAR
STARTCHAR 3082
ENCODING 12418
SWIDTH 720 0
DWIDTH 12 0
BBX 12 12 0 -2
BITMAP
0000
0400
2200
1F00
0400
2400
1E40
0820
0820
0820
0440
0380
ENDCHAR
STARTCHAR 3083
ENCODING 12419
SWIDTH 720 0
DWIDTH 12 0
BBX 12 12 0 -2
BITMAP
0000
0000
0000
0100
0880
0880
05C0
2620
1C20
0240
0200
0200
ENDCHAR
STARTCHAR 3084
ENCODING 12420
SWIDTH 720 0
DWIDTH 12 0
BBX 12 12 0 -2
BITMAP
0000
0300
1080
1040
0BC0
4C20
3420
04C0
0400
0200
0200
0200
ENDCHAR
STARTCHAR 3085
ENCODING 12421
SWIDTH 720 0
DWIDTH 12 0
BBX 12 12 0 -2
BITMAP
0000
0000
0000
0200
2100
13C0
1520
1920
1120
13C0
0100
0200
ENDCHAR
STARTCHAR 3086
ENCODING 12422
SWIDTH 720 0
DWIDTH 12 0
BBX 12 12 0 -2
BITMAP
0000
0200
4100
23C0
2D20
3110
2110
2110
2520
03C0
0100
0200
ENDCHAR
STARTCHAR 3087
ENCODING 12423
SWIDTH 720 0
DWIDTH 12 0
BBX 12 12 0 -2
BITMAP
0000
0000
0000
0000
0400
0240
0380
0200
0200
0E00
1380
0C40
ENDCHAR
STARTCHAR 3088
ENCODING 12424
SWIDTH 720 0
DWIDTH 12 0
BBX 12 12 0 -2
BITMAP
0000
0400
0200
0260
0380
0200
0200
0200
1F00
22C0
2220
1C00
ENDCHAR
STARTCHAR 3089
ENCODING 12425
SWIDTH 720 0
DWIDTH 12 0
BBX 12 12 0 -2
BITMAP
0000
0400
0380
0C00
0800
1000
17C0
1820
1020
0020
00C0
0300
ENDCHAR
STARTCHAR 308A
ENCODING 12426
SWIDTH 720 0
DWIDTH 12 0
BBX 12 12 0 -2
BITMAP
0000
0080
10C0
0840
0C40
0840
0840
0840
0080
0080
0100
0200
ENDCHAR
STARTCHAR 308B
ENCODING 12427
SWIDTH 720 0
DWIDTH 12 0
BBX 12 12 0 -2
BITMAP
0000
1300
0D00
0200
0400
0F00
0880
1040
2040
0640
0980
0700
ENDCHAR
STARTCHAR 308C
ENCODING 12428
SWIDTH 720 0
DWIDTH 12 0
BBX 12 12 0 -2
BITMAP
0000
1000
0800
0980
3A40
0C40
0840
1840
2840
0850
1820
0800
ENDCHAR
STARTCHAR 308D
ENCODING 12429
SWIDTH 720 0
DWIDTH 12 0
BBX 12 12 0 -2
BITMAP
0000
1100
0E00
0200
0400
0F00
0880
1040
2040
0040
0080
0700
ENDCHAR
STARTCHAR 308E
ENCODING 12430
SWIDTH 720 0
DWIDTH 12 0
BBX 12 12 0 -2
BITMAP
0000
0000
0000
1000
0800
0800
3B80
0C40
0840
1840
2880
0900
ENDCHAR
STARTCHAR 308F
ENCODING 12431
SWIDTH 720 0
DWIDTH 12 0
BBX 12 12 0 -2
BITMAP
0000
1000
0800
09C0
3A20
0C10
0810
1810
2810
0820
18C0
0800
ENDCHAR
STARTCHAR 3090
ENCODING 12432
SWIDTH 720 0
DWIDTH 12 0
BBX 12 12 0 -2
BITMAP
0000
1300
0D00
0200
03C0
0C20
1410
2410
2810
29D0
1220
01C0
ENDCHAR
STARTCHAR 3091
ENCODING 12433
SWIDTH 720 0
DWIDTH 12 0
BBX 12 12 0 -2
BITMAP
0000
0900
0600
0200
0F80
3040
0640
0980
1600
1CE0
2310
4030
ENDCHAR
STARTCHAR 3092
ENCODING 12434
SWIDTH 720 0
DWIDTH 12 0
BBX 12 12 0 -2
BITMAP
0000
0800
2580
1E00
0820
0EC0
1100
2300
0500
0800
0800
07C0
ENDCHAR
STARTCHAR 3093
ENCODING 12435
SWIDTH 720 0
DWIDTH 12 0
BBX 12 12 0 -2
BITMAP
0000
0800
0400
0400
0800
0800
0E00
1100
1100
1110
2120
20C0
ENDCHAR
STARTCHAR 3094
ENCODING 12436
SWIDTH 720 0
DWIDTH 12 0
BBX 12 12 0 -2
BITMAP
0000
08A0
0650
0050
2700
1880
0080
0080
0100
0100
0200
0400
ENDCHAR
STARTCHAR 3095
ENCODING 12437
SWIDTH 720 0
DWIDTH 12 0
BBX 12 12 0 -2
BITMAP
0000
0000
0000
0000
0400
0480
1E40
0520
0960
0900
1200
0600
ENDCHAR
STARTCHAR 3096
ENCODING 12438
SWIDTH 720 0
DWIDTH 12 0
BBX 12 12 0 -2
BITMAP
0000
0000
0000
0000
1100
0880
14E0
1380
1080
1480
0880
0900
ENDCHAR
STARTCHAR 309B
ENCODING 12443
SWIDTH 720 0
DWIDTH 12 0
BBX 12 12 0 -2
BITMAP
0000
0800
2400
1000
0000
0000
0000
0000
0000
0000
0000
0000
ENDCHAR
STARTCHAR 309C
ENCODING 12444
SWIDTH 720 0
DWIDTH 12 0
BBX 12 12 0 -2
BITMAP
0000
1800
2400
2400
1800
0000
0000
0000
0000
0000
0000
0000
ENDCHAR
STARTCHAR 309D
ENCODING 12445
SWIDTH 720 0
DWIDTH 12 0
BBX 12 12 0 -2
BITMAP
0000
0000
0000
0000
1800
0600
0100
0180
0200
0000
0000
0000
ENDCHAR
STARTCHAR 309E
ENCODING 12446
SWIDTH 720 0
DWIDTH 12 0
BBX 12 12 0 -2
BITMAP
0000
0080
0240
0140
1900
0600
0100
0180
0200
0000
0000
0000
ENDCHAR
STARTCHAR 309F
ENCODING 12447
SWIDTH 720 0
DWIDTH 12 0
BBX 12 12 0 -2
BITMAP
0000
0200
0200
03C0
0400
0400
0780
0840
0840
1840
1480
1300
ENDCHAR
STARTCHAR 30A0
ENCODING 12448
SWIDTH 720 0
DWIDTH 12 0
BBX 12 12 0 -2
BITMAP
0000
0000
0000
0000
0F80
0000
0000
0F80
0000
0000
0000
0000
ENDCHAR
STARTCHAR 30A1
ENCODING 12449
SWIDTH 720 0
DWIDTH 12 0
BBX 12 12 0 -2
BITMAP
0000
0000
0000
0000
0000
13C0
0C40
0280
0200
0200
0400
0800
ENDCHAR
STARTCHAR 30A2
ENCODING 12450
SWIDTH 720 0
DWIDTH 12 0
BBX 12 12 0 -2
BITMAP
0000
0000
23E0
1C20
0240
0280
0200
0200
0400
0400
0800
1000
ENDCHAR
STARTCHAR 30A3
ENCODING 12451
SWIDTH 720 0
DWIDTH 12 0
BBX 12 12 0 -2
BITMAP
0000
0000
0000
0000
0000
0080
0100
0600
1A00
0200
0200
0200
ENDCHAR
STARTCHAR 30A4
ENCODING 12452
SWIDTH 720 0
DWIDTH 12 0
BBX 12 12 0 -2
BITMAP
0000
0040
0040
0080
0100
0600
3900
0100
0100
0100
0100
0100
ENDCHAR
STARTCHAR 30A5
ENCODING 12453
SWIDTH 720 0
DWIDTH 12 0
BBX 12 12 0 -2
BITMAP
0000
0000
0000
0000
0400
03C0
1E40
0840
0080
0080
0300
0C00
ENDCHAR
STARTCHAR 30A6
ENCODING 12454
SWIDTH 720 0
DWIDTH 12 0
BBX 12 12 0 -2
BITMAP
0000
0400
0200
03E0
3E20
1020
1020
0040
0040
0080
0300
0C00
ENDCHAR
STARTCHAR 30A7
ENCODING 12455
SWIDTH 720 0
DWIDTH 12 0
BBX 12 12 0 -2
BITMAP
0000
0000
0000
0000
0000
0000
1180
0E00
0200
0200
0380
1C40
ENDCHAR
STARTCHAR 30A8
ENCODING 12456
SWIDTH 720 0
DWIDTH 12 0
BBX 12 12 0 -2
BITMAP
0000
0000
0000
21E0
1E00
0200
0200
0200
0200
07E0
7810
0000
ENDCHAR
STARTCHAR 30A9
ENCODING 12457
SWIDTH 720 0
DWIDTH 12 0
BBX 12 12 0 -2
BITMAP
0000
0000
0000
0000
0200
1100
0FE0
0300
0500
0900
3100
0300
ENDCHAR
STARTCHAR 30AA
ENCODING 12458
SWIDTH 720 0
DWIDTH 12 0
BBX 12 12 0 -2
BITMAP
0000
0200
0100
21E0
1F00
0300
0500
0900
1100
6100
0300
0100
ENDCHAR
STARTCHAR 30AB
ENCODING 12459
SWIDTH 720 0
DWIDTH 12 0
BBX 12 12 0 -2
BITMAP
0000
0400
0200
23E0
1E20
0220
0420
0420
0820
1040
2140
0080
ENDCHAR
STARTCHAR 30AC
ENCODING 12460
SWIDTH 720 0
DWIDTH 12 0
BBX 12 12 0 -2
BITMAP
0000
04A0
0250
23F0
1E20
0220
0420
0420
0820
1040
2140
0080
ENDCHAR
STARTCHAR 30AD
ENCODING 12461
SWIDTH 720 0
DWIDTH 12 0
BBX 12 12 0 -2
BITMAP
0000
0800
0400
04C0
0700
3A00
0260
0780
3900
0100
0080
0080
ENDCHAR
STARTCHAR 30AE
ENCODING 12462
SWIDTH 720 0
DWIDTH 12 0
BBX 12 12 0 -2
BITMAP
0000
08A0
0450
04D0
0700
3A00
0260
0780
3900
0100
0080
0080
ENDCHAR
STARTCHAR 30AF
ENCODING 12463
SWIDTH 720 0
DWIDTH 12 0
BBX 12 12 0 -2
BITMAP
0000
0200
0200
03C0
0440
0840
1080
0080
0100
0200
0400
1800
ENDCHAR
STARTCHAR 30B0
ENCODING 12464
SWIDTH 720 0
DWIDTH 12 0
BBX 12 12 0 -2
BITMAP
0000
02A0
0250
03D0
0440
0840
1080
0080
0100
0200
0400
1800
ENDCHAR
STARTCHAR 30B1
ENCODING 12465
SWIDTH 720 0
DWIDTH 12 0
BBX 12 12 0 -2
BITMAP
0000
1000
0800
08E0
1F00
1080
2080
0080
0100
0100
0200
0400
ENDCHAR
STARTCHAR 30B2
ENCODING 12466
SWIDTH 720 0
DWIDTH 12 0
BBX 12 12 0 -2
BITMAP
0000
10A0
0850
08D0
1F00
1080
2080
0080
0100
0100
0200
0400
ENDCHAR
STARTCHAR 30B3
ENCODING 12467
SWIDTH 720 0
DWIDTH 12 0
BBX 12 12 0 -2
BITMAP
0000
0000
0000
23C0
1C40
0040
0040
0040
0040
07C0
3840
0000
ENDCHAR
STARTCHAR 30B4
ENCODING 12468
SWIDTH 720 0
DWIDTH 12 0
BBX 12 12 0 -2
BITMAP
0000
00A0
0050
23D0
1C40
0040
0040
0040
0040
07C0
3840
0000
ENDCHAR
STARTCHAR 30B5
ENCODING 12469
SWIDTH 720 0
DWIDTH 12 0
BBX 12 12 0 -2
BITMAP
0000
0100
1080
0880
49F0
3E80
0880
0880
0100
0100
0200
0C00
ENDCHAR
STARTCHAR 30B6
ENCODING 12470
SWIDTH 720 0
DWIDTH 12 0
BBX 12 12 0 -2
BITMAP
0000
02A0
1150
0950
49E0
3F00
0900
0900
0100
0100
0200
0C00
ENDCHAR
STARTCHAR 30B7
ENCODING 12471
SWIDTH 720 0
DWIDTH 12 0
BBX 12 12 0 -2
BITMAP
0000
0000
1800
0400
0000
3000
0820
0040
0080
0100
2600
1800
ENDCHAR
STARTCHAR 30B8
ENCODING 12472
SWIDTH 720 0
DWIDTH 12 0
BBX 12 12 0 -2
BITMAP
0000
0000
18A0
0450
0050
3000
0820
0040
0080
0100
2600
1800
ENDCHAR
STARTCHAR 30B9
ENCODING 12473
SWIDTH 720 0
DWIDTH 12 0
BBX 12 12 0 -2
BITMAP
0000
0000
13C0
0C40
0080
0080
0100
0100
0280
0440
0820
3020
ENDCHAR
STARTCHAR 30BA
ENCODING 12474
SWIDTH 720 0
DWIDTH 12 0
BBX 12 12 0 -2
BITMAP
0000
00A0
2750
1950
0100
0100
0200
0300
0480
0840
1020
2020
ENDCHAR
STARTCHAR 30BB
ENCODING 12475
SWIDTH 720 0
DWIDTH 12 0
BBX 12 12 0 -2
BITMAP
0000
2000
1000
11E0
5640
3840
1080
1100
1000
0800
07C0
0000
ENDCHAR
STARTCHAR 30BC
ENCODING 12476
SWIDTH 720 0
DWIDTH 12 0
BBX 12 12 0 -2
BITMAP
0000
20A0
1050
11D0
5640
3840
1080
1100
1000
0800
07C0
0000
ENDCHAR
STARTCHAR 30BD
ENCODING 12477
SWIDTH 720 0
DWIDTH 12 0
BBX 12 12 0 -2
BITMAP
0000
0000
2040
1020
0820
0820
0040
0040
0080
0100
0200
0400
ENDCHAR
STARTCHAR 30BE
ENCODING 12478
SWIDTH 720 0
DWIDTH 12 0
BBX 12 12 0 -2
BITMAP
0000
00A0
2050
1050
0880
0880
0080
0100
0100
0200
0400
0800
ENDCHAR
STARTCHAR 30BF
ENCODING 12479
SWIDTH 720 0
DWIDTH 12 0
BBX 12 12 0 -2
BITMAP
0000
0200
0200
03E0
0420
0E40
1140
00C0
0080
0100
0600
1800
ENDCHAR
STARTCHAR 30C0
ENCODING 12480
SWIDTH 720 0
DWIDTH 12 0
BBX 12 12 0 -2
BITMAP
0000
04A0
0450
07D0
0880
1C80
2280
0100
0100
0200
0C00
3000
ENDCHAR
STARTCHAR 30C1
ENCODING 12481
SWIDTH 720 0
DWIDTH 12 0
BBX 12 12 0 -2
BITMAP
0000
0040
0180
1E00
0200
43F0
3D00
0100
0200
0200
0400
0800
ENDCHAR
STARTCHAR 30C2
ENCODING 12482
SWIDTH 720 0
DWIDTH 12 0
BBX 12 12 0 -2
BITMAP
0000
00A0
0150
1E50
0200
43F0
3D00
0100
0200
0200
0400
0800
ENDCHAR
STARTCHAR 30C3
ENCODING 12483
SWIDTH 720 0
DWIDTH 12 0
BBX 12 12 0 -2
BITMAP
0000
0000
0000
0000
0000
0400
1240
0A40
0880
0080
0100
0200
ENDCHAR
STARTCHAR 30C4
ENCODING 12484
SWIDTH 720 0
DWIDTH 12 0
BBX 12 12 0 -2
BITMAP
0000
0000
0840
4420
2220
1220
1040
0040
0080
0100
0200
0400
ENDCHAR
STARTCHAR 30C5
ENCODING 12485
SWIDTH 720 0
DWIDTH 12 0
BBX 12 12 0 -2
BITMAP
0000
00A0
0850
4450
2280
1240
1040
0080
0080
0100
0200
0400
ENDCHAR
STARTCHAR 30C6
ENCODING 12486
SWIDTH 720 0
DWIDTH 12 0
BBX 12 12 0 -2
BITMAP
0000
0000
13C0
0C00
0000
41F0
3E00
0100
0200
0200
0400
0800
ENDCHAR
STARTCHAR 30C7
ENCODING 12487
SWIDTH 720 0
DWIDTH 12 0
BBX 12 12 0 -2
BITMAP
0000
00A0
1350
0C50
0000
41F0
3E00
0100
0200
0200
0400
0800
ENDCHAR
STARTCHAR 30C8
ENCODING 12488
SWIDTH 720 0
DWIDTH 12 0
BBX 12 12 0 -2
BITMAP
0000
0800
0400
0400
0400
0780
0460
0400
0400
0400
0400
0400
ENDCHAR
STARTCHAR 30C9
ENCODING 12489
SWIDTH 720 0
DWIDTH 12 0
BBX 12 12 0 -2
BITMAP
0000
08A0
0450
0450
0400
0780
0460
0400
0400
0400
0400
0400
ENDCHAR
STARTCHAR 30CA
ENCODING 12490
SWIDTH 720 0
DWIDTH 12 0
BBX 12 12 0 -2
BITMAP
0000
0400
0200
0200
43F0
3E00
0200
0200
0400
0400
0800
1000
ENDCHAR
STARTCHAR 30CB
ENCODING 12491
SWIDTH 720 0
DWIDTH 12 0
BBX 12 12 0 -2
BITMAP
0000
0000
0000
01C0
1E00
0000
0000
0000
01E0
7E10
0000
0000
ENDCHAR
STARTCHAR 30CC
ENCODING 12492
SWIDTH 720 0
DWIDTH 12 0
BBX 12 12 0 -2
BITMAP
0000
0000
11C0
0E40
0040
0C80
0280
0100
0280
0C40
3020
0000
ENDCHAR
STARTCHAR 30CD
ENCODING 12493
SWIDTH 720 0
DWIDTH 12 0
BBX 12 12 0 -2
BITMAP
0000
0400
0200
23C0
1C80
0100
0280
0E40
3220
0200
0200
0200
ENDCHAR
STARTCHAR 30CE
ENCODING 12494
SWIDTH 720 0
DWIDTH 12 0
BBX 12 12 0 -2
BITMAP
0000
0000
0080
0040
0040
0080
0080
0100
0200
0400
1800
0000
ENDCHAR
STARTCHAR 30CF
ENCODING 12495
SWIDTH 720 0
DWIDTH 12 0
BBX 12 12 0 -2
BITMAP
0000
0000
0000
0100
0880
0840
0840
0820
1020
1020
2020
0000
ENDCHAR
STARTCHAR 30D0
ENCODING 12496
SWIDTH 720 0
DWIDTH 12 0
BBX 12 12 0 -2
BITMAP
0000
00A0
0050
0150
0880
0840
0840
0820
1020
1020
2020
0000
ENDCHAR
STARTCHAR 30D1
ENCODING 12497
SWIDTH 720 0
DWIDTH 12 0
BBX 12 12 0 -2
BITMAP
0000
0060
0090
0190
08E0
0840
0840
0820
1020
1020
2020
0000
ENDCHAR
STARTCHAR 30D2
ENCODING 12498
SWIDTH 720 0
DWIDTH 12 0
BBX 12 12 0 -2
BITMAP
0000
2000
1000
1040
1380
1C00
1000
1000
1000
0800
07E0
0000
ENDCHAR
STARTCHAR 30D3
ENCODING 12499
SWIDTH 720 0
DWIDTH 12 0
BBX 12 12 0 -2
BITMAP
0000
20A0
1050
10D0
1300
1C00
1000
1000
1000
0800
07E0
0000
ENDCHAR
STARTCHAR 30D4
ENCODING 12500
SWIDTH 720 0
DWIDTH 12 0
BBX 12 12 0 -2
BITMAP
0000
2060
1090
1090
1360
1C00
1000
1000
1000
0800
07E0
0000
ENDCHAR
STARTCHAR 30D5
ENCODING 12501
SWIDTH 720 0
DWIDTH 12 0
BBX 12 12 0 -2
BITMAP
0000
0000
23E0
1C20
0020
0040
0040
0080
0100
0600
1800
0000
ENDCHAR
STARTCHAR 30D6
ENCODING 12502
SWIDTH 720 0
DWIDTH 12 0
BBX 12 12 0 -2
BITMAP
0000
00A0
4750
3950
0100
0100
0100
0200
0200
0400
1800
0000
ENDCHAR
STARTCHAR 30D7
ENCODING 12503
SWIDTH 720 0
DWIDTH 12 0
BBX 12 12 0 -2
BITMAP
0000
0060
4790
3990
0160
0100
0100
0200
0200
0400
1800
0000
ENDCHAR
STARTCHAR 30D8
ENCODING 12504
SWIDTH 720 0
DWIDTH 12 0
BBX 12 12 0 -2
BITMAP
0000
0000
0000
0400
0400
0A00
1100
6080
0040
0030
0000
0000
ENDCHAR
STARTCHAR 30D9
ENCODING 12505
SWIDTH 720 0
DWIDTH 12 0
BBX 12 12 0 -2
BITMAP
0000
0000
0140
04A0
04A0
0A00
1100
6080
0040
0030
0000
0000
ENDCHAR
STARTCHAR 30DA
ENCODING 12506
SWIDTH 720 0
DWIDTH 12 0
BBX 12 12 0 -2
BITMAP
0000
0000
0060
0490
0490
0A60
1100
6080
0040
0030
0000
0000
ENDCHAR
STARTCHAR 30DB
ENCODING 12507
SWIDTH 720 0
DWIDTH 12 0
BBX 12 12 0 -2
BITMAP
0000
0400
0200
23E0
1E00
0200
0A80
0A40
1220
2220
0600
0200
ENDCHAR
STARTCHAR 30DC
ENCODING 12508
SWIDTH 720 0
DWIDTH 12 0
BBX 12 12 0 -2
BITMAP
0000
04A0
0250
23D0
1E00
0200
0A80
0A40
1220
2220
0600
0200
ENDCHAR
STARTCHAR 30DD
ENCODING 12509
SWIDTH 720 0
DWIDTH 12 0
BBX 12 12 0 -2
BITMAP
0000
0460
0290
2390
1E60
0200
0A80
0A40
1220
2220
0600
0200
ENDCHAR
STARTCHAR 30DE
ENCODING 12510
SWIDTH 720 0
DWIDTH 12 0
BBX 12 12 0 -2
BITMAP
0000
0000
0000
23E0
1C40
0080
0900
0600
0100
0080
0080
0000
ENDCHAR
STARTCHAR 30DF
ENCODING 12511
SWIDTH 720 0
DWIDTH 12 0
BBX 12 12 0 -2
BITMAP
0000
0C00
0300
00C0
0000
0C00
0200
0180
0000
1800
0700
00C0
ENDCHAR
STARTCHAR 30E0
ENCODING 12512
SWIDTH 720 0
DWIDTH 12 0
BBX 12 12 0 -2
BITMAP
0000
0400
0200
0200
0400
0400
0480
0840
0840
0FA0
3020
0000
ENDCHAR
STARTCHAR 30E1
ENCODING 12513
SWIDTH 720 0
DWIDTH 12 0
BBX 12 12 0 -2
BITMAP
0000
0000
0080
0040
0040
0C80
0280
0180
0240
0420
0820
3000
ENDCHAR
STARTCHAR 30E2
ENCODING 12514
SWIDTH 720 0
DWIDTH 12 0
BBX 12 12 0 -2
BITMAP
0000
0000
21C0
1E00
0400
0400
27E0
1C00
0400
0400
03E0
0000
ENDCHAR
STARTCHAR 30E3
ENCODING 12515
SWIDTH 720 0
DWIDTH 12 0
BBX 12 12 0 -2
BITMAP
0000
0000
0000
0000
0800
0400
03E0
1E20
0240
0100
0100
0100
ENDCHAR
STARTCHAR 30E4
ENCODING 12516
SWIDTH 720 0
DWIDTH 12 0
BBX 12 12 0 -2
BITMAP
0000
0800
0400
04F0
4F20
3440
0240
0200
0200
0100
0100
0100
ENDCHAR
STARTCHAR 30E5
ENCODING 12517
SWIDTH 720 0
DWIDTH 12 0
BBX 12 12 0 -2
BITMAP
0000
0000
0000
0000
0000
0700
1900
0100
0100
0380
1C40
0000
ENDCHAR
STARTCHAR 30E6
ENCODING 12518
SWIDTH 720 0
DWIDTH 12 0
BBX 12 12 0 -2
BITMAP
0000
0000
0000
1380
0C80
0080
0080
0080
03E0
7C10
0000
0000
ENDCHAR
STARTCHAR 30E7
ENCODING 12519
SWIDTH 720 0
DWIDTH 12 0
BBX 12 12 0 -2
BITMAP
0000
0000
0000
0000
01C0
0E40
0040
01C0
0E40
0040
01C0
0E20
ENDCHAR
STARTCHAR 30E8
ENCODING 12520
SWIDTH 720 0
DWIDTH 12 0
BBX 12 12 0 -2
BITMAP
0000
0000
23C0
1C40
0040
03C0
1C40
0040
0040
03C0
1C20
0000
ENDCHAR
STARTCHAR 30E9
ENCODING 12521
SWIDTH 720 0
DWIDTH 12 0
BBX 12 12 0 -2
BITMAP
0000
0000
11C0
0E00
0000
21E0
1E40
0040
0080
0100
0200
0C00
ENDCHAR
STARTCHAR 30EA
ENCODING 12522
SWIDTH 720 0
DWIDTH 12 0
BBX 12 12 0 -2
BITMAP
0000
0080
1040
0840
0840
0840
0840
0840
0080
0080
0100
0200
ENDCHAR
STARTCHAR 30EB
ENCODING 12523
SWIDTH 720 0
DWIDTH 12 0
BBX 12 12 0 -2
BITMAP
0000
0200
1100
0900
0900
0900
0920
0920
1140
1180
6100
0000
ENDCHAR
STARTCHAR 30EC
ENCODING 12524
SWIDTH 720 0
DWIDTH 12 0
BBX 12 12 0 -2
BITMAP
0000
1000
0800
0800
0800
0800
0820
0840
0880
0B00
0C00
0000
ENDCHAR
STARTCHAR 30ED
ENCODING 12525
SWIDTH 720 0
DWIDTH 12 0
BBX 12 12 0 -2
BITMAP
0000
0000
0000
23C0
1C40
1040
1040
1040
11C0
1E40
0000
0000
ENDCHAR
STARTCHAR 30EE
ENCODING 12526
SWIDTH 720 0
DWIDTH 12 0
BBX 12 12 0 -2
BITMAP
0000
0000
0000
0000
21C0
1E40
1040
0880
0880
0100
0100
0200
ENDCHAR
STARTCHAR 30EF
ENCODING 12527
SWIDTH 720 0
DWIDTH 12 0
BBX 12 12 0 -2
BITMAP
0000
0000
23E0
1C20
1020
0840
0840
0080
0100
0200
0400
0000
ENDCHAR
STARTCHAR 30F0
ENCODING 12528
SWIDTH 720 0
DWIDTH 12 0
BBX 12 12 0 -2
BITMAP
0000
0200
0100
03E0
3D00
1100
0900
0BC0
3D20
0100
0100
0100
ENDCHAR
STARTCHAR 30F1
ENCODING 12529
SWIDTH 720 0
DWIDTH 12 0
BBX 12 12 0 -2
BITMAP
0000
0000
0000
03E0
3C40
0480
0200
0200
03E0
7E10
0000
0000
ENDCHAR
STARTCHAR 30F2
ENCODING 12530
SWIDTH 720 0
DWIDTH 12 0
BBX 12 12 0 -2
BITMAP
0000
0000
21E0
1E20
0020
01E0
0E40
0040
0080
0300
0C00
0000
ENDCHAR
STARTCHAR 30F3
ENCODING 12531
SWIDTH 720 0
DWIDTH 12 0
BBX 12 12 0 -2
BITMAP
0000
0000
3000
0800
0420
0020
0040
0080
0100
1200
0C00
0000
ENDCHAR
STARTCHAR 30F4
ENCODING 12532
SWIDTH 720 0
DWIDTH 12 0
BBX 12 12 0 -2
BITMAP
0000
04A0
0250
03D0
3E40
1040
1040
0080
0080
0100
0200
0C00
ENDCHAR
STARTCHAR 30F5
ENCODING 12533
SWIDTH 720 0
DWIDTH 12 0
BBX 12 12 0 -2
BITMAP
0000
0000
0000
0000
0400
0200
13C0
0E40
0440
0440
0940
1080
ENDCHAR
STARTCHAR 30F6
ENCODING 12534
SWIDTH 720 0
DWIDTH 12 0
BBX 12 12 0 -2
BITMAP
0000
0000
0000
0000
1000
0800
09C0
1600
2100
0100
0200
0400
ENDCHAR
STARTCHAR 30F7
ENCODING 12535
SWIDTH 720 0
DWIDTH 12 0
BBX 12 12 0 -2
BITMAP
0000
00A0
4750
3950
2100
1100
1100
0200
0200
0400
0800
0000
ENDCHAR
STARTCHAR 30F8
ENCODING 12536
SWIDTH 720 0
DWIDTH 12 0
BBX 12 12 0 -2
BITMAP
0000
02A0
0150
03D0
3D00
1100
0900
0BC0
3D20
0100
0100
0100
ENDCHAR
STARTCHAR 30F9
ENCODING 12537
SWIDTH 720 0
DWIDTH 12 0
BBX 12 12 0 -2
BITMAP
0000
00A0
0050
03D0
3C40
0480
0200
0200
03E0
7E10
0000
0000
ENDCHAR
STARTCHAR 30FA
ENCODING 12538
SWIDTH 720 0
DWIDTH 12 0
BBX 12 12 0 -2
BITMAP
0000
00A0
4750
3950
0100
0700
3900
0100
0200
0400
1800
0000
ENDCHAR
STARTCHAR 30FB
ENCODING 12539
SWIDTH 720 0
DWIDTH 12 0
BBX 12 12 0 -2
BITMAP
0000
0000
0000
0000
0000
0600
0600
0000
0000
0000
0000
0000
ENDCHAR
STARTCHAR 30FC
ENCODING 12540
SWIDTH 720 0
DWIDTH 12 0
BBX 12 12 0 -2
BITMAP
0000
0000
0000
0000
0000
0000
41E0
3E00
0000
0000
0000
0000
ENDCHAR
STARTCHAR 30FD
ENCODING 12541
SWIDTH 720 0
DWIDTH 12 0
BBX 12 12 0 -2
BITMAP
0000
0000
0000
0000
1800
0600
0100
0080
0000
0000
0000
0000
ENDCHAR
STARTCHAR 30FE
ENCODING 12542
SWIDTH 720 0
DWIDTH 12 0
BBX 12 12 0 -2
BITMAP
0000
0080
0240
0140
1900
0600
0100
0080
0000
0000
0000
0000
ENDCHAR
STARTCHAR 30FF
ENCODING 12543
SWIDTH 720 0
DWIDTH 12 0
BBX 12 12 0 -2
BITMAP
0000
1FC0
0040
0040
0040
0040
0040
0040
0040
0040
0040
0000
ENDCHAR
STARTCHAR 31F0
ENCODING 12784
SWIDTH 720 0
DWIDTH 12 0
BBX 12 12 0 -2
BITMAP
0000
0000
0000
0000
0200
03C0
0440
1840
0080
0100
0200
1C00
ENDCHAR
STARTCHAR 31F1
ENCODING 12785
SWIDTH 720 0
DWIDTH 12 0
BBX 12 12 0 -2
BITMAP
0000
0000
0000
0000
0C00
0200
1820
0420
0040
0080
1300
0C00
ENDCHAR
STARTCHAR 31F2
ENCODING 12786
SWIDTH 720 0
DWIDTH 12 0
BBX 12 12 0 -2
BITMAP
0000
0000
0000
0000
09C0
0640
0080
0080
0100
0280
0440
1820
ENDCHAR
STARTCHAR 31F3
ENCODING 12787
SWIDTH 720 0
DWIDTH 12 0
BBX 12 12 0 -2
BITMAP
0000
0000
0000
0000
0800
0400
0400
0700
04C0
0400
0400
0400
ENDCHAR
STARTCHAR 31F4
ENCODING 12788
SWIDTH 720 0
DWIDTH 12 0
BBX 12 12 0 -2
BITMAP
0000
0000
0000
0000
09C0
0640
0040
0880
0500
0300
0480
1840
ENDCHAR
STARTCHAR 31F5
ENCODING 12789
SWIDTH 720 0
DWIDTH 12 0
BBX 12 12 0 -2
BITMAP
0000
0000
0000
0000
0000
0900
0480
0480
0440
0840
0840
1040
ENDCHAR
STARTCHAR 31F6
ENCODING 12790
SWIDTH 720 0
DWIDTH 12 0
BBX 12 12 0 -2
BITMAP
0000
0000
0000
0000
1000
0880
0900
0E00
0800
0800
0800
07C0
ENDCHAR
STARTCHAR 31F7
ENCODING 12791
SWIDTH 720 0
DWIDTH 12 0
BBX 12 12 0 -2
BITMAP
0000
0000
0000
0000
13C0
0C40
0040
0080
0080
0100
0200
0C00
ENDCHAR
STARTCHAR 31F8
ENCODING 12792
SWIDTH 720 0
DWIDTH 12 0
BBX 12 12 0 -2
BITMAP
0000
0000
0000
0000
0000
0400
0400
0A00
0900
3080
0060
0000
ENDCHAR
STARTCHAR 31F9
ENCODING 12793
SWIDTH 720 0
DWIDTH 12 0
BBX 12 12 0 -2
BITMAP
0000
0000
0000
0000
0400
13C0
0E00
0200
0A40
0A20
1220
0600
ENDCHAR
STARTCHAR 31FA
ENCODING 12794
SWIDTH 720 0
DWIDTH 12 0
BBX 12 12 0 -2
BITMAP
0000
0000
0000
0000
0400
0200
0200
0400
0480
0840
0BC0
1C40
ENDCHAR
STARTCHAR 31FB
ENCODING 12795
SWIDTH 720 0
DWIDTH 12 0
BBX 12 12 0 -2
BITMAP
0000
0000
0000
0000
0B80
0400
11C0
0E40
0040
0080
0100
0600
ENDCHAR
STARTCHAR 31FC
ENCODING 12796
SWIDTH 720 0
DWIDTH 12 0
BBX 12 12 0 -2
BITMAP
0000
0000
0000
0000
1100
0880
0880
0880
0880
0100
0100
0200
ENDCHAR
STARTCHAR 31FD
ENCODING 12797
SWIDTH 720 0
DWIDTH 12 0
BBX 12 12 0 -2
BITMAP
0000
0000
0000
0000
0200
1100
0900
0900
0920
1120
1140
2180
ENDCHAR
STARTCHAR 31FE
ENCODING 12798
SWIDTH 720 0
DWIDTH 12 0
BBX 12 12 0 -2
BITMAP
0000
0000
0000
0000
1000
0800
0800
0800
0840
0880
0B00
0C00
ENDCHAR
STARTCHAR 31FF
ENCODING 12799
SWIDTH 720 0
DWIDTH 12 0
BBX 12 12 0 -2
BITMAP
0000
0000
0000
0000
0000
23C0
1C40
1040
1040
1040
11C0
1E40
ENDCHAR
STARTCHAR 3231
ENCODING 12849
SWIDTH 720 0
DWIDTH 12 0
BBX 12 12 0 -2
BITMAP
0000
2020
4910
7FF0
4990
5E90
5FF0
6990
69D0
4AB0
4C90
28A0
ENDCHAR
STARTCHAR 3232
ENCODING 12850
SWIDTH 720 0
DWIDTH 12 0
BBX 12 12 0 -2
BITMAP
0000
2420
4410
7FF0
4410
4FD0
4850
5FD0
6850
4FD0
4850
30E0
ENDCHAR
STARTCHAR 3239
ENCODING 12857
SWIDTH 720 0
DWIDTH 12 0
BBX 12 12 0 -2
BITMAP
0000
2120
4990
4950
57F0
5110
7110
5090
5090
5090
5050
3020
ENDCHAR
STARTCHAR 3251
ENCODING 12881
SWIDTH 720 0
DWIDTH 12 0
BBX 12 12 0 -2
BITMAP
0000
1FC0
2020
4C90
5390
4290
4490
4890
5090
5FD0
2020
1FC0
ENDCHAR
STARTCHAR 3252
ENCODING 12882
SWIDTH 720 0
DWIDTH 12 0
BBX 12 12 0 -2
BITMAP
0000
1FC0
2020
4D90
5250
4250
4490
4890
5110
5FD0
2020
1FC0
ENDCHAR
STARTCHAR 3253
ENCODING 12883
SWIDTH 720 0
DWIDTH 12 0
BBX 12 12 0 -2
BITMAP
0000
1FC0
2020
4D90
5350
4250
4490
4850
5150
5F90
2020
1FC0
ENDCHAR
STARTCHAR 3254
ENCODING 12884
SWIDTH 720 0
DWIDTH 12 0
BBX 12 12 0 -2
BITMAP
0000
1FC0
2020
4C50
52D0
4350
4650
4BD0
5050
5ED0
2020
1FC0
ENDCHAR
STARTCHAR 3255
ENCODING 12885
SWIDTH 720 0
DWIDTH 12 0
BBX 12 12 0 -2
BITMAP
0000
1FC0
2020
4DD0
5310
4310
45D0
4850
5150
5F90
2020
1FC0
ENDCHAR
STARTCHAR 3256
ENCODING 12886
SWIDTH 720 0
DWIDTH 12 0
BBX 12 12 0 -2
BITMAP
0000
1FC0
2020
4D90
5350
4310
45D0
4950
5150
5FD0
2020
1FC0
ENDCHAR
STARTCHAR 3257
ENCODING 12887
SWIDTH 720 0
DWIDTH 12 0
BBX 12 12 0 -2
BITMAP
0000
1FC0
2020
4FD0
5250
4250
4490
4890
5090
5E90
2020
1FC0
ENDCHAR
STARTCHAR 3258
ENCODING 12888
SWIDTH 720 0
DWIDTH 12 0
BBX 12 12 0 -2
BITMAP
0000
1FC0
2020
4D90
5350
4350
4490
4950
5150
5F90
2020
1FC0
ENDCHAR
STARTCHAR 3259
ENCODING 12889
SWIDTH 720 0
DWIDTH 12 0
BBX 12 12 0 -2
BITMAP
0000
1FC0
2020
4D90
5350
4350
44D0
4850
5150
5F90
2020
1FC0
ENDCHAR
STARTCHAR 325A
ENCODING 12890
SWIDTH 720 0
DWIDTH 12 0
BBX 12 12 0 -2
BITMAP
0000
1FC0
2020
4C90
5350
4350
4D50
4350
5350
4C90
2020
1FC0
ENDCHAR
STARTCHAR 325B
ENCODING 12891
SWIDTH 720 0
DWIDTH 12 0
BBX 12 12 0 -2
BITMAP
0000
1FC0
2020
4C90
5390
4290
4C90
4290
5290
4DD0
2020
1FC0
ENDCHAR
STARTCHAR 325C
ENCODING 12892
SWIDTH 720 0
DWIDTH 12 0
BBX 12 12 0 -2
BITMAP
0000
1FC0
2020
4D90
5250
4250
4C90
4290
5310
4DD0
2020
1FC0
ENDCHAR
STARTCHAR 325D
ENCODING 12893
SWIDTH 720 0
DWIDTH 12 0
BBX 12 12 0 -2
BITMAP
0000
1FC0
2020
4D90
5250
4250
4C90
4250
5250
4D90
2020
1FC0
ENDCHAR
STARTCHAR 325E
ENCODING 12894
SWIDTH 720 0
DWIDTH 12 0
BBX 12 12 0 -2
BITMAP
0000
1FC0
2020
4C50
52D0
4350
4D50
43D0
5250
4CD0
2020
1FC0
ENDCHAR
STARTCHAR 325F
ENCODING 12895
SWIDTH 720 0
DWIDTH 12 0
BBX 12 12 0 -2
BITMAP
0000
1FC0
2020
4DD0
5310
4310
4DD0
4250
5350
4DD0
2020
1FC0
ENDCHAR
STARTCHAR 32A4
ENCODING 12964
SWIDTH 720 0
DWIDTH 12 0
BBX 12 12 0 -2
BITMAP
0000
0F80
1240
2220
4210
43D0
4210
4210
4210
3FE0
1040
0F80
ENDCHAR
STARTCHAR 32A5
ENCODING 12965
SWIDTH 720 0
DWIDTH 12 0
BBX 12 12 0 -2
BITMAP
0000
0F80
1240
2220
5FD0
5250
5250
5FD0
5250
2220
1240
0F80
ENDCHAR
STARTCHAR 32A6
ENCODING 12966
SWIDTH 720 0
DWIDTH 12 0
BBX 12 12 0 -2
BITMAP
0000
0F80
1040
3FE0
4210
4310
4290
4250
4210
2220
1240
0F80
ENDCHAR
STARTCHAR 32A7
ENCODING 12967
SWIDTH 720 0
DWIDTH 12 0
BBX 12 12 0 -2
BITMAP
0000
0F80
1440
2420
7FF0
4410
4FD0
5110
7110
2FE0
1040
0F80
ENDCHAR
STARTCHAR 32A8
ENCODING 12968
SWIDTH 720 0
DWIDTH 12 0
BBX 12 12 0 -2
BITMAP
0000
0F80
1440
2420
7FF0
4810
4FD0
5450
7450
27E0
1040
0F80
ENDCHAR
STARTCHAR 32B1
ENCODING 12977
SWIDTH 720 0
DWIDTH 12 0
BBX 12 12 0 -2
BITMAP
0000
1FC0
2020
4D90
5350
4310
4DD0
4350
5350
4DD0
2020
1FC0
ENDCHAR
STARTCHAR 32B2
ENCODING 12978
SWIDTH 720 0
DWIDTH 12 0
BBX 12 12 0 -2
BITMAP
0000
1FC0
2020
4DD0
5250
4250
4C90
4290
5290
4C90
2020
1FC0
ENDCHAR
STARTCHAR 32B3
ENCODING 12979
SWIDTH 720 0
DWIDTH 12 0
BBX 12 12 0 -2
BITMAP
0000
1FC0
2020
4D90
5350
4350
4D90
4350
5350
4D90
2020
1FC0
ENDCHAR
STARTCHAR 32B4
ENCODING 12980
SWIDTH 720 0
DWIDTH 12 0
BBX 12 12 0 -2
BITMAP
0000
1FC0
2020
4D90
5350
4350
4CD0
4250
5250
4D90
2020
1FC0
ENDCHAR
STARTCHAR 32B5
ENCODING 12981
SWIDTH 720 0
DWIDTH 12 0
BBX 12 12 0 -2
BITMAP
0000
1FC0
2020
4490
4D50
5550
5550
5F50
4550
4E90
2020
1FC0
ENDCHAR
STARTCHAR 32B6
ENCODING 12982
SWIDTH 720 0
DWIDTH 12 0
BBX 12 12 0 -2
BITMAP
0000
1FC0
2020
4490
4D90
5490
5490
5E90
4490
4FD0
2020
1FC0
ENDCHAR
STARTCHAR 32B7
ENCODING 12983
SWIDTH 720 0
DWIDTH 12 0
BBX 12 12 0 -2
BITMAP
0000
1FC0
2020
4590
4E50
5450
5490
5E90
4510
4FD0
2020
1FC0
ENDCHAR
STARTCHAR 32B8
ENCODING 12984
SWIDTH 720 0
DWIDTH 12 0
BBX 12 12 0 -2
BITMAP
0000
1FC0
2020
4590
4E50
5450
5490
5E50
4550
4F90
2020
1FC0
ENDCHAR
STARTCHAR 32B9
ENCODING 12985
SWIDTH 720 0
DWIDTH 12 0
BBX 12 12 0 -2
BITMAP
0000
1FC0
2020
4450
4CD0
5550
5650
5FD0
4450
4ED0
2020
1FC0
ENDCHAR
STARTCHAR 32BA
ENCODING 12986
SWIDTH 720 0
DWIDTH 12 0
BBX 12 12 0 -2
BITMAP
0000
1FC0
2020
45D0
4D10
5510
55D0
5E50
4550
4F90
2020
1FC0
ENDCHAR
STARTCHAR 32BB
ENCODING 12987
SWIDTH 720 0
DWIDTH 12 0
BBX 12 12 0 -2
BITMAP
0000
1FC0
2020
4590
4D50
5510
55D0
5F50
4550
4FD0
2020
1FC0
ENDCHAR
STARTCHAR 32BC
ENCODING 12988
SWIDTH 720 0
DWIDTH 12 0
BBX 12 12 0 -2
BITMAP
0000
1FC0
2020
47D0
4E50
5450
5490
5E90
4490
4E90
2020
1FC0
ENDCHAR
STARTCHAR 32BD
ENCODING 12989
SWIDTH 720 0
DWIDTH 12 0
BBX 12 12 0 -2
BITMAP
0000
1FC0
2020
4590
4D50
5550
5490
5F50
4550
4F90
2020
1FC0
ENDCHAR
STARTCHAR 32BE
ENCODING 12990
SWIDTH 720 0
DWIDTH 12 0
BBX 12 12 0 -2
BITMAP
0000
1FC0
2020
4590
4D50
5550
54D0
5E50
4550
4F90
2020
1FC0
ENDCHAR
STARTCHAR 32BF
ENCODING 12991
SWIDTH 720 0
DWIDTH 12 0
BBX 12 12 0 -2
BITMAP
0000
1FC0
2020
5E90
5150
5150
5F50
4350
5350
4C90
2020
1FC0
ENDCHAR
STARTCHAR 32D0
ENCODING 13008
SWIDTH 720 0
DWIDTH 12 0
BBX 12 12 0 -2
BITMAP
0000
0F80
1040
23E0
5C50
4290
4310
4210
4410
2420
1840
0F80
ENDCHAR
STARTCHAR 32D1
ENCODING 13009
SWIDTH 720 0
DWIDTH 12 0
BBX 12 12 0 -2
BITMAP
0000
0F80
10C0
20A0
4110
4210
5C10
4210
4210
2220
1240
0F80
ENDCHAR
STARTCHAR 32D2
ENCODING 13010
SWIDTH 720 0
DWIDTH 12 0
BBX 12 12 0 -2
BITMAP
0000
0F80
1440
2220
43D0
5C50
4850
4890
4090
2120
1240
0F80
ENDCHAR
STARTCHAR 32D3
ENCODING 13011
SWIDTH 720 0
DWIDTH 12 0
BBX 12 12 0 -2
BITMAP
0000
0F80
1040
2020
51D0
4E10
4210
4210
47D0
3820
1040
0F80
ENDCHAR
STARTCHAR 32D4
ENCODING 13012
SWIDTH 720 0
DWIDTH 12 0
BBX 12 12 0 -2
BITMAP
0000
0F80
1240
2120
51D0
4F10
4310
4510
5910
2320
1140
0F80
ENDCHAR
STARTCHAR 32D5
ENCODING 13013
SWIDTH 720 0
DWIDTH 12 0
BBX 12 12 0 -2
BITMAP
0000
0F80
1440
2220
53D0
4E50
4450
4450
4850
32A0
1140
0F80
ENDCHAR
STARTCHAR 32D6
ENCODING 13014
SWIDTH 720 0
DWIDTH 12 0
BBX 12 12 0 -2
BITMAP
0000
0F80
1840
2420
4390
4610
5AD0
4310
5D10
2120
1140
0F80
ENDCHAR
STARTCHAR 32D7
ENCODING 13015
SWIDTH 720 0
DWIDTH 12 0
BBX 12 12 0 -2
BITMAP
0000
0F80
1440
2220
4390
4490
4890
4110
4110
2220
1C40
0F80
ENDCHAR
STARTCHAR 32D8
ENCODING 13016
SWIDTH 720 0
DWIDTH 12 0
BBX 12 12 0 -2
BITMAP
0000
0F80
1840
2420
44D0
4F10
5110
4110
4210
2220
1440
0F80
ENDCHAR
STARTCHAR 32D9
ENCODING 13017
SWIDTH 720 0
DWIDTH 12 0
BBX 12 12 0 -2
BITMAP
0000
0F80
1040
2060
5390
4C90
4090
4090
4390
2CA0
1040
0F80
ENDCHAR
STARTCHAR 32DA
ENCODING 13018
SWIDTH 720 0
DWIDTH 12 0
BBX 12 12 0 -2
BITMAP
0000
0F80
1140
28A0
4490
65F0
5E90
4490
4110
2120
1240
0F80
ENDCHAR
STARTCHAR 32DB
ENCODING 13019
SWIDTH 720 0
DWIDTH 12 0
BBX 12 12 0 -2
BITMAP
0000
0F80
1040
2020
4C10
4230
5850
4450
4090
2920
1640
0F80
ENDCHAR
STARTCHAR 32DC
ENCODING 13020
SWIDTH 720 0
DWIDTH 12 0
BBX 12 12 0 -2
BITMAP
0000
0F80
1040
33A0
4C90
4090
4110
4310
4490
2860
1040
0F80
ENDCHAR
STARTCHAR 32DD
ENCODING 13021
SWIDTH 720 0
DWIDTH 12 0
BBX 12 12 0 -2
BITMAP
0000
0F80
1040
3020
4BD0
5C90
4910
4810
4410
23A0
1040
0F80
ENDCHAR
STARTCHAR 32DE
ENCODING 13022
SWIDTH 720 0
DWIDTH 12 0
BBX 12 12 0 -2
BITMAP
0000
0F80
1040
2020
4850
4450
4490
4090
4110
2220
1440
0F80
ENDCHAR
STARTCHAR 32DF
ENCODING 13023
SWIDTH 720 0
DWIDTH 12 0
BBX 12 12 0 -2
BITMAP
0000
0F80
1440
2220
4390
4490
4A90
4110
4210
2420
1840
0F80
ENDCHAR
STARTCHAR 32E0
ENCODING 13024
SWIDTH 720 0
DWIDTH 12 0
BBX 12 12 0 -2
BITMAP
0000
0F80
10C0
2120
4E10
63F0
5D10
4110
4110
2220
1440
0F80
ENDCHAR
STARTCHAR 32E1
ENCODING 13025
SWIDTH 720 0
DWIDTH 12 0
BBX 12 12 0 -2
BITMAP
0000
0F80
1040
24A0
5250
4A50
4850
4090
4090
2120
1240
0F80
ENDCHAR
STARTCHAR 32E2
ENCODING 13026
SWIDTH 720 0
DWIDTH 12 0
BBX 12 12 0 -2
BITMAP
0000
0F80
1040
2BA0
4410
61F0
5E10
4110
4110
2220
1440
0F80
ENDCHAR
STARTCHAR 32E3
ENCODING 13027
SWIDTH 720 0
DWIDTH 12 0
BBX 12 12 0 -2
BITMAP
0000
0F80
1840
2420
4410
4710
44D0
4410
4410
2420
1440
0F80
ENDCHAR
STARTCHAR 32E5
ENCODING 13029
SWIDTH 720 0
DWIDTH 12 0
BBX 12 12 0 -2
BITMAP
0000
0F80
1040
2020
5390
4C10
4010
4010
43D0
3C20
1040
0F80
ENDCHAR
STARTCHAR 32E9
ENCODING 13033
SWIDTH 720 0
DWIDTH 12 0
BBX 12 12 0 -2
BITMAP
0000
0F80
1040
2020
4110
4890
4890
4850
5050
3020
1040
0F80
ENDCHAR
STARTCHAR 32EC
ENCODING 13036
SWIDTH 720 0
DWIDTH 12 0
BBX 12 12 0 -2
BITMAP
0000
0F80
1040
2420
4410
4A10
5110
6090
4070
2020
1040
0F80
ENDCHAR
STARTCHAR 32ED
ENCODING 13037
SWIDTH 720 0
DWIDTH 12 0
BBX 12 12 0 -2
BITMAP
0000
0F80
1440
2220
53D0
4E10
4A90
4A50
5250
2620
1240
0F80
ENDCHAR
STARTCHAR 32FA
ENCODING 13050
SWIDTH 720 0
DWIDTH 12 0
BBX 12 12 0 -2
BITMAP
0000
0F80
1040
2020
63D0
5C50
5050
51D0
5E50
2020
1040
0F80
ENDCHAR
STARTCHAR 3303
ENCODING 13059
SWIDTH 720 0
DWIDTH 12 0
BBX 12 12 0 -2
BITMAP
0000
7E00
1200
1400
19E0
2000
4000
0800
2900
2900
2A00
4C00
ENDCHAR
STARTCHAR 330D
ENCODING 13069
SWIDTH 720 0
DWIDTH 12 0
BBX 12 12 0 -2
BITMAP
0000
2000
7DE0
2520
2520
59E0
0000
4800
4800
4BF0
0800
1000
ENDCHAR
STARTCHAR 3314
ENCODING 13076
SWIDTH 720 0
DWIDTH 12 0
BBX 12 12 0 -2
BITMAP
0000
1000
1C00
7000
0E00
7800
09E0
0920
0120
0120
01E0
0000
ENDCHAR
STARTCHAR 3318
ENCODING 13080
SWIDTH 720 0
DWIDTH 12 0
BBX 12 12 0 -2
BITMAP
0000
0AE0
3A00
29F0
4810
1020
20C0
1000
1000
2400
2A00
7200
ENDCHAR
STARTCHAR 3322
ENCODING 13090
SWIDTH 720 0
DWIDTH 12 0
BBX 12 12 0 -2
BITMAP
0000
2000
3D00
6490
2810
2020
1CC0
0400
3800
7E00
0800
1000
ENDCHAR
STARTCHAR 3323
ENCODING 13091
SWIDTH 720 0
DWIDTH 12 0
BBX 12 12 0 -2
BITMAP
0000
2000
3D00
6490
2810
2020
1CC0
2000
3800
2400
2000
2000
ENDCHAR
STARTCHAR 3326
ENCODING 13094
SWIDTH 720 0
DWIDTH 12 0
BBX 12 12 0 -2
BITMAP
0000
2A00
2A00
3800
2400
2000
2280
0280
0290
02A0
02C0
0480
ENDCHAR
STARTCHAR 3327
ENCODING 13095
SWIDTH 720 0
DWIDTH 12 0
BBX 12 12 0 -2
BITMAP
0000
2000
2000
3800
2400
2000
2200
0100
0110
0020
0040
0180
ENDCHAR
STARTCHAR 332B
ENCODING 13099
SWIDTH 720 0
DWIDTH 12 0
BBX 12 12 0 -2
BITMAP
0000
0200
2D00
2A00
45E0
4400
0040
5C40
6AE0
50D0
4140
3A40
ENDCHAR
STARTCHAR 3336
ENCODING 13110
SWIDTH 720 0
DWIDTH 12 0
BBX 12 12 0 -2
BITMAP
0000
10F0
1090
2910
2420
0220
3840
2940
6950
1F50
1160
6240
ENDCHAR
STARTCHAR 333B
ENCODING 13115
SWIDTH 720 0
DWIDTH 12 0
BBX 12 12 0 -2
BITMAP
0000
0400
2A00
54E0
4800
0600
0280
6280
0000
6400
0800
3000
ENDCHAR
STARTCHAR 3349
ENCODING 13129
SWIDTH 720 0
DWIDTH 12 0
BBX 12 12 0 -2
BITMAP
0000
0000
3000
0C00
3000
0D20
3120
0D20
0120
0020
0040
0080
ENDCHAR
STARTCHAR 334A
ENCODING 13130
SWIDTH 720 0
DWIDTH 12 0
BBX 12 12 0 -2
BITMAP
0000
6120
1920
6120
1840
6040
1C80
3440
20C0
57D0
48E0
4940
ENDCHAR
STARTCHAR 334D
ENCODING 13133
SWIDTH 720 0
DWIDTH 12 0
BBX 12 12 0 -2
BITMAP
0000
0400
3400
09E0
1800
6400
2000
2080
3280
2A90
22A0
24C0
ENDCHAR
STARTCHAR 3351
ENCODING 13137
SWIDTH 720 0
DWIDTH 12 0
BBX 12 12 0 -2
BITMAP
0000
4800
4800
4950
0950
1020
20C0
2280
3A80
2690
22A0
24C0
ENDCHAR
STARTCHAR 3357
ENCODING 13143
SWIDTH 720 0
DWIDTH 12 0
BBX 12 12 0 -2
BITMAP
0000
7C00
4400
4550
0950
1020
20C0
2000
3800
2400
2000
2000
ENDCHAR
STARTCHAR 337B
ENCODING 13179
SWIDTH 720 0
DWIDTH 12 0
BBX 12 12 0 -2
BITMAP
0000
7EC0
10A0
54A0
57F0
3A40
7E50
13D0
12A0
12B0
14D0
1590
ENDCHAR
STARTCHAR 337C
ENCODING 13180
SWIDTH 720 0
DWIDTH 12 0
BBX 12 12 0 -2
BITMAP
0000
1C80
7770
5550
57D0
7550
59D0
5FD0
5750
7550
5D70
1550
ENDCHAR
STARTCHAR 337D
ENCODING 13181
SWIDTH 720 0
DWIDTH 12 0
BBX 12 12 0 -2
BITMAP
0000
13F0
1040
1040
7D40
1140
1170
1140
2940
2540
2740
43F0
ENDCHAR
STARTCHAR 337E
ENCODING 13182
SWIDTH 720 0
DWIDTH 12 0
BBX 12 12 0 -2
BITMAP
0000
1C40
7640
5560
5C90
76F0
5510
5C00
75F0
5590
16F0
2E90
ENDCHAR
STARTCHAR 338E
ENCODING 13198
SWIDTH 720 0
DWIDTH 12 0
BBX 12 12 0 -2
BITMAP
0000
0000
0000
0000
0010
68F0
5520
5520
54C0
55E0
5710
03E0
ENDCHAR
STARTCHAR 338F
ENCODING 13199
SWIDTH 720 0
DWIDTH 12 0
BBX 12 12 0 -2
BITMAP
0000
2000
6000
2000
2010
2EF0
2520
3920
38C0
2DE0
2710
03E0
ENDCHAR
STARTCHAR 339C
ENCODING 13212
SWIDTH 720 0
DWIDTH 12 0
BBX 12 12 0 -2
BITMAP
0000
0000
0000
0000
0000
69A0
5550
5550
5550
5550
5550
0000
ENDCHAR
STARTCHAR 339D
ENCODING 13213
SWIDTH 720 0
DWIDTH 12 0
BBX 12 12 0 -2
BITMAP
0000
0000
0000
0000
0000
35A0
6D50
4150
4150
2550
1950
0000
ENDCHAR
STARTCHAR 339E
ENCODING 13214
SWIDTH 720 0
DWIDTH 12 0
BBX 12 12 0 -2
BITMAP
0000
2000
6000
2000
2000
2FA0
2550
3950
3950
2D50
2550
0000
ENDCHAR
STARTCHAR 33A1
ENCODING 13217
SWIDTH 720 0
DWIDTH 12 0
BBX 12 12 0 -2
BITMAP
0000
00E0
0010
0060
0080
6DF0
3680
36C0
36C0
36C0
76E0
0000
ENDCHAR
STARTCHAR 33C4
ENCODING 13252
SWIDTH 720 0
DWIDTH 12 0
BBX 12 12 0 -2
BITMAP
0000
0000
0000
0000
0000
34D0
6DB0
4510
4100
2490
1860
0000
ENDCHAR
STARTCHAR 33CB
ENCODING 13259
SWIDTH 720 0
DWIDTH 12 0
BBX 12 12 0 -2
BITMAP
0000
73C0
3320
3330
3330
3F20
33C0
3300
3300
3300
7380
0000
ENDCHAR
STARTCHAR 33CD
ENCODING 13261
SWIDTH 720 0
DWIDTH 12 0
BBX 12 12 0 -2
BITMAP
0000
4D30
4920
5140
5140
6180
71C0
5960
5960
4D30
4D30
0000
ENDCHAR
STARTCHAR 3402
ENCODING 13314
SWIDTH 720 0
DWIDTH 12 0
BBX 12 12 0 -2
BITMAP
0000
0860
0B80
7C00
0820
07E0
2080
2690
28E0
7180
2690
1C70
ENDCHAR
STARTCHAR 3406
ENCODING 13318
SWIDTH 720 0
DWIDTH 12 0
BBX 12 12 0 -2
BITMAP
0000
00C0
0F00
0FC0
0840
0FC0
0FC0
0800
1FC0
1040
2040
4180
ENDCHAR
STARTCHAR 342C
ENCODING 13356
SWIDTH 720 0
DWIDTH 12 0
BBX 12 12 0 -2
BITMAP
0000
0200
7FF0
0440
09C0
1E20
0A80
0A80
0A80
1290
1290
6070
ENDCHAR
STARTCHAR 342E
ENCODING 13358
SWIDTH 720 0
DWIDTH 12 0
BBX 12 12 0 -2
BITMAP
0000
0200
7FF0
18C0
68B0
3FE0
1FC0
0880
7FF0
1920
6EC0
1830
ENDCHAR
STARTCHAR 3468
ENCODING 13416
SWIDTH 720 0
DWIDTH 12 0
BBX 12 12 0 -2
BITMAP
0000
0BE0
0A20
13E0
1220
3200
53E0
1480
17F0
1080
1140
1630
ENDCHAR
STARTCHAR 346A
ENCODING 13418
SWIDTH 720 0
DWIDTH 12 0
BBX 12 12 0 -2
BITMAP
0000
0880
0FF0
1220
11C0
3140
5630
13E0
1220
13E0
1420
1820
ENDCHAR
STARTCHAR 3492
ENCODING 13458
SWIDTH 720 0
DWIDTH 12 0
BBX 12 12 0 -2
BITMAP
0000
0D50
0B60
17F0
1140
37F0
5080
13E0
1080
17F0
12A0
1490
ENDCHAR
STARTCHAR 34B5
ENCODING 13493
SWIDTH 720 0
DWIDTH 12 0
BBX 12 12 0 -2
BITMAP
0000
0600
3FE0
2020
3FE0
2020
2020
3FE0
2020
0880
1040
6030
ENDCHAR
STARTCHAR 34BC
ENCODING 13500
SWIDTH 720 0
DWIDTH 12 0
BBX 12 12 0 -2
BITMAP
0000
0880
7FF0
0880
0F80
0200
3FE0
3BA0
2AA0
3760
2220
2260
ENDCHAR
STARTCHAR 34C1
ENCODING 13505
SWIDTH 720 0
DWIDTH 12 0
BBX 12 12 0 -2
BITMAP
0000
0000
0000
3FF0
2910
4910
0900
1120
1120
20E0
0000
0000
ENDCHAR
STARTCHAR 34C7
ENCODING 13511
SWIDTH 720 0
DWIDTH 12 0
BBX 12 12 0 -2
BITMAP
0000
2030
17C0
1080
0080
0FF0
1080
20C0
2140
4120
4220
4C10
ENDCHAR
STARTCHAR 34DB
ENCODING 13531
SWIDTH 720 0
DWIDTH 12 0
BBX 12 12 0 -2
BITMAP
0000
07F0
0110
7910
1110
1110
1110
1110
1A10
6210
0410
0860
ENDCHAR
STARTCHAR 351F
ENCODING 13599
SWIDTH 720 0
DWIDTH 12 0
BBX 12 12 0 -2
BITMAP
0000
2880
3E80
49E0
3EA0
09A0
0EF0
7130
0210
7FF0
0410
3860
ENDCHAR
STARTCHAR 355D
ENCODING 13661
SWIDTH 720 0
DWIDTH 12 0
BBX 12 12 0 -2
BITMAP
0000
0200
7FF0
0200
1FC0
1040
1FC0
0000
3FE0
0DC0
1FC0
7DF0
ENDCHAR
STARTCHAR 355E
ENCODING 13662
SWIDTH 720 0
DWIDTH 12 0
BBX 12 12 0 -2
BITMAP
0000
3FE0
7FF0
7FB0
7FB0
6CF0
7EE0
7AE0
7A40
7AE0
5EE0
49B0
ENDCHAR
STARTCHAR 3563
ENCODING 13667
SWIDTH 720 0
DWIDTH 12 0
BBX 12 12 0 -2
BITMAP
0000
0700
0100
0880
0880
1040
6030
1FC0
1040
1040
1FC0
1040
ENDCHAR
STARTCHAR 356E
ENCODING 13678
SWIDTH 720 0
DWIDTH 12 0
BBX 12 12 0 -2
BITMAP
0000
0240
7A60
4E20
4E70
4A40
4BC0
4DC0
7880
49C0
03E0
0E70
ENDCHAR
STARTCHAR 35A6
ENCODING 13734
SWIDTH 720 0
DWIDTH 12 0
BBX 12 12 0 -2
BITMAP
0000
0080
7FF0
4880
4BE0
4AA0
4BE0
4AA0
7BE0
49C0
02A0
0490
ENDCHAR
STARTCHAR 35A8
ENCODING 13736
SWIDTH 720 0
DWIDTH 12 0
BBX 12 12 0 -2
BITMAP
0000
01E0
7A20
4BC0
4840
4FF0
4880
4E90
79E0
4AA0
0490
0180
ENDCHAR
STARTCHAR 35C5
ENCODING 13765
SWIDTH 720 0
DWIDTH 12 0
BBX 12 12 0 -2
BITMAP
0000
0270
7250
5FD0
5270
5250
5750
5570
7550
4550
0790
04B0
ENDCHAR
STARTCHAR 35DA
ENCODING 13786
SWIDTH 720 0
DWIDTH 12 0
BBX 12 12 0 -2
BITMAP
0000
07F0
7140
57F0
5550
5550
57F0
5080
77F0
41C0
02A0
0490
ENDCHAR
STARTCHAR 35F4
ENCODING 13812
SWIDTH 720 0
DWIDTH 12 0
BBX 12 12 0 -2
BITMAP
0000
0770
7550
5770
5550
5770
55D0
5550
75D0
4550
05D0
0530
ENDCHAR
STARTCHAR 3605
ENCODING 13829
SWIDTH 720 0
DWIDTH 12 0
BBX 12 12 0 -2
BITMAP
0000
0970
7BF0
5FC0
5FF0
5930
5FF0
5D70
7F70
5FF0
1FF0
1E30
ENDCHAR
STARTCHAR 364A
ENCODING 13898
SWIDTH 720 0
DWIDTH 12 0
BBX 12 12 0 -2
BITMAP
0000
13E0
1200
13E0
7A00
13E0
1200
17F0
1AA0
6240
03A0
0610
ENDCHAR
STARTCHAR 3691
ENCODING 13969
SWIDTH 720 0
DWIDTH 12 0
BBX 12 12 0 -2
BITMAP
0000
1FC0
0040
7FF0
0040
0040
1FC0
0200
7FF0
0200
0D80
7070
ENDCHAR
STARTCHAR 3696
ENCODING 13974
SWIDTH 720 0
DWIDTH 12 0
BBX 12 12 0 -2
BITMAP
0000
0200
1FC0
1040
1FC0
1FC0
1040
1FC0
0220
7FF0
0D80
7070
ENDCHAR
STARTCHAR 3699
ENCODING 13977
SWIDTH 720 0
DWIDTH 12 0
BBX 12 12 0 -2
BITMAP
0000
10F0
7E90
1290
1290
22F0
4C90
0200
7FF0
0200
0D80
7070
ENDCHAR
STARTCHAR 36CF
ENCODING 14031
SWIDTH 720 0
DWIDTH 12 0
BBX 12 12 0 -2
BITMAP
0000
20A0
2090
7FF0
2880
2CA0
2AA0
49C0
72C0
2CA0
2890
4380
ENDCHAR
STARTCHAR 3761
ENCODING 14177
SWIDTH 720 0
DWIDTH 12 0
BBX 12 12 0 -2
BITMAP
0000
0200
3FF0
2010
7E00
25F0
3D30
3D30
3DE0
24C0
7DF0
6530
ENDCHAR
STARTCHAR 3762
ENCODING 14178
SWIDTH 720 0
DWIDTH 12 0
BBX 12 12 0 -2
BITMAP
0000
0200
3FF0
21D0
5FC0
1F00
1FC0
1FC0
3FE0
3FE0
2FE0
2C60
ENDCHAR
STARTCHAR 376B
ENCODING 14187
SWIDTH 720 0
DWIDTH 12 0
BBX 12 12 0 -2
BITMAP
0000
0200
3FE0
6130
3BE0
7FC0
7BE0
7FF0
7BE0
7FC0
7BE0
67F0
ENDCHAR
STARTCHAR 376C
ENCODING 14188
SWIDTH 720 0
DWIDTH 12 0
BBX 12 12 0 -2
BITMAP
0000
10C0
7CC0
57F0
7CC0
38C0
3BF0
7DC0
38C0
79E0
6920
7F30
ENDCHAR
STARTCHAR 3775
ENCODING 14197
SWIDTH 720 0
DWIDTH 12 0
BBX 12 12 0 -2
BITMAP
0000
1FC0
1040
1FC0
1040
1FC0
3FE0
0080
7FF0
1080
0880
0380
ENDCHAR
STARTCHAR 378D
ENCODING 14221
SWIDTH 720 0
DWIDTH 12 0
BBX 12 12 0 -2
BITMAP
0000
3FF0
2010
3FF0
2210
2200
3FC0
2240
2A40
2450
4650
5930
ENDCHAR
STARTCHAR 37C1
ENCODING 14273
SWIDTH 720 0
DWIDTH 12 0
BBX 12 12 0 -2
BITMAP
0000
17F0
1400
5DE0
5FE0
5CC0
5FF0
5CC0
7CC0
44C0
08C0
08C0
ENDCHAR
STARTCHAR 37E2
ENCODING 14306
SWIDTH 720 0
DWIDTH 12 0
BBX 12 12 0 -2
BITMAP
0000
0200
2220
3FE0
0200
3FE0
0500
18C0
7FF0
1240
1E40
11C0
ENDCHAR
STARTCHAR 37E8
ENCODING 14312
SWIDTH 720 0
DWIDTH 12 0
BBX 12 12 0 -2
BITMAP
0000
1080
1290
57F0
5400
57F0
5500
57F0
7ED0
42D0
02D0
0230
ENDCHAR
STARTCHAR 37F4
ENCODING 14324
SWIDTH 720 0
DWIDTH 12 0
BBX 12 12 0 -2
BITMAP
0000
1080
13F0
5690
57F0
5690
57F0
55A0
7DD0
41F0
0290
0470
ENDCHAR
STARTCHAR 37FD
ENCODING 14333
SWIDTH 720 0
DWIDTH 12 0
BBX 12 12 0 -2
BITMAP
0000
27F0
2FF0
27F0
7EF0
7FF0
7FE0
7FE0
7FF0
72A0
0EB0
0790
ENDCHAR
STARTCHAR 3800
ENCODING 14336
SWIDTH 720 0
DWIDTH 12 0
BBX 12 12 0 -2
BITMAP
0000
1F80
1FC0
1FC0
1FC0
1FC0
1FF0
1FF0
6AB0
4220
2220
3FE0
ENDCHAR
STARTCHAR 382F
ENCODING 14383
SWIDTH 720 0
DWIDTH 12 0
BBX 12 12 0 -2
BITMAP
0000
1FC0
1040
1040
1FC0
1040
1000
1FE0
1020
1020
1FE0
1020
ENDCHAR
STARTCHAR 3836
ENCODING 14390
SWIDTH 720 0
DWIDTH 12 0
BBX 12 12 0 -2
BITMAP
0000
10C0
1080
7DE0
5520
5520
5520
5520
5920
1120
1330
1630
ENDCHAR
STARTCHAR 3840
ENCODING 14400
SWIDTH 720 0
DWIDTH 12 0
BBX 12 12 0 -2
BITMAP
0000
0200
1A80
32E0
2220
3FE0
2F20
2FA0
3EA0
3AE0
2220
20E0
ENDCHAR
STARTCHAR 385C
ENCODING 14428
SWIDTH 720 0
DWIDTH 12 0
BBX 12 12 0 -2
BITMAP
0000
13F0
12D0
7DA0
5720
5650
57F0
5400
5BF0
12A0
1290
1590
ENDCHAR
STARTCHAR 3861
ENCODING 14433
SWIDTH 720 0
DWIDTH 12 0
BBX 12 12 0 -2
BITMAP
0000
17F0
17F0
7FB0
57B0
57F0
56F0
57F0
5AF0
16B0
13B0
17F0
ENDCHAR
STARTCHAR 38FA
ENCODING 14586
SWIDTH 720 0
DWIDTH 12 0
BBX 12 12 0 -2
BITMAP
0000
0000
0400
0400
0440
2620
2510
2490
4480
4400
0C00
0000
ENDCHAR
STARTCHAR 3917
ENCODING 14615
SWIDTH 720 0
DWIDTH 12 0
BBX 12 12 0 -2
BITMAP
0000
0200
3FE0
3FE0
3FE0
7FF0
3AE0
6230
1260
13F0
32E0
2E00
ENDCHAR
STARTCHAR 391A
ENCODING 14618
SWIDTH 720 0
DWIDTH 12 0
BBX 12 12 0 -2
BITMAP
0000
1160
1100
1A00
5CF0
5920
5220
1620
1220
1220
1220
1260
ENDCHAR
STARTCHAR 396F
ENCODING 14703
SWIDTH 720 0
DWIDTH 12 0
BBX 12 12 0 -2
BITMAP
0000
1FE0
3FC0
7FE0
1FA0
7FF0
7FF0
3FE0
3FE0
2A20
2950
47D0
ENDCHAR
STARTCHAR 3A6E
ENCODING 14958
SWIDTH 720 0
DWIDTH 12 0
BBX 12 12 0 -2
BITMAP
0000
17A0
14B0
7FF0
17F0
17F0
1FF0
77F0
13F0
13E0
17E0
3380
ENDCHAR
STARTCHAR 3A73
ENCODING 14963
SWIDTH 720 0
DWIDTH 12 0
BBX 12 12 0 -2
BITMAP
0000
15F0
17F0
7FE0
17E0
17F0
1FF0
77F0
17E0
13C0
13E0
3770
ENDCHAR
STARTCHAR 3AD6
ENCODING 15062
SWIDTH 720 0
DWIDTH 12 0
BBX 12 12 0 -2
BITMAP
0000
0200
0200
03E0
0200
7FF0
0000
1FC0
1040
1FC0
1040
1FC0
ENDCHAR
STARTCHAR 3AD7
ENCODING 15063
SWIDTH 720 0
DWIDTH 12 0
BBX 12 12 0 -2
BITMAP
0000
1FC0
1FC0
1FC0
1FC0
1FC0
3FC0
0300
7FF0
7FF0
0200
0E00
ENDCHAR
STARTCHAR 3AEA
ENCODING 15082
SWIDTH 720 0
DWIDTH 12 0
BBX 12 12 0 -2
BITMAP
0000
0200
3FE0
3FE0
0500
7FF0
0880
17C0
7470
17C0
1440
17C0
ENDCHAR
STARTCHAR 3B0E
ENCODING 15118
SWIDTH 720 0
DWIDTH 12 0
BBX 12 12 0 -2
BITMAP
0000
1FC0
1FC0
1FC0
1FC0
1580
3DE0
18C0
3FE0
39F0
2DA0
65B0
ENDCHAR
STARTCHAR 3B1A
ENCODING 15130
SWIDTH 720 0
DWIDTH 12 0
BBX 12 12 0 -2
BITMAP
0000
0240
7FC0
5470
5FF0
5F70
7F70
5F70
5F20
7F70
0970
0BF0
ENDCHAR
STARTCHAR 3B1C
ENCODING 15132
SWIDTH 720 0
DWIDTH 12 0
BBX 12 12 0 -2
BITMAP
0000
7DE0
7DE0
7DF0
7FF0
79F0
7FF0
1FC0
1FC0
1FC0
1040
1FC0
ENDCHAR
STARTCHAR 3B22
ENCODING 15138
SWIDTH 720 0
DWIDTH 12 0
BBX 12 12 0 -2
BITMAP
0000
0120
7FF0
4880
4BE0
7880
4FF0
4B50
7FF0
4A60
0350
06B0
ENDCHAR
STARTCHAR 3B6D
ENCODING 15213
SWIDTH 720 0
DWIDTH 12 0
BBX 12 12 0 -2
BITMAP
0000
1750
1550
7D50
1750
3250
3B50
5550
5550
1510
1910
1330
ENDCHAR
STARTCHAR 3B77
ENCODING 15223
SWIDTH 720 0
DWIDTH 12 0
BBX 12 12 0 -2
BITMAP
0000
13F0
1290
7FF0
1290
3BF0
3690
5480
53F0
1090
1110
1660
ENDCHAR
STARTCHAR 3B87
ENCODING 15239
SWIDTH 720 0
DWIDTH 12 0
BBX 12 12 0 -2
BITMAP
0000
1060
1380
7C80
13F0
3940
3620
5490
5280
12E0
14D0
1190
ENDCHAR
STARTCHAR 3B88
ENCODING 15240
SWIDTH 720 0
DWIDTH 12 0
BBX 12 12 0 -2
BITMAP
0000
1080
13F0
7D40
1220
3A10
37E0
5000
53F0
12A0
1290
1590
ENDCHAR
STARTCHAR 3B8D
ENCODING 15245
SWIDTH 720 0
DWIDTH 12 0
BBX 12 12 0 -2
BITMAP
0000
7FF0
7FF0
3D20
3D20
3D20
2CE0
22E0
7FF0
0700
1AC0
6230
ENDCHAR
STARTCHAR 3BA4
ENCODING 15268
SWIDTH 720 0
DWIDTH 12 0
BBX 12 12 0 -2
BITMAP
0000
0200
3FE0
78F0
3F60
3FE0
7FF0
18C0
0F80
7FF0
3FC0
72F0
ENDCHAR
STARTCHAR 3BB6
ENCODING 15286
SWIDTH 720 0
DWIDTH 12 0
BBX 12 12 0 -2
BITMAP
0000
1970
1650
7FD0
1270
3AD0
3AD0
5FF0
5AD0
1250
1490
18B0
ENDCHAR
STARTCHAR 3BC3
ENCODING 15299
SWIDTH 720 0
DWIDTH 12 0
BBX 12 12 0 -2
BITMAP
0000
1080
17F0
79C0
16B0
3140
3EB0
5AA0
51C0
12C0
14B0
1180
ENDCHAR
STARTCHAR 3BCD
ENCODING 15309
SWIDTH 720 0
DWIDTH 12 0
BBX 12 12 0 -2
BITMAP
0000
12F0
13F0
7FF0
1360
3BC0
37B0
57F0
5230
12F0
1270
1270
ENDCHAR
STARTCHAR 3BF0
ENCODING 15344
SWIDTH 720 0
DWIDTH 12 0
BBX 12 12 0 -2
BITMAP
0000
13E0
13F0
7FF0
13F0
3BE0
37F0
57F0
53F0
13F0
13E0
13F0
ENDCHAR
STARTCHAR 3C0F
ENCODING 15375
SWIDTH 720 0
DWIDTH 12 0
BBX 12 12 0 -2
BITMAP
0000
1240
13F0
7EA0
1190
3FF0
39C0
5140
57F0
15D0
1550
15F0
ENDCHAR
STARTCHAR 3C26
ENCODING 15398
SWIDTH 720 0
DWIDTH 12 0
BBX 12 12 0 -2
BITMAP
0000
1900
1900
7DF0
1910
1AA0
7C80
1080
34C0
3540
3D20
7E10
ENDCHAR
STARTCHAR 3CC3
ENCODING 15555
SWIDTH 720 0
DWIDTH 12 0
BBX 12 12 0 -2
BITMAP
0000
2100
17C0
1140
4350
2650
2EB0
0180
17E0
2080
4080
4080
ENDCHAR
STARTCHAR 3CD2
ENCODING 15570
SWIDTH 720 0
DWIDTH 12 0
BBX 12 12 0 -2
BITMAP
0000
2100
1100
1FF0
42C0
2640
2760
0D30
1320
2220
43F0
4FB0
ENDCHAR
STARTCHAR 3D11
ENCODING 15633
SWIDTH 720 0
DWIDTH 12 0
BBX 12 12 0 -2
BITMAP
0000
2080
1FF0
1B30
4B20
2FF0
2AC0
0AF0
1BF0
29E0
4980
4B00
ENDCHAR
STARTCHAR 3D1E
ENCODING 15646
SWIDTH 720 0
DWIDTH 12 0
BBX 12 12 0 -2
BITMAP
0000
20F0
17E0
1500
47B0
26A0
25E0
0530
15F0
25F0
4530
45F0
ENDCHAR
STARTCHAR 3D64
ENCODING 15716
SWIDTH 720 0
DWIDTH 12 0
BBX 12 12 0 -2
BITMAP
0000
2FF0
1570
1BF0
4FF0
25C0
27E0
06A0
1FF0
21C0
43E0
4E70
ENDCHAR
STARTCHAR 3D9A
ENCODING 15770
SWIDTH 720 0
DWIDTH 12 0
BBX 12 12 0 -2
BITMAP
0000
2FF0
1FF0
1FF0
4FF0
2FF0
2750
0770
1FD0
2FF0
4FD0
47F0
ENDCHAR
STARTCHAR 3DC0
ENCODING 15808
SWIDTH 720 0
DWIDTH 12 0
BBX 12 12 0 -2
BITMAP
0000
19C0
3DE0
18C0
3DE0
2500
3FC0
08C0
3FC0
1FC0
08D0
0870
ENDCHAR
STARTCHAR 3DD4
ENCODING 15828
SWIDTH 720 0
DWIDTH 12 0
BBX 12 12 0 -2
BITMAP
0000
1070
1380
1690
5A50
5120
52F0
1290
1AF0
2A90
2AF0
4290
ENDCHAR
STARTCHAR 3E05
ENCODING 15877
SWIDTH 720 0
DWIDTH 12 0
BBX 12 12 0 -2
BITMAP
0000
1240
13F0
16E0
5680
5BF0
53D0
13D0
1BD0
2BD0
29F0
43C0
ENDCHAR
STARTCHAR 3E3F
ENCODING 15935
SWIDTH 720 0
DWIDTH 12 0
BBX 12 12 0 -2
BITMAP
0000
2880
2BF0
3C80
4BE0
4800
0FF0
1B50
6D40
0950
0950
0A30
ENDCHAR
STARTCHAR 3E60
ENCODING 15968
SWIDTH 720 0
DWIDTH 12 0
BBX 12 12 0 -2
BITMAP
0000
0920
49C0
3700
3120
5520
1520
3520
57E0
1100
1110
60F0
ENDCHAR
STARTCHAR 3E66
ENCODING 15974
SWIDTH 720 0
DWIDTH 12 0
BBX 12 12 0 -2
BITMAP
0000
0BF0
4910
3110
3110
5210
1460
33F0
5210
1210
13F0
6210
ENDCHAR
STARTCHAR 3E68
ENCODING 15976
SWIDTH 720 0
DWIDTH 12 0
BBX 12 12 0 -2
BITMAP
0000
0880
4880
37F0
3490
5490
17F0
3490
5490
1490
17F0
6410
ENDCHAR
STARTCHAR 3E83
ENCODING 16003
SWIDTH 720 0
DWIDTH 12 0
BBX 12 12 0 -2
BITMAP
0000
0A40
4FF0
3340
3240
57F0
17B0
37F0
52F0
13F0
1030
60E0
ENDCHAR
STARTCHAR 3E94
ENCODING 16020
SWIDTH 720 0
DWIDTH 12 0
BBX 12 12 0 -2
BITMAP
0000
0FC0
4FA0
37F0
37E0
5460
17F0
3430
57F0
14F0
17B0
6570
ENDCHAR
STARTCHAR 3F57
ENCODING 16215
SWIDTH 720 0
DWIDTH 12 0
BBX 12 12 0 -2
BITMAP
0000
0080
7C80
5480
5480
7C80
5580
5540
7D40
4220
0220
0410
ENDCHAR
STARTCHAR 3F72
ENCODING 16242
SWIDTH 720 0
DWIDTH 12 0
BBX 12 12 0 -2
BITMAP
0000
0100
1FF0
5000
3FF0
1200
3200
53E0
1420
1020
2020
40C0
ENDCHAR
STARTCHAR 3F75
ENCODING 16245
SWIDTH 720 0
DWIDTH 12 0
BBX 12 12 0 -2
BITMAP
0000
0100
1FF0
5000
3100
1100
3FE0
5100
1100
1100
2100
5FF0
ENDCHAR
STARTCHAR 3F77
ENCODING 16247
SWIDTH 720 0
DWIDTH 12 0
BBX 12 12 0 -2
BITMAP
0000
0100
1FF0
5000
3220
1F30
37E0
5FC0
1BC0
1AC0
2A70
5230
ENDCHAR
STARTCHAR 3FAE
ENCODING 16302
SWIDTH 720 0
DWIDTH 12 0
BBX 12 12 0 -2
BITMAP
0000
0200
3FF0
6100
2FE0
2FE0
2FE0
6FE0
2FE0
6FE0
6FE0
1FF0
ENDCHAR
STARTCHAR 3FC9
ENCODING 16329
SWIDTH 720 0
DWIDTH 12 0
BBX 12 12 0 -2
BITMAP
0000
0200
3FF0
6FE0
2FE0
2FE0
3FF0
7FE0
2FE0
6FE0
6FE0
0FF0
ENDCHAR
STARTCHAR 3FD7
ENCODING 16343
SWIDTH 720 0
DWIDTH 12 0
BBX 12 12 0 -2
BITMAP
0000
1FF0
3FF0
6FF0
2CF0
3FF0
2FF0
7590
2AF0
6E90
6FF0
1B90
ENDCHAR
STARTCHAR 4039
ENCODING 16441
SWIDTH 720 0
DWIDTH 12 0
BBX 12 12 0 -2
BITMAP
0000
7880
4FF0
48A0
7AA0
4EA0
7FF0
4DD0
4BC0
7B40
4E60
0430
ENDCHAR
STARTCHAR 4058
ENCODING 16472
SWIDTH 720 0
DWIDTH 12 0
BBX 12 12 0 -2
BITMAP
0000
79C0
4BE0
4F60
7FC0
4F80
7FE0
4D80
4FF0
7FF0
4CB0
07F0
ENDCHAR
STARTCHAR 4093
ENCODING 16531
SWIDTH 720 0
DWIDTH 12 0
BBX 12 12 0 -2
BITMAP
0000
21E0
3BF0
53F0
53F0
1330
7FF0
1330
33E0
28C0
29D0
4770
ENDCHAR
STARTCHAR 4105
ENCODING 16645
SWIDTH 720 0
DWIDTH 12 0
BBX 12 12 0 -2
BITMAP
0000
1240
1AC0
3FE0
0D80
7FF0
18C0
3FE0
7FF0
1FC0
32E0
7E70
ENDCHAR
STARTCHAR 4148
ENCODING 16712
SWIDTH 720 0
DWIDTH 12 0
BBX 12 12 0 -2
BITMAP
0000
1240
1AC0
3FE0
0700
7FF0
1BC0
3F60
7FF0
1FC0
1EC0
7270
ENDCHAR
STARTCHAR 414F
ENCODING 16719
SWIDTH 720 0
DWIDTH 12 0
BBX 12 12 0 -2
BITMAP
0000
0FE0
73F0
13F0
7FE0
1270
3BC0
36F0
57F0
53F0
12D0
1070
ENDCHAR
STARTCHAR 4163
ENCODING 16739
SWIDTH 720 0
DWIDTH 12 0
BBX 12 12 0 -2
BITMAP
0000
0D80
73E0
13E0
7FE0
1260
3BE0
37F0
57E0
53C0
13F0
13F0
ENDCHAR
STARTCHAR 41B4
ENCODING 16820
SWIDTH 720 0
DWIDTH 12 0
BBX 12 12 0 -2
BITMAP
0000
3FE0
7FF0
77F0
1FC0
3FC0
5FC0
3FE0
3FE0
3FE0
3FF0
03F0
ENDCHAR
STARTCHAR 41BF
ENCODING 16831
SWIDTH 720 0
DWIDTH 12 0
BBX 12 12 0 -2
BITMAP
0000
3FE0
7FF0
78F0
2BE0
6BF0
3BF0
0BF0
7FF0
2BF0
69E0
6FF0
ENDCHAR
STARTCHAR 41E6
ENCODING 16870
SWIDTH 720 0
DWIDTH 12 0
BBX 12 12 0 -2
BITMAP
0000
1080
1EF0
2940
4620
3FE0
2220
2620
7FF0
0D80
38E0
7070
ENDCHAR
STARTCHAR 41EE
ENCODING 16878
SWIDTH 720 0
DWIDTH 12 0
BBX 12 12 0 -2
BITMAP
0000
1080
1EF0
2940
4620
19C0
1F80
3180
6FF0
2080
2080
27F0
ENDCHAR
STARTCHAR 41F3
ENCODING 16883
SWIDTH 720 0
DWIDTH 12 0
BBX 12 12 0 -2
BITMAP
0000
1080
1EF0
2940
4620
7FF0
3FE0
3FE0
3FE0
0380
0790
3DF0
ENDCHAR
STARTCHAR 4207
ENCODING 16903
SWIDTH 720 0
DWIDTH 12 0
BBX 12 12 0 -2
BITMAP
0000
1080
3DF0
4A20
03E0
0200
1FC0
1FC0
1FC0
1FC0
7FF0
0200
ENDCHAR
STARTCHAR 420E
ENCODING 16910
SWIDTH 720 0
DWIDTH 12 0
BBX 12 12 0 -2
BITMAP
0000
1080
3DF0
4A20
7FF0
17C0
13C0
1FF0
7FF0
7FF0
7EF0
7270
ENDCHAR
STARTCHAR 4264
ENCODING 16996
SWIDTH 720 0
DWIDTH 12 0
BBX 12 12 0 -2
BITMAP
0000
1080
3DF0
4A20
5540
39F0
7D20
3AA0
7E40
2460
1890
6710
ENDCHAR
STARTCHAR 42C6
ENCODING 17094
SWIDTH 720 0
DWIDTH 12 0
BBX 12 12 0 -2
BITMAP
0000
13F0
2000
6BF0
1210
2A10
77F0
1210
5A00
5600
5200
1400
ENDCHAR
STARTCHAR 42D6
ENCODING 17110
SWIDTH 720 0
DWIDTH 12 0
BBX 12 12 0 -2
BITMAP
0000
1080
27E0
68A0
17F0
28A0
77E0
1080
5BE0
5480
57F0
1080
ENDCHAR
STARTCHAR 42DD
ENCODING 17117
SWIDTH 720 0
DWIDTH 12 0
BBX 12 12 0 -2
BITMAP
0000
1110
23B0
6AB0
1220
2900
77F0
1360
5A60
57C0
55E0
1330
ENDCHAR
STARTCHAR 4302
ENCODING 17154
SWIDTH 720 0
DWIDTH 12 0
BBX 12 12 0 -2
BITMAP
0000
13E0
23F0
6BF0
13E0
2BF0
75A0
13F0
58E0
57F0
54C0
13F0
ENDCHAR
STARTCHAR 432B
ENCODING 17195
SWIDTH 720 0
DWIDTH 12 0
BBX 12 12 0 -2
BITMAP
0000
13F0
23F0
6BE0
13E0
2BE0
77E0
13E0
5BE0
57E0
55D0
1370
ENDCHAR
STARTCHAR 4343
ENCODING 17219
SWIDTH 720 0
DWIDTH 12 0
BBX 12 12 0 -2
BITMAP
0000
07C0
0FC0
3EC0
0F80
1F00
3FE0
3600
7FF0
7FF0
2220
3FE0
ENDCHAR
STARTCHAR 43EE
ENCODING 17390
SWIDTH 720 0
DWIDTH 12 0
BBX 12 12 0 -2
BITMAP
0000
3900
2FE0
2930
3B30
2E70
2EE0
3E30
2A60
2BC0
4E60
5C30
ENDCHAR
STARTCHAR 43F0
ENCODING 17392
SWIDTH 720 0
DWIDTH 12 0
BBX 12 12 0 -2
BITMAP
0000
3BE0
2BF0
2BB0
3BB0
2BA0
2AE0
3880
29C0
2B30
4F30
5DE0
ENDCHAR
STARTCHAR 4408
ENCODING 17416
SWIDTH 720 0
DWIDTH 12 0
BBX 12 12 0 -2
BITMAP
0000
38C0
2FF0
29E0
3BF0
2B30
2BF0
3B30
2BF0
2B30
4BE0
5BF0
ENDCHAR
STARTCHAR 4417
ENCODING 17431
SWIDTH 720 0
DWIDTH 12 0
BBX 12 12 0 -2
BITMAP
0000
3900
2FF0
2960
3960
2FF0
29E0
3FE0
2E20
2BE0
4A20
5BE0
ENDCHAR
STARTCHAR 441C
ENCODING 17436
SWIDTH 720 0
DWIDTH 12 0
BBX 12 12 0 -2
BITMAP
0000
3BE0
2BE0
2BF0
3FE0
2FE0
2FE0
3FE0
2FE0
2DE0
4FF0
5E70
ENDCHAR
STARTCHAR 4422
ENCODING 17442
SWIDTH 720 0
DWIDTH 12 0
BBX 12 12 0 -2
BITMAP
0000
3BF0
2FF0
2FD0
3BD0
2930
2A20
3FF0
2FD0
2FD0
4BD0
5B30
ENDCHAR
STARTCHAR 4453
ENCODING 17491
SWIDTH 720 0
DWIDTH 12 0
BBX 12 12 0 -2
BITMAP
0000
0880
7FF0
0F80
0880
3FF0
3FD0
4880
3F60
1FC0
0200
7FF0
ENDCHAR
STARTCHAR 445B
ENCODING 17499
SWIDTH 720 0
DWIDTH 12 0
BBX 12 12 0 -2
BITMAP
0000
0C60
7380
1280
1280
7FF0
1280
7A40
4A40
4B50
7C30
4B90
ENDCHAR
STARTCHAR 4476
ENCODING 17526
SWIDTH 720 0
DWIDTH 12 0
BBX 12 12 0 -2
BITMAP
0000
10C0
3FF0
25E0
37E0
2FF0
7FE0
27F0
2EF0
2FF0
2630
4E70
ENDCHAR
STARTCHAR 447A
ENCODING 17530
SWIDTH 720 0
DWIDTH 12 0
BBX 12 12 0 -2
BITMAP
0000
13F0
3FF0
27F0
37D0
2FF0
7FF0
27F0
2ED0
2EF0
27F0
4D90
ENDCHAR
STARTCHAR 4491
ENCODING 17553
SWIDTH 720 0
DWIDTH 12 0
BBX 12 12 0 -2
BITMAP
0000
0000
0000
0880
0880
0880
7FF0
0000
0000
0000
0000
0000
ENDCHAR
STARTCHAR 44B3
ENCODING 17587
SWIDTH 720 0
DWIDTH 12 0
BBX 12 12 0 -2
BITMAP
0000
0880
7FF0
0880
3FC0
0CC0
38F0
7030
7FF0
7FF0
3FE0
7270
ENDCHAR
STARTCHAR 44BE
ENCODING 17598
SWIDTH 720 0
DWIDTH 12 0
BBX 12 12 0 -2
BITMAP
0000
0880
7FF0
0880
0200
0600
7FF0
0F20
3B60
79C0
1CE0
7C70
ENDCHAR
STARTCHAR 44D4
ENCODING 17620
SWIDTH 720 0
DWIDTH 12 0
BBX 12 12 0 -2
BITMAP
0000
0880
7FF0
0880
3FE0
07C0
7FF0
7FC0
7FC0
7FF0
0200
0600
ENDCHAR
STARTCHAR 4508
ENCODING 17672
SWIDTH 720 0
DWIDTH 12 0
BBX 12 12 0 -2
BITMAP
0000
0880
7FF0
3FE0
3FE0
7FF0
1FC0
1FC0
1FC0
1FC0
1FC0
7FF0
ENDCHAR
STARTCHAR 450D
ENCODING 17677
SWIDTH 720 0
DWIDTH 12 0
BBX 12 12 0 -2
BITMAP
0000
0880
7FF0
0880
3FE0
3FE0
3FE0
3FE0
3FF0
1FF0
7E90
4BF0
ENDCHAR
STARTCHAR 4525
ENCODING 17701
SWIDTH 720 0
DWIDTH 12 0
BBX 12 12 0 -2
BITMAP
0000
7FF0
7FF0
1FC0
3FE0
7FF0
3FE0
1F80
2FA0
2FA0
7FA0
72A0
ENDCHAR
STARTCHAR 4543
ENCODING 17731
SWIDTH 720 0
DWIDTH 12 0
BBX 12 12 0 -2
BITMAP
0000
7FF0
7FF0
39C0
7FF0
79E0
79E0
69C0
69E0
7FF0
6120
63F0
ENDCHAR
STARTCHAR 459D
ENCODING 17821
SWIDTH 720 0
DWIDTH 12 0
BBX 12 12 0 -2
BITMAP
0000
01C0
3E00
0200
3FE0
2220
2220
3FE0
2280
0240
07A0
7820
ENDCHAR
STARTCHAR 45B8
ENCODING 17848
SWIDTH 720 0
DWIDTH 12 0
BBX 12 12 0 -2
BITMAP
0000
7D20
7FF0
11E0
1DE0
71C0
37F0
3620
3FE0
3FE0
03E0
7FF0
ENDCHAR
STARTCHAR 45E5
ENCODING 17893
SWIDTH 720 0
DWIDTH 12 0
BBX 12 12 0 -2
BITMAP
0000
22B0
26B0
7DF0
6F30
6E40
7F40
6570
3540
2D40
3DC0
4F70
ENDCHAR
STARTCHAR 45EA
ENCODING 17898
SWIDTH 720 0
DWIDTH 12 0
BBX 12 12 0 -2
BITMAP
0000
0200
3FF0
2480
3FF0
2780
52A0
3FD0
1240
1FC0
0220
7FD0
ENDCHAR
STARTCHAR 460F
ENCODING 17935
SWIDTH 720 0
DWIDTH 12 0
BBX 12 12 0 -2
BITMAP
0000
08F0
10F0
7EB0
5AB0
5AA0
5A90
5A90
5A90
5E90
60B0
0080
ENDCHAR
STARTCHAR 4641
ENCODING 17985
SWIDTH 720 0
DWIDTH 12 0
BBX 12 12 0 -2
BITMAP
0000
1140
11E0
7BA0
08E0
11F0
1670
3960
57E0
13F0
11F0
1370
ENDCHAR
STARTCHAR 4665
ENCODING 18021
SWIDTH 720 0
DWIDTH 12 0
BBX 12 12 0 -2
BITMAP
0000
27E0
27E0
7FF0
0FF0
16D0
13E0
2FE0
75B0
2FF0
20B0
20A0
ENDCHAR
STARTCHAR 46A1
ENCODING 18081
SWIDTH 720 0
DWIDTH 12 0
BBX 12 12 0 -2
BITMAP
0000
3BE0
2BF0
53F0
7FF0
56B0
7FF0
54C0
7DC0
4770
4730
5DF0
ENDCHAR
STARTCHAR 46AF
ENCODING 18095
SWIDTH 720 0
DWIDTH 12 0
BBX 12 12 0 -2
BITMAP
0000
3920
0120
7D20
3920
0120
3920
0120
3920
2820
3820
28E0
ENDCHAR
STARTCHAR 470C
ENCODING 18188
SWIDTH 720 0
DWIDTH 12 0
BBX 12 12 0 -2
BITMAP
0000
1730
3720
7FD0
3770
2020
7FF0
3870
6730
7FF0
7DF0
2720
ENDCHAR
STARTCHAR 4764
ENCODING 18276
SWIDTH 720 0
DWIDTH 12 0
BBX 12 12 0 -2
BITMAP
0000
1880
77F0
2940
3360
6BF0
1BF0
6BE0
1BE0
6BA0
0BB0
3190
ENDCHAR
STARTCHAR 47FD
ENCODING 18429
SWIDTH 720 0
DWIDTH 12 0
BBX 12 12 0 -2
BITMAP
0000
7880
4FF0
4920
4BE0
7FF0
12A0
5BA0
53A0
53A0
5BB0
6630
ENDCHAR
STARTCHAR 4816
ENCODING 18454
SWIDTH 720 0
DWIDTH 12 0
BBX 12 12 0 -2
BITMAP
0000
78C0
4FF0
48D0
49E0
7BE0
13B0
5990
53F0
5230
5A30
63F0
ENDCHAR
STARTCHAR 4844
ENCODING 18500
SWIDTH 720 0
DWIDTH 12 0
BBX 12 12 0 -2
BITMAP
0000
11C0
7D40
1140
7D40
5540
7D40
5540
7D40
1150
7D50
1230
ENDCHAR
STARTCHAR 484E
ENCODING 18510
SWIDTH 720 0
DWIDTH 12 0
BBX 12 12 0 -2
BITMAP
0000
13F0
7FF0
11E0
7FF0
5730
7FE0
5600
7E00
1200
7E00
1200
ENDCHAR
STARTCHAR 48B5
ENCODING 18613
SWIDTH 720 0
DWIDTH 12 0
BBX 12 12 0 -2
BITMAP
0000
1CF0
3C90
0090
00A0
7FE0
1090
1090
3290
26E0
3F80
7380
ENDCHAR
STARTCHAR 49B0
ENCODING 18864
SWIDTH 720 0
DWIDTH 12 0
BBX 12 12 0 -2
BITMAP
0000
7DF0
7DF0
4510
7DF0
4F10
4F90
5FD0
5FD0
5250
5FD0
43F0
ENDCHAR
STARTCHAR 49E7
ENCODING 18919
SWIDTH 720 0
DWIDTH 12 0
BBX 12 12 0 -2
BITMAP
0000
7A60
4FE0
4BE0
53E0
77F0
4FA0
4FC0
4FF0
73E0
4670
43B0
ENDCHAR
STARTCHAR 49FA
ENCODING 18938
SWIDTH 720 0
DWIDTH 12 0
BBX 12 12 0 -2
BITMAP
0000
1090
1120
7DF0
3320
2120
39F0
6920
69F0
6920
7920
39F0
ENDCHAR
STARTCHAR 4A04
ENCODING 18948
SWIDTH 720 0
DWIDTH 12 0
BBX 12 12 0 -2
BITMAP
0000
1090
3920
7DF0
3B20
7920
7DF0
7D20
7DF0
4D20
7D20
7DF0
ENDCHAR
STARTCHAR 4A29
ENCODING 18985
SWIDTH 720 0
DWIDTH 12 0
BBX 12 12 0 -2
BITMAP
0000
3FE0
7FF0
7FF0
7FF0
79F0
38C0
3BF0
7FF0
7BF0
7BE0
50C0
ENDCHAR
STARTCHAR 4ABC
ENCODING 19132
SWIDTH 720 0
DWIDTH 12 0
BBX 12 12 0 -2
BITMAP
0000
11F0
5440
55F0
5510
7DF0
1110
11F0
5510
55F0
7CA0
7D10
ENDCHAR
STARTCHAR 4B3B
ENCODING 19259
SWIDTH 720 0
DWIDTH 12 0
BBX 12 12 0 -2
BITMAP
0000
10C0
2BF0
5880
7BE0
4980
7FF0
49F0
78F0
78E0
45F0
7F70
ENDCHAR
STARTCHAR 4BC2
ENCODING 19394
SWIDTH 720 0
DWIDTH 12 0
BBX 12 12 0 -2
BITMAP
0000
1FC0
1F80
1FC0
1FC0
7FF0
7DE0
7DE0
7FF0
66B0
7FF0
72F0
ENDCHAR
STARTCHAR 4BCA
ENCODING 19402
SWIDTH 720 0
DWIDTH 12 0
BBX 12 12 0 -2
BITMAP
0000
3DF0
25F0
3DB0
37F0
7EF0
66F0
3FF0
27B0
3C30
2430
2C70
ENDCHAR
STARTCHAR 4BD2
ENCODING 19410
SWIDTH 720 0
DWIDTH 12 0
BBX 12 12 0 -2
BITMAP
0000
3DF0
25F0
3F00
3680
7DF0
6730
3F30
2530
3D30
2530
2D70
ENDCHAR
STARTCHAR 4BE8
ENCODING 19432
SWIDTH 720 0
DWIDTH 12 0
BBX 12 12 0 -2
BITMAP
0000
7FF0
7FF0
1FC0
18C0
7FF0
6FB0
7FF0
2FA0
7FF0
1DC0
78F0
ENDCHAR
STARTCHAR 4C17
ENCODING 19479
SWIDTH 720 0
DWIDTH 12 0
BBX 12 12 0 -2
BITMAP
0000
5DD0
5DD0
4890
5DD0
4710
4A90
7FD0
5250
5FD0
5FD0
41F0
ENDCHAR
STARTCHAR 4C20
ENCODING 19488
SWIDTH 720 0
DWIDTH 12 0
BBX 12 12 0 -2
BITMAP
0000
1840
3FF0
7F50
7FF0
7F50
7F50
3DF0
3C40
3E40
7E50
6FF0
ENDCHAR
STARTCHAR 4CC4
ENCODING 19652
SWIDTH 720 0
DWIDTH 12 0
BBX 12 12 0 -2
BITMAP
0000
1880
19E0
7920
79E0
7D20
7DF0
7900
79F0
7D90
7ED0
76E0
ENDCHAR
STARTCHAR 4CD1
ENCODING 19665
SWIDTH 720 0
DWIDTH 12 0
BBX 12 12 0 -2
BITMAP
0000
1080
7DE0
1120
3DE0
2520
7DF0
7500
3DF0
3D90
22D0
2EE0
ENDCHAR
STARTCHAR 4D07
ENCODING 19719
SWIDTH 720 0
DWIDTH 12 0
BBX 12 12 0 -2
BITMAP
0000
3E40
3EE0
7FF0
7FF0
5FF0
3CF0
3FF0
6BF0
7FF0
1FB0
1C30
ENDCHAR
STARTCHAR 4D77
ENCODING 19831
SWIDTH 720 0
DWIDTH 12 0
BBX 12 12 0 -2
BITMAP
0000
27E0
3FF0
27F0
27E0
7FF0
25F0
27F0
3DF0
27F0
3990
71F0
ENDCHAR
STARTCHAR 4E00
ENCODING 19968
SWIDTH 720 0
DWIDTH 12 0
BBX 12 12 0 -2
BITMAP
0000
0000
0000
0000
0000
0000
3FE0
0000
0000
0000
0000
0000
ENDCHAR
STARTCHAR 4E01
ENCODING 19969
SWIDTH 720 0
DWIDTH 12 0
BBX 12 12 0 -2
BITMAP
0000
0000
7FF0
0200
0200
0200
0200
0200
0200
0200
0200
0E00
ENDCHAR
STARTCHAR 4E02
ENCODING 19970
SWIDTH 720 0
DWIDTH 12 0
BBX 12 12 0 -2
BITMAP
0000
7FF0
0200
0200
0400
07C0
0840
0040
0040
0040
0080
0300
ENDCHAR
STARTCHAR 4E03
ENCODING 19971
SWIDTH 720 0
DWIDTH 12 0
BBX 12 12 0 -2
BITMAP
0000
0800
0800
0830
09C0
0E00
7800
0800
0800
0820
0820
07E0
ENDCHAR
STARTCHAR 4E07
ENCODING 19975
SWIDTH 720 0
DWIDTH 12 0
BBX 12 12 0 -2
BITMAP
0000
7FF0
0400
0400
07C0
0440
0440
0840
0840
1040
2040
4180
ENDCHAR
STARTCHAR 4E08
ENCODING 19976
SWIDTH 720 0
DWIDTH 12 0
BBX 12 12 0 -2
BITMAP
0000
0200
0200
7FF0
0200
1200
0A00
0600
0600
0500
18C0
6030
ENDCHAR
STARTCHAR 4E09
ENCODING 19977
SWIDTH 720 0
DWIDTH 12 0
BBX 12 12 0 -2
BITMAP
0000
0000
3FE0
0000
0000
0000
1FC0
0000
0000
0000
7FF0
0000
ENDCHAR
STARTCHAR 4E0A
ENCODING 19978
SWIDTH 720 0
DWIDTH 12 0
BBX 12 12 0 -2
BITMAP
0000
0200
0200
0200
0200
03E0
0200
0200
0200
0200
0200
7FF0
ENDCHAR
STARTCHAR 4E0B
ENCODING 19979
SWIDTH 720 0
DWIDTH 12 0
BBX 12 12 0 -2
BITMAP
0000
7FF0
0200
0200
0300
0280
0240
0240
0200
0200
0200
0200
ENDCHAR
STARTCHAR 4E0D
ENCODING 19981
SWIDTH 720 0
DWIDTH 12 0
BBX 12 12 0 -2
BITMAP
0000
7FF0
0100
0200
0380
0640
0A20
1210
6210
0200
0200
0200
ENDCHAR
STARTCHAR 4E0E
ENCODING 19982
SWIDTH 720 0
DWIDTH 12 0
BBX 12 12 0 -2
BITMAP
0000
1000
1F80
1000
1F80
0080
7FF0
0080
0080
0080
0100
0E00
ENDCHAR
STARTCHAR 4E0F
ENCODING 19983
SWIDTH 720 0
DWIDTH 12 0
BBX 12 12 0 -2
BITMAP
0000
7FF0
0200
23E0
2220
2220
3FE0
2020
0020
0020
0040
0180
ENDCHAR
STARTCHAR 4E10
ENCODING 19984
SWIDTH 720 0
DWIDTH 12 0
BBX 12 12 0 -2
BITMAP
0000
7FF0
0200
23E0
2200
2200
3FE0
2020
0020
0020
0040
0180
ENDCHAR
STARTCHAR 4E11
ENCODING 19985
SWIDTH 720 0
DWIDTH 12 0
BBX 12 12 0 -2
BITMAP
0000
3F80
0480
0480
0480
0880
7FF0
0880
0880
1080
1080
7FF0
ENDCHAR
STARTCHAR 4E12
ENCODING 19986
SWIDTH 720 0
DWIDTH 12 0
BBX 12 12 0 -2
BITMAP
0000
3FE0
0220
1220
0A20
0420
0620
0A20
1040
6180
0000
7FF0
ENDCHAR
STARTCHAR 4E14
ENCODING 19988
SWIDTH 720 0
DWIDTH 12 0
BBX 12 12 0 -2
BITMAP
0000
1FC0
1040
1040
1FC0
1040
1040
1FC0
1040
1040
1040
7FF0
ENDCHAR
STARTCHAR 4E15
ENCODING 19989
SWIDTH 720 0
DWIDTH 12 0
BBX 12 12 0 -2
BITMAP
0000
3FE0
0100
0200
0700
0A80
1240
6230
0200
0200
0000
7FF0
ENDCHAR
STARTCHAR 4E16
ENCODING 19990
SWIDTH 720 0
DWIDTH 12 0
BBX 12 12 0 -2
BITMAP
0000
1240
1240
1240
7FF0
1240
1240
13C0
1240
1000
1FE0
1000
ENDCHAR
STARTCHAR 4E17
ENCODING 19991
SWIDTH 720 0
DWIDTH 12 0
BBX 12 12 0 -2
BITMAP
0000
1240
1240
1240
1240
7FF0
1240
1240
1240
1240
1FC0
1040
ENDCHAR
STARTCHAR 4E18
ENCODING 19992
SWIDTH 720 0
DWIDTH 12 0
BBX 12 12 0 -2
BITMAP
0000
00C0
1F00
1000
1000
1FE0
1080
1080
1080
1080
1080
7FF0
ENDCHAR
STARTCHAR 4E19
ENCODING 19993
SWIDTH 720 0
DWIDTH 12 0
BBX 12 12 0 -2
BITMAP
0000
7FF0
0200
0200
3FE0
2220
2520
28A0
3060
2020
2020
20E0
ENDCHAR
STARTCHAR 4E1E
ENCODING 19998
SWIDTH 720 0
DWIDTH 12 0
BBX 12 12 0 -2
BITMAP
0000
1FC0
0080
0300
7A20
0B20
0B40
1280
2240
4230
0E00
3FE0
ENDCHAR
STARTCHAR 4E21
ENCODING 20001
SWIDTH 720 0
DWIDTH 12 0
BBX 12 12 0 -2
BITMAP
0000
7FF0
0200
3FE0
2220
2AA0
2AA0
2FA0
28A0
2020
2020
20E0
ENDCHAR
STARTCHAR 4E26
ENCODING 20006
SWIDTH 720 0
DWIDTH 12 0
BBX 12 12 0 -2
BITMAP
0000
1040
0880
3FE0
0880
0880
4890
2890
28A0
0880
0880
7FF0
ENDCHAR
STARTCHAR 4E28
ENCODING 20008
SWIDTH 720 0
DWIDTH 12 0
BBX 12 12 0 -2
BITMAP
0000
0000
0200
0200
0200
0200
0200
0200
0200
0200
0200
0000
ENDCHAR
STARTCHAR 4E29
ENCODING 20009
SWIDTH 720 0
DWIDTH 12 0
BBX 12 12 0 -2
BITMAP
0000
0040
0840
0840
0840
0840
0840
09C0
0E40
1840
0040
0040
ENDCHAR
STARTCHAR 4E2A
ENCODING 20010
SWIDTH 720 0
DWIDTH 12 0
BBX 12 12 0 -2
BITMAP
0000
0200
0200
0500
0880
1240
6230
0200
0200
0200
0200
0200
ENDCHAR
STARTCHAR 4E2B
ENCODING 20011
SWIDTH 720 0
DWIDTH 12 0
BBX 12 12 0 -2
BITMAP
0000
1040
0840
0480
0500
0200
0200
0200
0200
0200
0200
0200
ENDCHAR
STARTCHAR 4E2C
ENCODING 20012
SWIDTH 720 0
DWIDTH 12 0
BBX 12 12 0 -2
BITMAP
0000
0080
0080
0480
0280
0280
0180
0280
0480
0480
0080
0080
ENDCHAR
STARTCHAR 4E2D
ENCODING 20013
SWIDTH 720 0
DWIDTH 12 0
BBX 12 12 0 -2
BITMAP
0000
0200
0200
7FF0
4210
4210
4210
7FF0
4210
0200
0200
0200
ENDCHAR
STARTCHAR 4E2E
ENCODING 20014
SWIDTH 720 0
DWIDTH 12 0
BBX 12 12 0 -2
BITMAP
0000
7F80
0080
0880
0880
7F80
0880
0880
7F40
0850
0830
0810
ENDCHAR
STARTCHAR 4E2F
ENCODING 20015
SWIDTH 720 0
DWIDTH 12 0
BBX 12 12 0 -2
BITMAP
0000
0260
0380
1E00
0260
0780
3A00
0230
03C0
3E00
0200
0200
ENDCHAR
STARTCHAR 4E30
ENCODING 20016
SWIDTH 720 0
DWIDTH 12 0
BBX 12 12 0 -2
BITMAP
0000
0200
0200
7FF0
0200
0200
3FE0
0200
0200
7FF0
0200
0200
ENDCHAR
STARTCHAR 4E31
ENCODING 20017
SWIDTH 720 0
DWIDTH 12 0
BBX 12 12 0 -2
BITMAP
0000
0880
4890
4890
4890
4890
4890
78F0
4890
0880
1080
6080
ENDCHAR
STARTCHAR 4E32
ENCODING 20018
SWIDTH 720 0
DWIDTH 12 0
BBX 12 12 0 -2
BITMAP
0000
0200
1FC0
1240
1FC0
0200
3FE0
2220
2220
3FE0
2220
0200
ENDCHAR
STARTCHAR 4E36
ENCODING 20022
SWIDTH 720 0
DWIDTH 12 0
BBX 12 12 0 -2
BITMAP
0000
0000
0000
0C00
0200
0100
0100
0100
0000
0000
0000
0000
ENDCHAR
STARTCHAR 4E38
ENCODING 20024
SWIDTH 720 0
DWIDTH 12 0
BBX 12 12 0 -2
BITMAP
0000
0400
0400
0400
3FC0
0440
1440
0C40
0440
0A50
1250
6030
ENDCHAR
STARTCHAR 4E39
ENCODING 20025
SWIDTH 720 0
DWIDTH 12 0
BBX 12 12 0 -2
BITMAP
0000
1FC0
1040
1440
1240
1240
7FF0
1040
1040
2040
2040
41C0
ENDCHAR
STARTCHAR 4E3B
ENCODING 20027
SWIDTH 720 0
DWIDTH 12 0
BBX 12 12 0 -2
BITMAP
0000
0400
0200
7FF0
0200
0200
0200
1FC0
0200
0200
0200
7FF0
ENDCHAR
STARTCHAR 4E3C
ENCODING 20028
SWIDTH 720 0
DWIDTH 12 0
BBX 12 12 0 -2
BITMAP
0000
1040
1040
7FF0
1040
1440
1240
1240
7FF0
1040
2040
4040
ENDCHAR
STARTCHAR 4E3F
ENCODING 20031
SWIDTH 720 0
DWIDTH 12 0
BBX 12 12 0 -2
BITMAP
0000
0080
0080
0080
0080
0080
0080
0100
0100
0200
0400
1800
ENDCHAR
STARTCHAR 4E40
ENCODING 20032
SWIDTH 720 0
DWIDTH 12 0
BBX 12 12 0 -2
BITMAP
0000
0000
0800
0800
1400
2400
0200
0200
0100
0080
0040
0030
ENDCHAR
STARTCHAR 4E42
ENCODING 20034
SWIDTH 720 0
DWIDTH 12 0
BBX 12 12 0 -2
BITMAP
0000
1040
1040
1040
0880
0880
0500
0200
0300
0480
1840
6030
ENDCHAR
STARTCHAR 4E43
ENCODING 20035
SWIDTH 720 0
DWIDTH 12 0
BBX 12 12 0 -2
BITMAP
0000
3F80
0880
0880
0880
08F0
0810
1010
1010
1010
2020
40C0
ENDCHAR
STARTCHAR 4E45
ENCODING 20037
SWIDTH 720 0
DWIDTH 12 0
BBX 12 12 0 -2
BITMAP
0000
0400
0780
0C80
0880
1100
2100
0300
0480
0880
1040
6030
ENDCHAR
STARTCHAR 4E47
ENCODING 20039
SWIDTH 720 0
DWIDTH 12 0
BBX 12 12 0 -2
BITMAP
0000
0180
3E00
0400
0400
0400
7FF0
0400
0400
0400
0410
03F0
ENDCHAR
STARTCHAR 4E48
ENCODING 20040
SWIDTH 720 0
DWIDTH 12 0
BBX 12 12 0 -2
BITMAP
0000
0800
0800
1100
1100
2200
4200
0480
0440
08C0
0F20
3020
ENDCHAR
STARTCHAR 4E4B
ENCODING 20043
SWIDTH 720 0
DWIDTH 12 0
BBX 12 12 0 -2
BITMAP
0000
0200
0200
3FE0
0020
0040
0080
0100
2200
2400
3C00
43F0
ENDCHAR
STARTCHAR 4E4D
ENCODING 20045
SWIDTH 720 0
DWIDTH 12 0
BBX 12 12 0 -2
BITMAP
0000
1000
1000
1FF0
2200
4200
03E0
0200
03E0
0200
0200
0200
ENDCHAR
STARTCHAR 4E4E
ENCODING 20046
SWIDTH 720 0
DWIDTH 12 0
BBX 12 12 0 -2
BITMAP
0000
01C0
3E00
2240
1240
1280
7FF0
0200
0200
0200
0200
0E00
ENDCHAR
STARTCHAR 4E4F
ENCODING 20047
SWIDTH 720 0
DWIDTH 12 0
BBX 12 12 0 -2
BITMAP
0000
00E0
3F00
0200
0200
1FC0
0040
0080
2100
2600
3800
47F0
ENDCHAR
STARTCHAR 4E51
ENCODING 20049
SWIDTH 720 0
DWIDTH 12 0
BBX 12 12 0 -2
BITMAP
0000
0040
0380
3E00
0220
0B40
1380
6300
0A80
1240
6230
0200
ENDCHAR
STARTCHAR 4E55
ENCODING 20053
SWIDTH 720 0
DWIDTH 12 0
BBX 12 12 0 -2
BITMAP
0000
00E0
3F00
2100
3FF0
2100
3FF0
2100
2FF0
2910
4960
4100
ENDCHAR
STARTCHAR 4E56
ENCODING 20054
SWIDTH 720 0
DWIDTH 12 0
BBX 12 12 0 -2
BITMAP
0000
01C0
1E00
0200
7FF0
0200
0A90
7AE0
0A80
1A90
6A70
0200
ENDCHAR
STARTCHAR 4E57
ENCODING 20055
SWIDTH 720 0
DWIDTH 12 0
BBX 12 12 0 -2
BITMAP
0000
01C0
1E00
7FF0
1240
7FF0
1240
7FF0
0700
0A80
1240
6230
ENDCHAR
STARTCHAR 4E58
ENCODING 20056
SWIDTH 720 0
DWIDTH 12 0
BBX 12 12 0 -2
BITMAP
0000
01C0
1E00
7FF0
0A90
7AE0
0A80
1A90
6A70
0700
1AC0
6230
ENDCHAR
STARTCHAR 4E59
ENCODING 20057
SWIDTH 720 0
DWIDTH 12 0
BBX 12 12 0 -2
BITMAP
0000
3FC0
0040
0180
0300
0400
0800
1000
2010
4010
2010
1FE0
ENDCHAR
STARTCHAR 4E5A
ENCODING 20058
SWIDTH 720 0
DWIDTH 12 0
BBX 12 12 0 -2
BITMAP
0000
1000
1000
1000
1000
1000
1000
1000
1000
1020
1020
0FC0
ENDCHAR
STARTCHAR 4E5D
ENCODING 20061
SWIDTH 720 0
DWIDTH 12 0
BBX 12 12 0 -2
BITMAP
0000
0400
0400
0400
7F80
0480
0880
0880
0880
1090
2090
4070
ENDCHAR
STARTCHAR 4E5E
ENCODING 20062
SWIDTH 720 0
DWIDTH 12 0
BBX 12 12 0 -2
BITMAP
0000
0800
0800
1FF0
2000
5F80
0100
0600
0800
1020
2020
1FE0
ENDCHAR
STARTCHAR 4E5F
ENCODING 20063
SWIDTH 720 0
DWIDTH 12 0
BBX 12 12 0 -2
BITMAP
0000
0200
1200
1260
13A0
1E20
7220
1220
12E0
1010
1010
0FF0
ENDCHAR
STARTCHAR 4E62
ENCODING 20066
SWIDTH 720 0
DWIDTH 12 0
BBX 12 12 0 -2
BITMAP
0000
1100
1100
5500
5500
5500
5500
5500
7D00
4510
0110
00F0
ENDCHAR
STARTCHAR 4E69
ENCODING 20073
SWIDTH 720 0
DWIDTH 12 0
BBX 12 12 0 -2
BITMAP
0000
1080
1080
1E80
1080
1080
7E80
4280
4280
4290
7E90
4270
ENDCHAR
STARTCHAR 4E71
ENCODING 20081
SWIDTH 720 0
DWIDTH 12 0
BBX 12 12 0 -2
BITMAP
0000
0680
3880
0880
0880
7F80
0880
3E80
2280
2290
3E90
2270
ENDCHAR
STARTCHAR 4E73
ENCODING 20083
SWIDTH 720 0
DWIDTH 12 0
BBX 12 12 0 -2
BITMAP
0000
0E80
7280
5480
2880
7E80
0480
0F80
7880
0890
0890
3870
ENDCHAR
STARTCHAR 4E7E
ENCODING 20094
SWIDTH 720 0
DWIDTH 12 0
BBX 12 12 0 -2
BITMAP
0000
1100
7D00
11F0
7E00
45E0
7C40
4480
7D00
1210
7E10
11F0
ENDCHAR
STARTCHAR 4E80
ENCODING 20096
SWIDTH 720 0
DWIDTH 12 0
BBX 12 12 0 -2
BITMAP
0000
0F00
1FC0
7240
1FC0
1240
3FE0
2220
3FE0
2220
3FF0
01F0
ENDCHAR
STARTCHAR 4E82
ENCODING 20098
SWIDTH 720 0
DWIDTH 12 0
BBX 12 12 0 -2
BITMAP
0000
0E80
7480
5280
7E80
2C80
7E80
5680
7E80
5690
5A90
6670
ENDCHAR
STARTCHAR 4E85
ENCODING 20101
SWIDTH 720 0
DWIDTH 12 0
BBX 12 12 0 -2
BITMAP
0000
0200
0200
0200
0200
0200
0200
0200
0200
0200
0200
0E00
ENDCHAR
STARTCHAR 4E86
ENCODING 20102
SWIDTH 720 0
DWIDTH 12 0
BBX 12 12 0 -2
BITMAP
0000
3FE0
0040
0080
0300
0200
0200
0200
0200
0200
0200
0E00
ENDCHAR
STARTCHAR 4E88
ENCODING 20104
SWIDTH 720 0
DWIDTH 12 0
BBX 12 12 0 -2
BITMAP
0000
1FC0
0840
0480
0300
7FF0
0210
0220
0200
0200
0200
0E00
ENDCHAR
STARTCHAR 4E89
ENCODING 20105
SWIDTH 720 0
DWIDTH 12 0
BBX 12 12 0 -2
BITMAP
0000
0800
1F80
2100
7FE0
0220
7FF0
0220
3FE0
0200
0200
0E00
ENDCHAR
ENDFONT
